<svg width="325" height="250" viewBox="0 0 325 250" fill="none" xmlns="http://www.w3.org/2000/svg">
<path d="M44.9633 232.165C44.7819 231.282 44.4241 230.444 43.9114 229.703C43.3986 228.962 42.7415 228.331 41.9793 227.85C41.8877 227.785 41.7783 227.75 41.6662 227.75C41.5541 227.75 41.4447 227.785 41.3531 227.85H41.3412L35.7793 231.102L34.9859 231.566C34.8426 231.652 34.7386 231.79 34.6962 231.952C34.6538 232.114 34.6764 232.286 34.759 232.431C35.9694 234.516 37.9001 236.087 40.1879 236.848C40.8655 237.089 41.5973 237.136 42.3001 236.982C43.0028 236.828 43.6483 236.48 44.1631 235.978C44.5739 235.443 44.8591 234.823 44.9976 234.162C45.1361 233.502 45.1244 232.82 44.9633 232.165V232.165Z" fill="#FF8684"/>
<path d="M309.49 184.52C309.521 184.52 309.55 184.511 309.576 184.495H309.531C309.518 184.504 309.505 184.513 309.49 184.52Z" fill="#6D458F"/>
<path d="M323.551 231.772L318.581 231.404L306.755 230.527L292.35 229.459L279.982 228.542L275.872 228.237C275.592 228.217 275.302 228.181 275.019 228.148C276.311 226.309 277.612 224.477 278.923 222.653C282.383 217.824 285.891 213.027 289.448 208.264C293.283 203.145 297.175 198.054 301.274 193.139C302.902 191.185 304.56 189.254 306.325 187.422C306.99 186.729 307.672 186.057 308.391 185.412C308.659 185.175 308.932 184.943 309.215 184.729L309.344 184.63C309.392 184.596 309.445 184.562 309.493 184.525C309.445 184.528 309.398 184.513 309.36 184.484H309.421C309.458 184.49 309.496 184.493 309.534 184.494C309.64 184.393 309.636 184.458 309.573 184.494C309.776 184.494 309.994 184.479 310.189 184.479H323.555C323.717 184.47 323.869 184.4 323.981 184.282C324.093 184.165 324.155 184.009 324.155 183.847C324.155 183.684 324.093 183.528 323.981 183.411C323.869 183.293 323.717 183.223 323.555 183.214H310.087C309.856 183.214 309.617 183.196 309.387 183.214C309.066 183.276 308.769 183.43 308.534 183.658C307.856 184.182 307.21 184.745 306.599 185.345C304.927 186.961 303.383 188.708 301.87 190.464C297.719 195.304 293.822 200.359 289.98 205.448C286.238 210.402 282.559 215.401 278.945 220.445C277.683 222.196 276.429 223.951 275.183 225.712C274.581 226.565 273.934 227.398 273.373 228.271L273.35 228.302C273.307 228.352 273.272 228.41 273.248 228.473C273.201 228.57 273.186 228.68 273.207 228.786V239.678C273.211 239.844 273.279 240.002 273.397 240.12C273.514 240.237 273.672 240.305 273.838 240.31L278.636 240.76L290.098 241.838L304.016 243.145L316.005 244.271L319.963 244.643C320.589 244.703 321.228 244.805 321.857 244.822H321.939C322.749 244.899 322.744 243.628 321.939 243.558L317.143 243.108L305.68 242.031L291.763 240.722L279.772 239.596L275.816 239.224C275.379 239.184 274.922 239.105 274.471 239.068V229.397L278.81 229.72L290.635 230.597L305.04 231.665L317.408 232.581L321.519 232.886C322.164 232.934 322.821 233.023 323.469 233.03H323.553C324.363 233.096 324.36 231.832 323.551 231.772V231.772Z" fill="#6D458F"/>
<path d="M315.689 239.322L305.385 238.399L292.871 237.278L282.09 236.314L278.517 235.993C277.956 235.944 277.383 235.851 276.811 235.841H276.736C275.926 235.768 275.931 237.036 276.736 237.105L281.049 237.491L291.353 238.414L303.867 239.535L314.648 240.501L318.22 240.82C318.782 240.871 319.355 240.961 319.927 240.973C319.952 240.972 319.977 240.972 320.002 240.973C320.812 241.045 320.807 239.779 320.002 239.707L315.689 239.322ZM323.23 235.829L318.794 235.444L308.136 234.517L295.299 233.402L284.195 232.436L280.503 232.115C279.928 232.064 279.342 231.973 278.763 231.963H278.686C277.876 231.893 277.879 233.158 278.686 233.227L283.122 233.613L293.782 234.541L306.619 235.657L317.721 236.623L321.413 236.943C321.988 236.993 322.576 237.085 323.153 237.095C323.179 237.094 323.205 237.094 323.231 237.095C324.04 237.165 324.035 235.898 323.23 235.829V235.829Z" fill="#6D458F"/>
<path d="M221.2 54.4912L233.875 54.4263L246.227 54.3632L254.783 54.3188C255.36 54.3188 255.937 54.3188 256.513 54.3103C257.517 54.3328 258.489 53.9581 259.217 53.2675C259.946 52.577 260.372 51.6267 260.403 50.6234C260.432 48.7671 260.384 46.9075 260.374 45.0512L260.313 33.1272L260.25 20.7988C260.239 18.5911 260.238 16.3851 260.216 14.1774C260.212 13.6711 260.108 13.1707 259.908 12.7055C259.709 12.2402 259.418 11.8194 259.054 11.4679C258.69 11.1164 258.259 10.8411 257.787 10.6583C257.315 10.4755 256.811 10.3889 256.305 10.4034L252.069 10.5211L241.771 10.8078L228.902 11.1644L216.919 11.5056L209.413 11.7137C208.879 11.7074 208.345 11.7388 207.816 11.8076C206.915 11.972 206.105 12.4569 205.534 13.1727C204.964 13.8884 204.672 14.7865 204.712 15.7009L204.75 23.0184L204.815 35.5857L204.873 46.9365L204.89 50.1986C204.837 50.7761 204.901 51.3584 205.079 51.9103C205.258 52.4621 205.546 52.9722 205.927 53.4095C207.393 54.9177 209.761 54.5577 211.675 54.5492L221.2 54.4912Z" fill="#CFF0FA"/>
<path d="M208.594 86.8327C208.611 85.0451 208.17 83.283 207.312 81.7144C204.793 81.8222 202.391 82.8072 200.522 84.499C198.653 86.1907 197.434 88.4828 197.076 90.9786C196.763 93.4333 197.29 95.9216 198.572 98.0385C198.685 98.0282 198.797 98.0214 198.913 98.0095C201.601 97.6221 204.059 96.2789 205.837 94.2261C207.615 92.1733 208.594 89.5484 208.594 86.8327V86.8327Z" fill="#FE744F"/>
<path d="M197.076 90.9791C197.434 88.4833 198.653 86.1912 200.522 84.4995C202.391 82.8077 204.793 81.8226 207.312 81.7148C207.164 81.4385 207.002 81.1692 206.828 80.9079C201.305 72.6537 187.771 75.4056 186.436 85.3438C186.262 86.9266 186.418 88.5284 186.896 90.0476C187.373 91.5667 188.161 92.9701 189.21 94.1686C190.258 95.3671 191.544 96.3346 192.987 97.0096C194.429 97.6847 195.996 98.0527 197.588 98.0901C197.917 98.0901 198.244 98.0714 198.572 98.0441C197.289 95.9258 196.762 93.4355 197.076 90.9791V90.9791Z" fill="#FFD35C"/>
<path d="M217.467 86.5478C216.364 84.9053 214.839 83.5898 213.052 82.7394C211.265 81.889 209.283 81.5349 207.312 81.7144C208.17 83.283 208.611 85.0452 208.593 86.8327C208.594 89.549 207.615 92.1742 205.836 94.2271C204.057 96.28 201.598 97.6229 198.91 98.0095C198.797 98.0215 198.684 98.0283 198.568 98.0385C199.636 99.9562 201.25 101.513 203.205 102.512C205.16 103.511 207.367 103.906 209.547 103.648C212.236 103.262 214.695 101.92 216.473 99.8671C218.252 97.8144 219.23 95.1891 219.229 92.4732C219.254 90.3654 218.639 88.2996 217.467 86.5478V86.5478Z" fill="#FFD35C"/>
<path d="M242.31 26.2041L229.826 38.7116L221.649 32.4945L212.18 44.9287H251.994L242.31 26.2041V26.2041Z" fill="#4FB3AA"/>
<path d="M223.514 18.8198C222.862 18.8198 222.225 19.0131 221.683 19.3753C221.141 19.7375 220.718 20.2523 220.469 20.8546C220.219 21.4569 220.154 22.1197 220.281 22.7591C220.408 23.3985 220.722 23.9858 221.183 24.4468C221.644 24.9078 222.232 25.2217 222.871 25.3489C223.51 25.4761 224.173 25.4108 224.775 25.1613C225.378 24.9119 225.893 24.4894 226.255 23.9473C226.617 23.4053 226.81 22.768 226.81 22.116C226.809 21.2421 226.462 20.4042 225.844 19.7863C225.226 19.1683 224.388 18.8207 223.514 18.8198Z" fill="#F08385"/>
<path d="M177.788 19.7433C178.794 22.0244 176.975 24.9401 178.262 27.0796C179.782 29.6064 184.233 28.7857 185.769 31.2988C187.134 33.5458 185.178 36.958 186.946 38.9081C187.38 39.3131 187.854 39.6737 188.36 39.9847C189.139 40.5628 189.763 41.3248 190.176 42.2026C191.667 40.8239 192.85 39.1463 193.649 37.2792C194.448 35.4122 194.845 33.3977 194.813 31.3671C194.801 30.8534 194.761 30.3407 194.692 29.8316C194.246 26.4576 192.685 23.3295 190.257 20.9452C187.828 18.5609 184.672 17.0574 181.29 16.674C179.145 16.5012 176.989 16.8373 174.998 17.655C175.595 17.7589 176.158 18.0022 176.643 18.3651C177.128 18.728 177.52 19.2002 177.788 19.7433V19.7433Z" fill="#59679C"/>
<path d="M190.182 42.2087C189.77 41.3309 189.146 40.5689 188.367 39.9908C187.861 39.6798 187.387 39.3192 186.953 38.9142C185.185 36.9641 187.149 33.5519 185.775 31.305C184.24 28.7884 179.782 29.6125 178.269 27.0857C176.982 24.948 178.801 22.0322 177.794 19.7494C177.526 19.2097 177.134 18.7407 176.65 18.3803C176.167 18.0199 175.606 17.7783 175.012 17.6748C172.564 18.6525 170.413 20.2489 168.768 22.3077C167.123 24.3665 166.041 26.8171 165.628 29.4197C165.628 29.4555 165.628 29.4897 165.618 29.5255C166.25 30.027 166.99 30.3762 167.779 30.546C168.569 30.7158 169.387 30.7017 170.17 30.5048C170.861 30.2306 171.6 30.0966 172.343 30.1107C173.737 30.3274 174.373 31.9055 175.049 33.1441C175.163 33.3883 175.334 33.601 175.549 33.7635C175.895 33.9354 176.285 33.995 176.666 33.9341C178.669 33.8249 181.162 34.2753 181.761 36.1793C181.93 36.9539 181.93 37.7558 181.761 38.5304C181.437 40.995 181.484 43.4942 181.899 45.9451C181.899 45.9844 181.914 46.0236 181.921 46.0646L182.008 46.056C185.075 45.6815 187.94 44.333 190.182 42.2087V42.2087Z" fill="#4FB3AA"/>
<path d="M181.744 38.5205C181.913 37.7459 181.913 36.944 181.744 36.1695C181.145 34.2569 178.653 33.815 176.65 33.9242C176.269 33.9852 175.878 33.9255 175.532 33.7536C175.318 33.5911 175.146 33.3785 175.032 33.1343C174.35 31.8957 173.72 30.3175 172.326 30.1008C171.583 30.0868 170.844 30.2208 170.153 30.4949C169.37 30.6919 168.552 30.706 167.763 30.5362C166.973 30.3664 166.234 30.0172 165.601 29.5156C165.319 31.7335 165.545 33.9864 166.261 36.1043C166.977 38.2223 168.164 40.1501 169.734 41.7423C171.303 43.3346 173.214 44.5497 175.321 45.2961C177.428 46.0426 179.678 46.3008 181.899 46.0513C181.899 46.0103 181.882 45.9711 181.877 45.9319C181.464 43.4818 181.419 40.9838 181.744 38.5205V38.5205Z" fill="#59679C"/>
<path d="M232.167 237.945C230.684 234.681 229.311 231.365 227.919 228.062C226.371 224.393 224.832 220.721 223.302 217.045L222.329 214.71C222.288 214.579 222.208 214.464 222.099 214.38C221.99 214.297 221.857 214.25 221.72 214.245C217.027 214.097 212.337 214.058 207.631 214.027C201.513 213.986 195.395 213.975 189.278 213.995C183.115 214.007 176.951 214.033 170.786 214.071C165.895 214.102 161.009 214.139 156.127 214.181C153.865 214.199 151.587 214.143 149.326 214.244H149.229C149.092 214.247 148.959 214.294 148.849 214.377C148.74 214.461 148.66 214.576 148.62 214.708L146.962 219.26C141.106 219.185 135.249 219.128 129.389 219.089C124.261 219.058 119.135 219.041 114.01 219.038C111.761 219.038 109.49 218.953 107.243 219.038H107.153C107.042 219.038 106.934 219.066 106.838 219.121C106.742 219.176 106.663 219.255 106.607 219.35C104.56 223.174 102.843 227.198 101.079 231.163C99.1318 235.532 97.2147 239.915 95.3277 244.311C94.9251 245.243 94.527 246.178 94.1335 247.114C93.8161 247.853 94.9063 248.497 95.2254 247.752C96.3389 245.136 97.4644 242.529 98.6018 239.933C100.68 235.156 102.772 230.396 104.952 225.671C105.785 223.868 106.617 222.058 107.545 220.302C109.26 220.295 110.976 220.295 112.693 220.302C117.508 220.302 122.325 220.315 127.142 220.34C133.902 220.375 140.663 220.435 147.424 220.521C155.125 220.619 162.827 220.76 170.53 220.942C178.088 221.126 185.648 221.36 193.201 221.696L195.364 221.795C197.541 228.26 199.503 234.795 201.245 241.39C201.966 244.09 202.612 246.809 203.182 249.545C203.344 250.342 204.564 250.006 204.401 249.204C202.477 240.402 200.058 231.716 197.156 223.187C196.921 222.46 196.682 221.735 196.437 221.012C196.397 220.88 196.317 220.765 196.208 220.681C196.099 220.598 195.966 220.551 195.828 220.548C188.333 220.19 180.833 219.94 173.333 219.744C165.618 219.542 157.902 219.39 150.184 219.289L148.308 219.267L149.683 215.494L154.801 215.447C159.458 215.403 164.114 215.368 168.771 215.339C174.853 215.3 180.935 215.272 187.018 215.254C193.194 215.239 199.371 215.244 205.55 215.269C210.479 215.295 215.409 215.331 220.338 215.459L221.311 215.488C222.171 217.554 223.032 219.619 223.896 221.682C225.581 225.712 227.279 229.738 228.99 233.76C229.672 235.369 230.355 236.979 231.087 238.573C231.411 239.319 232.499 238.677 232.167 237.945V237.945Z" fill="#4FB3AA"/>
<path d="M134.101 234.436C136.472 235.029 138.915 235.284 141.357 235.195C146.441 235.109 151.541 234.862 156.622 234.623C159.082 234.552 161.531 234.27 163.943 233.779C166.285 233.257 168.464 232.235 170.781 231.629C176.07 230.247 181.296 232.729 186.592 232.801C186.753 232.793 186.906 232.722 187.018 232.605C187.129 232.487 187.192 232.331 187.192 232.169C187.192 232.007 187.129 231.851 187.018 231.733C186.906 231.616 186.753 231.545 186.592 231.537C182.096 231.475 177.769 229.686 173.253 229.959C171.066 230.2 168.923 230.749 166.889 231.588C164.703 232.363 162.432 232.874 160.125 233.112C157.809 233.35 155.48 233.408 153.157 233.497L145.853 233.777C143.488 233.867 141.113 234.019 138.747 233.896C136.496 233.704 134.274 233.252 132.127 232.549C130.951 232.186 129.743 231.936 128.519 231.803C127.282 231.726 126.04 231.826 124.832 232.102C123.613 232.407 122.372 232.616 121.121 232.728C120.636 232.821 120.133 232.751 119.691 232.53C119.583 232.442 119.49 232.337 119.417 232.219C120.004 231.955 119.661 230.923 118.922 231.049C118.745 231.087 118.579 231.169 118.442 231.287C118.304 231.405 118.197 231.555 118.132 231.724C118.067 231.893 118.044 232.076 118.067 232.256C118.09 232.436 118.158 232.608 118.263 232.755C118.451 233.103 118.724 233.398 119.058 233.61C119.392 233.823 119.774 233.947 120.169 233.97C122.558 234.173 124.825 233.146 127.19 233.033C129.552 233.139 131.884 233.612 134.101 234.436V234.436ZM187.805 239.351C179.158 238.945 170.506 238.409 161.853 238.211C157.549 238.081 153.242 238.181 148.949 238.508C144.703 238.863 140.492 239.532 136.282 240.165C131.558 240.962 126.79 241.474 122.005 241.7C121.193 241.724 121.189 242.99 122.005 242.964C130.522 242.71 138.858 240.787 147.315 239.931C155.934 239.293 164.589 239.293 173.209 239.931L187.805 240.613C188.618 240.654 188.617 239.39 187.805 239.351V239.351ZM206.208 226.343C208.712 225.295 211.426 224.849 214.133 225.042C214.945 225.1 214.942 223.835 214.133 223.777C211.312 223.578 208.484 224.038 205.872 225.124C205.714 225.173 205.579 225.281 205.497 225.425C205.415 225.57 205.391 225.74 205.43 225.902C205.475 226.063 205.583 226.2 205.728 226.283C205.874 226.366 206.047 226.387 206.208 226.343V226.343ZM221.848 230.244L206.374 231.385C205.567 231.445 205.56 232.711 206.374 232.651L221.848 231.508C222.649 231.448 222.662 230.184 221.848 230.244ZM216.269 239.063H210.673C210.511 239.071 210.359 239.141 210.247 239.259C210.135 239.376 210.073 239.532 210.073 239.695C210.073 239.857 210.135 240.013 210.247 240.13C210.359 240.248 210.511 240.318 210.673 240.327H216.269C216.431 240.318 216.584 240.248 216.696 240.13C216.807 240.013 216.87 239.857 216.87 239.695C216.87 239.532 216.807 239.376 216.696 239.259C216.584 239.141 216.431 239.071 216.269 239.063Z" fill="#4FB3AA"/>
<path d="M124.397 105.706L122.79 101.572L122.025 99.6101L121.483 99.9513L120.94 100.293L118.419 101.869C118.335 101.917 118.241 101.945 118.145 101.951C118.048 101.957 117.952 101.941 117.863 101.905C117.773 101.868 117.693 101.812 117.629 101.74C117.564 101.668 117.517 101.583 117.49 101.49C117.468 101.419 117.451 101.347 117.432 101.275L117.407 101.178C117.351 100.977 117.298 100.774 117.245 100.571L117.171 100.299C117.018 100.504 116.864 100.711 116.706 100.912C115.111 102.942 113.287 104.781 111.272 106.394C111.283 106.453 111.304 106.511 111.333 106.564L112.587 108.748C113.048 109.546 113.454 110.432 113.988 111.183C114.315 111.645 115.134 111.819 115.629 112.036L118.975 113.467L121.273 114.448C121.357 114.494 121.45 114.521 121.546 114.526C121.642 114.532 121.738 114.516 121.826 114.48C121.915 114.444 121.995 114.388 122.06 114.318C122.125 114.247 122.173 114.163 122.201 114.071L124.84 107.629C125.095 106.998 124.622 106.284 124.397 105.706ZM115.22 85.1473C115.233 85.0313 115.249 84.9153 115.266 84.8061L115.322 84.4751L108.752 72.7353C109.153 72.0791 109.434 71.3562 109.581 70.601C109.782 69.7905 109.935 68.969 110.042 68.1408C109.633 67.9884 109.231 67.8205 108.835 67.6375C107.425 66.9839 106.041 66.2742 104.688 65.5099L104.358 65.3223L103.824 66.1583L101.791 69.3299L101.431 69.8929L101.071 70.456L101.412 70.8996L102.391 72.1877C102.587 72.4554 102.862 72.6548 103.178 72.7575C103.739 72.9605 104.35 73.1738 104.976 73.3359L106.974 88.7489L107.179 88.6926L107.385 88.638C109.918 87.9713 112.493 87.4771 115.093 87.1588C115.097 86.4865 115.139 85.8149 115.22 85.1473V85.1473Z" fill="#6E458F"/>
<path d="M133.706 98.4546C133.683 98.3466 133.628 98.2477 133.549 98.1706C133.471 98.0934 133.37 98.0414 133.262 98.0212L132.75 98.098C132.643 98.1748 132.56 98.2812 132.512 98.4041C132.464 98.5271 132.452 98.6613 132.479 98.7907C133.203 104.18 133.898 109.573 134.564 114.971C134.661 115.768 135.929 115.778 135.828 114.971C135.155 109.461 134.447 103.955 133.706 98.4546V98.4546ZM122.319 61.495C122.327 61.6569 122.398 61.8095 122.515 61.9212C122.633 62.0328 122.789 62.0951 122.951 62.0951C123.113 62.0951 123.269 62.0328 123.387 61.9212C123.504 61.8095 123.575 61.6569 123.583 61.495C123.29 48.061 123.206 34.6248 123.331 21.1863C123.365 17.4067 123.416 13.6276 123.486 9.84914C123.477 9.68717 123.407 9.53462 123.29 9.42295C123.172 9.31128 123.016 9.24902 122.854 9.24902C122.692 9.24902 122.536 9.31128 122.418 9.42295C122.3 9.53462 122.23 9.68717 122.222 9.84914C121.979 23.2854 121.946 36.7222 122.121 50.1595C122.171 53.938 122.237 57.7165 122.319 61.495V61.495Z" fill="#4EB3AA"/>
<path d="M155.013 48.3957L154.9 48.3172L154.069 47.7371L143.676 40.4793L143.004 40.0118L142.191 39.4437L142.053 39.3482C141.949 39.2657 141.818 39.2258 141.686 39.2366C141.554 39.2474 141.431 39.308 141.342 39.4062C141.236 39.4739 141.157 39.5759 141.117 39.6951C141.077 39.8144 141.079 39.9436 141.123 40.0613C141.245 40.4469 141.39 40.8257 141.543 41.1993C138.543 44.7578 135.806 48.5298 133.354 52.4853C130.58 56.771 127.935 61.1375 125.419 65.5848C124.073 67.9643 122.765 70.3659 121.495 72.7898C119.327 68.2852 115.986 64.4479 111.823 61.6812C111.779 61.6526 111.733 61.6291 111.684 61.6113C111.381 60.8095 110.828 60.1268 110.106 59.6646C109.044 59.0011 107.829 58.6221 106.578 58.5642V58.6017C106.795 59.8369 106.769 61.1026 106.501 62.3278C106.28 63.0598 105.801 63.6863 105.152 64.0903C104.93 64.2365 104.698 64.367 104.457 64.481C104.093 64.6485 103.721 64.7977 103.342 64.928C101.154 65.6065 98.8756 65.9465 96.5853 65.9363C95.7392 66.068 94.8734 65.9835 94.0688 65.6906C93.255 65.1958 93.0059 63.9538 92.8267 63.1007C92.8148 63.0444 92.808 62.9864 92.796 62.9301C91.0211 64.0884 89.7315 65.8562 89.1705 67.9C89.1165 68.1067 89.1051 68.3222 89.1371 68.5334C89.1691 68.7445 89.2437 68.947 89.3565 69.1284C88.0286 70.2859 86.8631 71.6173 85.8914 73.0866C84.3511 75.5528 83.19 78.2363 82.4467 81.0473C80.85 86.6308 80.4948 92.496 81.406 98.2313C82.097 102.597 83.4533 107.924 87.3552 110.481V114.547C87.3508 114.633 87.3638 114.718 87.3935 114.799C87.4233 114.88 87.4691 114.953 87.5283 115.016C87.5874 115.078 87.6586 115.127 87.7375 115.161C87.8164 115.195 87.9014 115.213 87.9873 115.213C88.0732 115.213 88.1582 115.195 88.2371 115.161C88.316 115.127 88.3872 115.078 88.4464 115.016C88.5055 114.953 88.5513 114.88 88.5811 114.799C88.6108 114.718 88.6239 114.633 88.6194 114.547V111.181H88.6297C91.1197 112.108 93.7934 112.435 96.4335 112.134C99.4576 112.064 102.439 111.403 105.21 110.19C107.365 109.158 109.394 107.881 111.256 106.383C113.274 104.773 115.101 102.936 116.699 100.908C116.857 100.707 117.011 100.5 117.164 100.296L117.238 100.567C117.291 100.77 117.344 100.973 117.4 101.174L117.425 101.272C117.444 101.343 117.461 101.415 117.484 101.487C117.51 101.579 117.558 101.665 117.622 101.737C117.686 101.808 117.766 101.865 117.856 101.901C117.945 101.938 118.041 101.953 118.138 101.947C118.234 101.941 118.328 101.913 118.412 101.865L120.933 100.289L121.476 99.9477L122.018 99.6065L123.196 98.8711C123.337 98.7831 123.439 98.6445 123.481 98.4837C123.523 98.3229 123.502 98.1521 123.423 98.0061L117.422 85.5515L116.569 83.7686C116.522 83.6475 116.43 83.549 116.313 83.4929C116.196 83.4368 116.062 83.4274 115.938 83.4666C115.811 83.4672 115.688 83.5131 115.592 83.596C115.496 83.6789 115.433 83.7933 115.414 83.9187C115.375 84.1013 115.351 84.2838 115.32 84.4664C115.301 84.5773 115.279 84.6865 115.264 84.7974L115.218 85.1386C115.139 85.8062 115.098 86.4779 115.097 87.1501C112.497 87.4684 109.921 87.9626 107.388 88.6293L107.182 88.6839L106.977 88.7402C103.666 89.6259 100.498 90.9775 97.568 92.7547C97.3769 92.8724 97.1927 93.0004 97.005 93.1232C95.8933 87.9149 94.3191 82.8162 92.3012 77.8876C91.9975 77.1455 90.7657 77.4696 91.0831 78.2288C93.1551 83.298 94.7582 88.5463 95.8721 93.908C94.9154 94.5959 94.0036 95.3441 93.1424 96.1482C92.5469 96.7061 93.4426 97.5984 94.0364 97.0422C94.7079 96.414 95.4136 95.8234 96.1502 95.2729C96.3004 96.0498 96.4403 96.8278 96.5699 97.6069C96.7013 98.4071 97.9195 98.0676 97.7881 97.2657C97.6346 96.329 97.4605 95.389 97.2763 94.4642C101.48 91.7688 106.178 89.9357 111.096 89.0712C112.434 88.8082 113.78 88.5903 115.132 88.4178C115.199 89.7588 115.366 91.0981 115.554 92.4015C115.858 94.5154 116.279 96.614 116.775 98.692C114.136 102.441 110.731 105.587 106.784 107.922C104.333 109.422 101.584 110.368 98.7282 110.693C96.1345 111.092 93.493 111.062 90.909 110.604C89.7618 110.353 88.6791 109.866 87.7292 109.176C86.7793 108.485 85.9827 107.605 85.3898 106.591C84.1813 104.41 83.3545 102.039 82.9449 99.5792C81.8617 94.2343 81.935 88.7194 83.1599 83.4052C83.8073 80.3691 84.8954 77.444 86.3895 74.7228C87.4061 72.9531 88.7123 71.3666 90.2539 70.0292C92.361 71.4982 96.8719 72.1551 98.8323 72.3803C99.1123 72.4126 99.3959 72.3659 99.6507 72.2452C99.9055 72.1246 100.121 71.935 100.274 71.6978L101.066 70.4575L101.426 69.8945L101.786 69.3315L103.819 66.1513L104.353 65.3153L104.683 65.5029C105.404 65.9073 107.191 66.8917 108.83 67.6305C109.033 67.7226 109.234 67.8011 109.431 67.8932C109.627 67.9853 109.84 68.0638 110.036 68.1338C110.973 68.4869 111.729 68.6609 111.993 68.4409C112.514 68.0126 112.701 65.7196 112.273 63.546C116.035 66.3454 118.992 70.087 120.846 74.3935C121.109 75.0009 121.88 74.6869 121.984 74.1478C122.068 74.1301 122.147 74.0931 122.214 74.0398C122.281 73.9865 122.335 73.9184 122.372 73.8407C126.994 64.8907 132.179 56.2432 137.897 47.9504C139.21 46.048 140.62 44.2139 142.12 42.455C143.056 44.1822 144.146 45.8215 145.377 47.3533C146.954 49.3874 148.636 51.3379 150.417 53.1967C149.838 54.9199 149.303 56.6584 148.664 58.3611C147.91 60.359 147.073 62.325 146.156 64.254C144.334 68.1082 142.248 71.8292 140.074 75.4939C138.854 77.5515 137.605 79.5886 136.355 81.636C135.93 82.3321 137.022 82.9684 137.447 82.274C142.14 75.0906 146.187 67.5044 149.538 59.6049C150.231 57.8305 150.806 56.022 151.405 54.2153L151.536 54.3483C151.605 54.4157 151.688 54.4665 151.779 54.497C151.871 54.5276 151.968 54.5371 152.063 54.5248C152.159 54.5125 152.25 54.4787 152.331 54.426C152.412 54.3732 152.479 54.303 152.529 54.2204L155.231 49.2726C155.316 49.1268 155.341 48.9536 155.3 48.7899C155.259 48.6261 155.156 48.4847 155.013 48.3957V48.3957Z" fill="#4EB3AA"/>
<path d="M120.809 84.0672C121.136 84.103 121.462 84.1286 121.79 84.1354C122.763 84.1536 123.736 84.0661 124.69 83.8744C125.645 83.6814 126.584 83.4209 127.502 83.0947C128.301 82.7157 129.154 82.4636 130.03 82.3474C130.428 82.3306 130.82 82.4406 131.151 82.6614C131.482 82.8822 131.734 83.2024 131.871 83.5758C131.989 83.9562 132.021 84.3582 131.964 84.7524C131.908 85.1467 131.764 85.5234 131.544 85.8552C131.233 86.3789 130.857 86.8605 130.424 87.2883L130.955 87.1791C131.454 87.0157 131.996 87.0449 132.475 87.261C132.67 87.3816 132.838 87.5408 132.969 87.7289C133.1 87.9171 133.191 88.13 133.236 88.3547C133.311 88.921 133.215 89.4968 132.96 90.0083C132.706 90.5198 132.305 90.9438 131.808 91.226C132.053 91.2386 132.292 91.3098 132.504 91.4336C132.716 91.5574 132.895 91.7302 133.026 91.9375C133.745 93.1744 131.907 94.2749 131.056 94.8379C128.97 96.2026 126.512 96.8841 124.021 96.788L124.704 99.3267L132.767 98.1017L133.279 98.0249L135.689 97.6581L135.203 74.0728C130.486 76.318 120.809 77.7477 120.809 77.7477V84.0672ZM282.363 196.34L266.791 131.924C266.731 131.963 266.665 131.992 266.595 132.009C266.546 132.022 266.496 132.029 266.446 132.028H266.381C265.231 132.001 264.08 131.975 262.928 131.953C256.822 131.833 250.714 131.767 244.606 131.714C236.83 131.646 229.052 131.601 221.273 131.579C212.371 131.548 203.468 131.532 194.566 131.531C185.083 131.531 175.6 131.538 166.116 131.55C156.597 131.565 147.079 131.588 137.561 131.618C128.552 131.646 119.542 131.678 110.531 131.716C102.575 131.75 94.6193 131.786 86.6643 131.825L67.5916 131.925L54.9373 131.995L50.382 132.024H50.3598C50.295 132.024 50.2307 132.014 50.1687 131.995C50.0996 131.977 50.0347 131.945 49.9776 131.902L29.2842 197.399L29.2739 205.205H29.4838C31.0858 205.215 137.123 205.87 211.429 205.87C248.906 205.87 278.309 205.7 282.171 205.203L282.332 205.183L282.352 205.022C282.395 204.76 283.216 198.49 282.363 196.34V196.34Z" fill="#FF8684"/>
<path d="M119.833 82.4787C119.702 80.785 119.661 79.0857 119.709 77.3876C119.709 77.1846 119.721 76.9799 119.729 76.7768C119.729 76.6932 119.729 76.6062 119.741 76.5277C120.031 76.4749 120.606 76.3094 120.708 76.2872C121.555 76.1029 122.399 75.913 123.24 75.7173C126.58 74.9473 129.9 74.1056 133.201 73.1923C133.362 73.147 133.5 73.0394 133.582 72.893C133.664 72.7466 133.685 72.5735 133.64 72.4117C133.595 72.25 133.487 72.1128 133.341 72.0304C133.194 71.948 133.021 71.9272 132.859 71.9724C129.257 72.9688 125.633 73.8787 121.988 74.7022C121.116 74.9001 120.214 75.0434 119.354 75.2823C118.494 75.5211 118.482 76.1951 118.453 76.9747C118.385 78.8083 118.422 80.6442 118.564 82.4736C118.63 83.2857 119.895 83.2925 119.833 82.4787V82.4787ZM149.439 16.092C148.856 15.5256 147.962 16.4179 148.545 16.986L153.621 21.9218C154.205 22.4899 155.1 21.5959 154.515 21.0278L149.439 16.092ZM160.432 11.1409C160.344 11.0039 160.206 10.9064 160.047 10.8685C159.889 10.8307 159.722 10.8555 159.581 10.9377C159.44 11.0199 159.337 11.1533 159.292 11.31C159.247 11.4667 159.264 11.6347 159.34 11.779C160.234 13.1896 161.243 14.5249 162.355 15.7713C162.474 15.8888 162.634 15.9547 162.802 15.9547C162.969 15.9547 163.13 15.8888 163.249 15.7713C163.364 15.6509 163.428 15.4908 163.428 15.3243C163.428 15.1577 163.364 14.9976 163.249 14.8773C162.207 13.713 161.264 12.4631 160.432 11.1409ZM177.573 7.63991C177.412 7.59721 177.24 7.61935 177.095 7.7016C176.949 7.78385 176.842 7.91969 176.795 8.08009L176.113 12.272C176.072 12.4336 176.096 12.6046 176.178 12.7495C176.26 12.8943 176.395 13.0019 176.555 13.05C176.716 13.0926 176.888 13.0703 177.034 12.9877C177.179 12.9051 177.287 12.7688 177.333 12.6081L178.015 8.4162C178.056 8.2548 178.032 8.08407 177.95 7.93949C177.868 7.79492 177.733 7.68762 177.573 7.63991V7.63991Z" fill="#FF8684"/>
<path d="M186.462 175.262C186.1 173.957 185.657 172.676 185.136 171.425C184.875 170.827 184.493 169.839 183.747 169.764C182.78 169.666 181.758 169.748 180.787 169.74C175.328 169.697 169.871 169.661 164.417 169.632C157.469 169.595 150.52 169.575 143.57 169.574C138.916 169.574 134.243 169.513 129.592 169.723C129.358 169.735 129.126 169.747 128.892 169.764C128.783 169.77 128.677 169.805 128.585 169.864C128.493 169.924 128.418 170.007 128.369 170.105C128.31 170.191 128.273 170.291 128.261 170.395L127.391 177.283L125.995 188.319L125.678 190.839C125.634 191.181 126.002 191.469 126.309 191.472C128.15 191.494 129.99 191.514 131.832 191.532C136.349 191.578 140.864 191.618 145.378 191.653C151.042 191.695 156.704 191.726 162.365 191.747C167.688 191.764 173.012 191.769 178.337 191.732C181.826 191.706 185.332 191.709 188.813 191.517C189.045 191.505 189.279 191.489 189.512 191.472C189.609 191.47 189.704 191.446 189.79 191.402C189.876 191.358 189.951 191.296 190.009 191.219C190.068 191.142 190.108 191.053 190.128 190.958C190.147 190.864 190.145 190.766 190.121 190.672C189.082 185.504 187.948 180.323 186.462 175.262Z" fill="#F9D0D2"/>
<path d="M252.321 157.905L255.221 157.946C255.383 157.937 255.536 157.867 255.648 157.749C255.759 157.632 255.822 157.476 255.822 157.313C255.822 157.151 255.759 156.995 255.648 156.878C255.536 156.76 255.383 156.69 255.221 156.681C250.485 156.61 245.748 156.557 241.009 156.523C234.526 156.467 228.043 156.421 221.56 156.386C217.167 156.359 212.774 156.337 208.382 156.32C208.488 154.907 208.624 153.498 208.749 152.095C208.82 151.285 207.554 151.29 207.484 152.095C207.36 153.494 207.223 154.904 207.117 156.313L198.246 156.268C189.732 156.231 181.218 156.197 172.703 156.168C164.006 156.139 155.304 156.113 146.6 156.088C138.159 156.064 129.719 156.042 121.279 156.023L110.261 155.999C110.65 154.179 111.044 152.359 111.444 150.539L111.865 148.628L116.942 148.64C124.934 148.658 132.926 148.677 140.918 148.7L166.218 148.777C174.522 148.805 182.825 148.837 191.128 148.872C198.874 148.905 206.62 148.943 214.367 148.985C221.014 149.023 227.661 149.067 234.31 149.118C239.339 149.159 244.368 149.21 249.397 149.272C250.334 149.283 251.27 149.297 252.205 149.313C252.373 149.313 252.534 149.246 252.653 149.127C252.771 149.009 252.838 148.848 252.838 148.68C252.838 148.512 252.771 148.351 252.653 148.232C252.534 148.113 252.373 148.047 252.205 148.047C247.619 147.975 243.033 147.922 238.447 147.888C232.168 147.831 225.889 147.786 219.61 147.752C212.086 147.705 204.562 147.666 197.038 147.634C188.795 147.596 180.553 147.563 172.311 147.535C163.894 147.504 155.473 147.477 147.047 147.453C138.876 147.429 130.705 147.407 122.535 147.388L100.477 147.34L91.3729 147.323L91.494 146.967C91.7499 146.224 92.0076 145.485 92.2669 144.749C92.5365 143.978 91.3149 143.648 91.047 144.408C90.7058 145.377 90.3782 146.349 90.0421 147.32L82.194 147.305L69.2889 147.284C67.2911 147.284 65.2847 147.229 63.2851 147.284H63.0258C62.8638 147.292 62.7112 147.363 62.5996 147.48C62.4879 147.598 62.4257 147.754 62.4257 147.916C62.4257 148.078 62.4879 148.234 62.5996 148.352C62.7112 148.47 62.8638 148.54 63.0258 148.548H67.1563L78.4798 148.567C82.19 148.567 85.9002 148.574 89.6105 148.588C89.3784 149.27 89.1413 149.941 88.911 150.618C88.3036 152.396 87.7019 154.176 87.1059 155.96L79.599 155.946L66.2691 155.926C64.2047 155.926 62.1318 155.869 60.0674 155.926H59.7995C59.6375 155.934 59.485 156.004 59.3733 156.122C59.2617 156.239 59.1994 156.395 59.1994 156.558C59.1994 156.72 59.2617 156.876 59.3733 156.993C59.485 157.111 59.6375 157.181 59.7995 157.19H64.0648L75.7619 157.209L86.6811 157.227C86.0976 158.99 85.5238 160.757 84.9596 162.527L84.6764 163.429L76.6884 163.39L67.4941 163.352L61.0313 163.328C60.0196 163.328 59.0062 163.293 57.9961 163.318H57.8716C57.7096 163.327 57.5571 163.397 57.4454 163.514C57.3337 163.632 57.2715 163.788 57.2715 163.95C57.2715 164.112 57.3337 164.268 57.4454 164.386C57.5571 164.504 57.7096 164.574 57.8716 164.582H59.9514L65.6447 164.603L74.2503 164.637C77.5977 164.651 80.944 164.667 84.2891 164.685C83.9479 165.811 83.6066 166.942 83.303 168.08C83.2577 168.242 83.2786 168.415 83.361 168.561C83.4434 168.708 83.5805 168.815 83.7423 168.86C83.9041 168.906 84.0772 168.885 84.2235 168.802C84.3699 168.72 84.4776 168.583 84.5228 168.421C84.8641 167.172 85.224 165.934 85.6028 164.697C89.4154 164.715 93.2297 164.736 97.0457 164.76C100.416 164.78 103.785 164.803 107.154 164.828C107.062 165.297 106.967 165.765 106.876 166.234C106.51 168.077 106.185 169.929 105.904 171.787C105.788 172.584 107.006 172.927 107.122 172.129C107.477 169.689 107.939 167.263 108.427 164.842L109.772 164.852C113.948 164.883 118.124 164.917 122.298 164.956C126.195 164.994 130.09 165.036 133.985 165.082C137.315 165.125 140.644 165.175 143.972 165.231C146.513 165.275 149.053 165.326 151.594 165.401C152.061 165.415 152.529 165.43 152.996 165.447C153.81 165.476 153.808 164.212 152.996 164.183C150.689 164.101 148.39 164.052 146.074 164.013C142.918 163.949 139.761 163.898 136.604 163.859C132.82 163.808 129.035 163.764 125.25 163.728C121.124 163.687 116.998 163.65 112.872 163.618L108.681 163.588L109.151 161.296C109.427 159.959 109.708 158.621 109.993 157.284L115.491 157.294C123.747 157.313 132.003 157.334 140.258 157.355C148.97 157.379 157.681 157.405 166.393 157.432C170.53 157.446 174.667 157.461 178.801 157.478C178.559 160.165 178.289 162.878 178.289 165.575C178.298 165.737 178.368 165.89 178.486 166.002C178.603 166.113 178.759 166.175 178.921 166.175C179.084 166.175 179.24 166.113 179.357 166.002C179.475 165.89 179.545 165.737 179.553 165.575C179.553 162.88 179.816 160.169 180.065 157.482L192.131 157.526C197.095 157.546 202.059 157.57 207.024 157.598C206.961 158.647 206.921 159.696 206.923 160.742C206.931 160.904 207.002 161.056 207.119 161.168C207.237 161.28 207.393 161.342 207.555 161.342C207.717 161.342 207.873 161.28 207.991 161.168C208.109 161.056 208.179 160.904 208.187 160.742C208.187 159.698 208.225 158.65 208.288 157.603L216.136 157.64C223.004 157.678 229.87 157.722 236.736 157.773C241.931 157.799 247.126 157.843 252.321 157.905V157.905ZM107.404 163.559L100.11 163.506C96.0016 163.481 91.8921 163.457 87.7815 163.434H85.9918C86.606 161.484 87.2509 159.543 87.8924 157.604L88.0187 157.227L93.4373 157.238C98.5215 157.246 103.606 157.256 108.69 157.268C108.249 159.36 107.82 161.457 107.404 163.559V163.559ZM108.961 155.997L98.4891 155.973L88.4418 155.956C89.2641 153.494 90.0979 151.036 90.9429 148.582H95.5887L110.568 148.615C110.022 151.071 109.487 153.531 108.961 155.997Z" fill="#F9D0D2"/>
<path d="M194.631 163.647C191.759 163.637 188.852 163.581 185.989 163.83C185.184 163.9 185.177 165.166 185.989 165.094C188.852 164.845 191.759 164.903 194.631 164.912C194.793 164.903 194.945 164.833 195.057 164.715C195.169 164.598 195.231 164.442 195.231 164.279C195.231 164.117 195.169 163.961 195.057 163.844C194.945 163.726 194.793 163.656 194.631 163.647V163.647ZM214.87 163.647C211.214 163.592 207.556 163.604 203.9 163.683C202.807 163.71 201.711 163.743 200.621 163.83C199.816 163.895 199.809 165.161 200.621 165.094C204.9 164.753 209.242 164.865 213.531 164.9L214.87 164.912C215.032 164.903 215.185 164.833 215.297 164.715C215.408 164.598 215.471 164.442 215.471 164.279C215.471 164.117 215.408 163.961 215.297 163.844C215.185 163.726 215.032 163.656 214.87 163.647V163.647ZM258.02 163.622C254.725 163.558 251.43 163.511 248.135 163.482C241.822 163.419 235.509 163.391 229.209 163.502C226.351 163.552 223.488 163.615 220.637 163.83C219.83 163.891 219.823 165.156 220.637 165.094C226.267 164.669 231.938 164.703 237.577 164.697C243.216 164.69 248.877 164.741 254.526 164.826C255.69 164.843 256.855 164.863 258.02 164.886C258.182 164.878 258.334 164.807 258.446 164.69C258.558 164.572 258.62 164.416 258.62 164.254C258.62 164.092 258.558 163.936 258.446 163.818C258.334 163.7 258.182 163.63 258.02 163.622V163.622Z" fill="#F9D0D2"/>
<path d="M38.7289 224.184L34.6001 219.691L25.3035 209.574L15.4967 198.901L9.72495 192.612C9.08819 192.085 8.34675 191.698 7.54966 191.479L3.75355 189.884L4.02653 190.054L3.49081 190.455L2.91073 190.892L2.16857 191.448L1.63285 191.849L1.15684 192.206C1.15684 192.206 1.06301 192.015 0.928223 191.72L1.83076 194.56L2.69917 197.29C2.76176 197.545 2.8781 197.783 3.04039 197.99C4.63391 199.8 6.30249 201.547 7.93183 203.325L17.3274 213.573L26.6769 223.774C28.2943 225.537 29.8503 227.394 31.5462 229.084L31.6161 229.16C31.6872 229.24 31.7786 229.299 31.8806 229.331L31.9335 229.346H31.9608C32.0337 229.36 32.1086 229.358 32.181 229.342C32.2534 229.326 32.3218 229.295 32.3822 229.252L38.5975 225.158C38.6765 225.107 38.7435 225.041 38.794 224.962C38.8444 224.883 38.877 224.794 38.8895 224.701C38.902 224.608 38.8941 224.514 38.8664 224.425C38.8387 224.335 38.7917 224.253 38.7289 224.184V224.184Z" fill="#FFD35E"/>
<path d="M95.9403 30.7955H95.8925C95.7015 30.8228 95.4882 30.8535 95.2647 30.8893C95.0412 30.9252 94.8279 30.9593 94.5822 31.0037C89.6686 31.8977 79.9557 35.0745 83.5454 48.5869C83.5454 48.5869 79.6725 47.5103 79.2409 49.9518C78.8092 52.3932 80.4607 55.8345 86.1284 53.968C87.3298 55.1022 88.6722 56.077 90.1225 56.8684C90.3238 56.9742 90.5285 57.0765 90.7367 57.1738C90.9448 57.271 91.1751 57.3717 91.3986 57.4587C91.6801 57.5679 91.9634 57.6651 92.2517 57.747C92.2961 59.4878 92.4838 61.222 92.813 62.9319C92.825 62.9882 92.8318 63.0462 92.8437 63.1025C93.0143 63.9556 93.272 65.1976 94.0858 65.6924C94.8904 65.9853 95.7562 66.0699 96.6023 65.9381C98.8926 65.9484 101.171 65.6083 103.359 64.9298C103.738 64.7995 104.11 64.6504 104.474 64.4828C104.715 64.3688 104.947 64.2383 105.169 64.0921C105.818 63.6881 106.297 63.0616 106.518 62.3297C106.786 61.1044 106.812 59.8387 106.595 58.6035V58.566C106.386 56.8942 106.064 55.2384 105.633 53.6097C106.917 52.7293 107.823 51.3969 108.168 49.8784C108.803 45.4476 100.12 30.34 95.9403 30.7955V30.7955ZM133.236 88.353C133.191 88.1284 133.1 87.9155 132.969 87.7273C132.838 87.5392 132.67 87.38 132.475 87.2594C131.996 87.0433 131.454 87.0141 130.955 87.1775L130.424 87.2867C130.857 86.8589 131.233 86.3773 131.544 85.8536C131.764 85.5218 131.908 85.1451 131.964 84.7508C132.021 84.3566 131.989 83.9546 131.871 83.5742C131.734 83.2011 131.481 82.8813 131.151 82.6608C130.82 82.4403 130.427 82.3306 130.03 82.3475C129.154 82.4643 128.301 82.717 127.502 83.0965C126.584 83.4227 125.645 83.6833 124.69 83.8762C123.736 84.0679 122.763 84.1554 121.79 84.1372C121.462 84.1323 121.134 84.1096 120.809 84.069C120.648 84.0519 120.488 84.0366 120.328 84.0093C119.944 83.9965 119.579 83.8414 119.304 83.5742C118.838 82.9157 117.741 83.5469 118.212 84.214C118.459 84.5529 118.792 84.8202 119.176 84.9886C119.753 85.2351 120.371 85.3722 120.998 85.3929C121.51 85.4237 122.022 85.4117 122.47 85.3929C124.242 85.3111 125.991 84.9661 127.66 84.3693C128.392 84.0225 129.163 83.7653 129.957 83.6032C130.795 83.5401 130.866 84.3761 130.583 84.9801C129.822 86.3426 128.618 87.404 127.171 87.9879C126.488 88.295 127 89.2812 127.659 89.143L130.119 88.6311C130.544 88.5424 130.972 88.4366 131.397 88.3667C131.794 88.3002 132.049 88.3667 132.028 88.8291C131.999 89.4893 131.373 89.9551 130.88 90.2963C130.22 90.7457 129.528 91.145 128.809 91.4906C128.114 91.8318 128.638 92.7497 129.295 92.6456C129.86 92.5555 130.43 92.4951 131.001 92.4648C131.278 92.4188 131.561 92.4257 131.835 92.4853C131.865 92.4977 131.892 92.5163 131.914 92.5399C131.826 92.629 131.733 92.7128 131.636 92.7907C130.899 93.4542 130.072 94.0107 129.181 94.4439C127.475 95.2694 125.582 95.6313 123.692 95.4931C123.6 95.4931 123.508 95.4931 123.417 95.4761C123.339 95.4681 123.26 95.4757 123.185 95.4983C122.619 95.6689 122.699 96.6738 123.417 96.7403C123.622 96.7591 123.827 96.7625 124.032 96.771C126.522 96.8672 128.98 96.1856 131.066 94.8209C131.919 94.2596 133.755 93.1592 133.036 91.9205C132.905 91.7132 132.726 91.5404 132.514 91.4166C132.302 91.2929 132.063 91.2217 131.818 91.2091C132.31 90.9264 132.708 90.5043 132.96 89.996C133.212 89.4876 133.308 88.9159 133.236 88.353V88.353ZM158.469 39.0122C158.32 38.1971 158.097 37.3975 157.801 36.6236C157.333 35.327 156.377 34.2643 155.137 33.6618C155.275 32.1677 155.256 30.6633 155.083 29.173C155.071 28.6165 154.838 28.0876 154.436 27.7023C154.164 27.5154 153.846 27.4071 153.516 27.3893C153.187 27.3716 152.859 27.445 152.568 27.6017C151.413 28.1844 150.424 29.0494 149.693 30.1165C148.873 31.1833 148.093 32.28 147.354 33.4042C147.179 33.1914 146.945 33.0353 146.682 32.9555C146.407 32.901 146.124 32.9196 145.859 33.0095C145.594 33.0993 145.357 33.2572 145.172 33.4673C144.441 34.1906 143.852 35.0441 143.435 35.9838C143.197 36.4974 143.006 37.0312 142.864 37.579C142.8 38.0728 142.631 38.5471 142.367 38.9695C142.254 39.1051 142.193 39.2772 142.197 39.4541L143.009 40.0222C143.109 39.9972 143.199 39.9417 143.266 39.8635C143.818 38.8947 144.224 37.8494 144.469 36.7618C144.869 35.7831 145.487 34.9081 146.274 34.2026C146.294 34.1868 146.317 34.1767 146.342 34.1736C146.398 34.2129 146.445 34.2628 146.481 34.3203C146.64 34.545 146.774 34.7864 146.88 35.0403C147.093 35.5314 147.245 36.0472 147.33 36.5758C147.49 37.6794 147.541 38.796 147.484 39.9096C147.492 40.0716 147.562 40.2241 147.68 40.3358C147.798 40.4474 147.954 40.5097 148.116 40.5097C148.278 40.5097 148.434 40.4474 148.552 40.3358C148.669 40.2241 148.74 40.0716 148.748 39.9096C148.894 38.1149 148.662 36.3095 148.066 34.6104C148.087 34.5865 148.108 34.5614 148.127 34.5353C148.795 33.5117 149.489 32.5085 150.21 31.5257C150.795 30.6402 151.515 29.851 152.343 29.1866C152.604 28.999 153.312 28.4598 153.653 28.6748C153.94 28.8608 153.89 29.7735 153.911 30.0397C153.991 31.1754 153.985 32.3155 153.892 33.4502C152.878 33.834 151.98 34.472 151.283 35.3031C150.446 36.2453 149.938 37.4337 149.835 38.6897C149.845 39.0014 149.934 39.3054 150.095 39.5724C150.257 39.8395 150.483 40.0607 150.755 40.2149C151.026 40.369 151.332 40.4509 151.644 40.4527C151.956 40.4545 152.263 40.3762 152.536 40.2252C152.582 40.2064 152.626 40.1826 152.672 40.1621C152.543 40.4266 152.457 40.71 152.418 41.0015C152.399 41.3251 152.445 41.6493 152.553 41.955C152.661 42.2607 152.829 42.5416 153.047 42.7814C153.265 43.0211 153.529 43.2147 153.824 43.3509C154.118 43.4871 154.436 43.563 154.76 43.5743C155.166 43.5977 155.572 43.5397 155.955 43.4037C155.452 44.7738 154.85 46.1052 154.153 47.3875C154.095 47.4915 154.068 47.6098 154.075 47.7287L154.905 48.3088C154.979 48.2867 155.047 48.2498 155.105 48.2006C155.164 48.1513 155.212 48.0906 155.247 48.0222C156.14 46.3783 156.888 44.6594 157.482 42.885C157.521 42.7603 157.516 42.6257 157.466 42.5046C157.815 42.1929 158.11 41.8257 158.34 41.4178C158.681 40.66 158.727 39.8022 158.469 39.0122V39.0122ZM146.319 34.1634C146.303 34.16 146.295 34.1583 146.319 34.1583V34.1634ZM157.238 40.7951C157.065 41.0953 156.841 41.3627 156.576 41.585C156.34 41.8268 156.056 42.0167 155.743 42.1424C155.429 42.2682 155.093 42.327 154.755 42.3152C154.494 42.2921 154.247 42.1869 154.05 42.0146C153.852 41.8423 153.715 41.6119 153.657 41.3564C153.587 40.6842 154.25 39.9915 154.61 39.4796L156.11 37.3675C156.524 36.784 155.598 36.064 155.119 36.6014C154.421 37.4013 153.617 38.1021 152.73 38.6846C152.368 38.92 151.887 39.2647 151.43 39.1555C150.918 39.0326 151.102 38.473 151.201 38.096C151.409 37.333 151.79 36.6282 152.314 36.0364C152.838 35.4446 153.492 34.9817 154.225 34.6837C154.834 34.897 155.382 35.2561 155.821 35.7298C156.26 36.2036 156.577 36.7775 156.743 37.4016C156.981 38.1268 157.167 38.868 157.299 39.6195C157.419 40.0043 157.398 40.4189 157.241 40.7899L157.238 40.7951Z" fill="#FFE497"/>
<path d="M280.859 196.828C278.109 196.657 275.324 196.741 272.571 196.726C266.245 196.689 259.917 196.669 253.589 196.666C244.501 196.649 235.412 196.64 226.323 196.639H193.803C181.952 196.639 170.102 196.646 158.253 196.661C146.439 196.669 134.627 196.68 122.815 196.695L89.6718 196.736L61.9372 196.777L41.8971 196.809C38.7613 196.809 35.6203 196.767 32.4845 196.825H32.0733C31.9114 196.833 31.7588 196.903 31.6471 197.021C31.5355 197.138 31.4732 197.294 31.4732 197.457C31.4732 197.619 31.5355 197.775 31.6471 197.892C31.7588 198.01 31.9114 198.08 32.0733 198.089L38.5924 198.079L56.1978 198.05L82.4618 198.01L114.366 197.969L149.683 197.932C161.544 197.922 173.404 197.913 185.264 197.906C196.487 197.899 207.71 197.899 218.934 197.906C228.48 197.906 238.027 197.912 247.573 197.925C254.684 197.935 261.793 197.953 268.899 197.978C272.59 197.993 276.285 197.978 279.975 198.068C280.269 198.068 280.562 198.08 280.856 198.097C281.68 198.148 281.668 196.884 280.859 196.828V196.828ZM39.3141 225.491L33.4792 229.019L32.6415 229.531C32.5011 229.618 32.4003 229.756 32.3605 229.916C32.3208 230.077 32.3453 230.246 32.4288 230.389C32.5123 230.531 32.6482 230.635 32.8074 230.679C32.9667 230.723 33.1367 230.703 33.2813 230.623C35.224 229.445 37.1684 228.269 39.1145 227.094L39.9522 226.583C40.0891 226.494 40.1867 226.356 40.2245 226.198C40.2624 226.039 40.2376 225.872 40.1553 225.731C40.0731 225.591 39.9397 225.487 39.783 225.442C39.6263 225.397 39.4583 225.415 39.3141 225.491ZM10.0661 191.539C9.887 190.744 8.66883 191.08 8.84627 191.88L9.31204 193.948H6.36558C6.19812 193.949 6.03789 194.016 5.91948 194.135C5.80106 194.253 5.73395 194.414 5.73261 194.581L5.9544 197.246L3.01818 196.657C2.22313 196.504 1.8819 197.722 2.67695 197.877L6.47818 198.619C6.57205 198.644 6.67021 198.646 6.76525 198.627C6.8603 198.608 6.94974 198.567 7.02681 198.509C7.10389 198.45 7.16658 198.374 7.21016 198.288C7.25373 198.201 7.27705 198.106 7.27835 198.009L7.04461 195.197H10.09C10.1868 195.195 10.282 195.172 10.3684 195.128C10.4548 195.084 10.5302 195.022 10.5889 194.945C10.6475 194.868 10.6879 194.778 10.707 194.683C10.7261 194.588 10.7234 194.49 10.6991 194.397L10.0661 191.539ZM220.812 64.3463C221.917 63.9838 222.955 63.4414 223.883 62.7409C224.395 62.3843 224.907 62.0158 225.434 61.6848C225.835 61.3722 226.317 61.1825 226.823 61.1388C227.294 61.1576 227.323 61.5841 227.41 61.9612C227.484 62.4478 227.72 62.8951 228.08 63.2305C228.5 63.5024 228.993 63.6397 229.493 63.6242C229.993 63.6086 230.476 63.4409 230.878 63.1435C231.277 62.8596 231.695 62.6053 232.131 62.3826C232.626 62.2053 233.166 62.1981 233.666 62.3621C234.637 62.7333 235.627 63.0528 236.631 63.3193C237.983 63.3046 239.333 63.2043 240.672 63.019C242.17 63.065 243.662 63.2561 245.16 63.3261C248.191 63.464 251.228 63.4133 254.252 63.1742C255.058 63.1111 255.064 61.8469 254.252 61.91C251.881 62.0954 249.505 62.1676 247.124 62.1267C245.953 62.1028 244.782 62.0516 243.611 61.9731C242.47 61.8964 241.32 61.7309 240.173 61.7513C239.109 61.9396 238.034 62.0536 236.954 62.0926C236.069 61.8954 235.206 61.6131 234.376 61.2497C233.55 60.9272 232.638 60.8953 231.791 61.1593C230.988 61.4545 230.31 62.2632 229.445 62.3536C228.476 62.4611 228.669 61.2395 228.294 60.6475C228.049 60.3096 227.701 60.061 227.302 59.9393C226.903 59.8176 226.476 59.8297 226.084 59.9736C225.136 60.3265 224.254 60.8363 223.476 61.4818C222.645 62.1284 221.725 62.653 220.746 63.0394C220.299 63.2208 219.819 63.3063 219.337 63.2905C218.855 63.2746 218.382 63.1577 217.948 62.9473C217.541 62.7134 217.195 62.3873 216.938 61.9953C217.862 61.3635 218.676 60.5849 219.349 59.6903C219.871 58.9908 220.444 57.9399 219.898 57.0885C219.284 56.1297 217.982 56.4982 217.189 56.9913C216.443 57.4513 215.864 58.1365 215.533 58.9477C215.203 59.7589 215.139 60.6541 215.351 61.5039C215.169 61.6023 214.985 61.6956 214.798 61.7837C213.341 62.4609 211.732 62.7449 210.13 62.6078C210.139 62.5681 210.144 62.5274 210.144 62.4867C210.144 62.3194 210.077 62.1591 209.959 62.0408C209.84 61.9225 209.68 61.8559 209.513 61.8554C209.222 61.8679 208.944 61.9776 208.724 62.167C208.503 62.3563 208.353 62.6143 208.296 62.8996C208.255 63.0612 208.277 63.2328 208.36 63.378C208.442 63.5231 208.578 63.6306 208.738 63.6775C211.159 64.1772 213.678 63.8151 215.86 62.6539C216.39 63.4346 217.16 64.0218 218.053 64.327C218.947 64.6322 219.915 64.639 220.812 64.3463V64.3463ZM217.114 58.7161C217.36 58.416 217.663 58.1678 218.006 57.9859C218.246 57.858 218.873 57.5304 218.826 57.9979C218.712 58.4429 218.482 58.8496 218.159 59.1768C217.86 59.5518 217.532 59.9022 217.177 60.2244C216.952 60.4265 216.718 60.6167 216.474 60.7942C216.436 60.4216 216.474 60.0453 216.584 59.6873C216.693 59.3293 216.874 58.9968 217.114 58.7093V58.7161ZM257.146 69.9526L248.834 70.2546C247.482 70.3041 246.128 70.3246 244.778 70.415C243.509 70.5251 242.252 70.7535 241.025 71.0974C239.74 71.4116 238.423 71.5765 237.101 71.5888C235.776 71.5845 234.454 71.6987 233.149 71.93C231.941 72.2829 230.665 72.3374 229.432 72.0887C228.319 71.7969 227.265 71.3124 226.146 71.0428C224.901 70.7636 223.605 70.8053 222.38 71.164C221.145 71.677 219.789 71.8319 218.47 71.611C217.69 71.3704 217.357 72.5903 218.129 72.8291C220.517 73.5662 222.684 71.8618 225.054 72.1228C226.21 72.3409 227.341 72.6729 228.432 73.1141C229.545 73.5043 230.735 73.6259 231.904 73.4689C232.533 73.3734 233.151 73.2079 233.781 73.0919C234.481 72.9741 235.188 72.9074 235.898 72.8923C237.221 72.8906 238.544 72.8103 239.858 72.6517C241.122 72.4538 242.332 72.0034 243.598 71.7987C244.921 71.6396 246.253 71.5599 247.586 71.5598L257.141 71.2186C257.965 71.1879 257.965 69.9236 257.146 69.9526V69.9526ZM163.668 62.8074C164.239 63.1161 164.879 63.2761 165.528 63.2728C166.177 63.2695 166.816 63.103 167.384 62.7886C167.974 62.4882 168.524 62.1151 169.022 61.678C169.519 61.163 170.062 60.6937 170.644 60.2755C171.173 59.9821 171.642 60.3847 172.069 60.6901C172.559 61.0868 173.122 61.3836 173.727 61.5637C174.956 61.7444 176.209 61.6476 177.395 61.2804C178.615 60.9338 179.918 61.0175 181.084 61.5176C182.195 62.191 183.439 62.617 184.73 62.7665C186.039 62.6823 187.297 62.2266 188.357 61.4528C188.983 61.0604 189.589 60.6151 190.251 60.2858C191.059 59.8831 191.634 60.1851 192.402 60.5212C193.841 61.1512 195.445 61.2956 196.973 60.9324C197.764 60.7498 197.43 59.53 196.632 59.7125C195.312 60.0123 193.93 59.8603 192.708 59.2809C192.195 58.9982 191.628 58.8295 191.044 58.7861C190.398 58.8261 189.774 59.0381 189.237 59.4003C188.235 60.1011 187.175 60.7158 186.069 61.2378C185.501 61.4315 184.898 61.4984 184.301 61.4338C183.704 61.3693 183.129 61.1748 182.616 60.8642C181.616 60.2753 180.502 59.9055 179.349 59.7791C178.132 59.8385 176.926 60.0226 175.747 60.3284C175.242 60.4315 174.722 60.4477 174.212 60.3762C173.631 60.2261 173.094 59.9441 172.64 59.5521C172.233 59.1718 171.7 58.9535 171.143 58.9381C170.585 58.9227 170.042 59.1113 169.614 59.4685C168.63 60.5437 167.418 61.3844 166.067 61.9288C165.754 62.0248 165.424 62.0489 165.101 61.9993C164.778 61.9496 164.471 61.8275 164.202 61.6421C163.966 61.472 163.79 61.2323 163.699 60.9568C163.607 60.6813 163.604 60.3839 163.69 60.1066C163.949 59.3338 162.729 59.0028 162.472 59.7654C162.309 60.3334 162.338 60.9392 162.554 61.489C162.771 62.0389 163.162 62.5022 163.668 62.8074V62.8074ZM200.368 68.9529C198.162 68.3745 196.065 69.2582 193.885 69.5278C192.705 69.6295 191.516 69.5554 190.358 69.3077C189.162 69.097 187.956 68.9484 186.745 68.8624C184.307 68.7038 181.853 68.7379 179.408 68.7566C176.931 68.7748 174.453 68.8124 171.975 68.8692C170.61 68.8982 169.245 68.9443 167.889 69.0859C166.532 69.2275 165.227 69.5534 163.883 69.6148C163.072 69.6524 163.069 70.9183 163.883 70.8791C165.062 70.8245 166.212 70.5515 167.38 70.4065C168.549 70.2614 169.759 70.1966 170.951 70.1608C173.389 70.084 175.832 70.0584 178.272 70.0311C180.712 70.0038 183.167 69.9748 185.608 70.0704C186.822 70.1058 188.032 70.2141 189.232 70.3945C190.393 70.6316 191.57 70.7849 192.754 70.8535C195.183 70.8927 197.609 69.5397 200.023 70.171C200.185 70.2167 200.358 70.1964 200.505 70.1145C200.651 70.0326 200.759 69.8958 200.805 69.7343C200.85 69.5727 200.83 69.3996 200.748 69.2531C200.666 69.1066 200.53 68.9986 200.368 68.9529V68.9529ZM91.5502 41.3905L91.5605 41.3615L91.5502 41.3905ZM91.3728 42.0611C91.3728 42.0611 91.383 42.0372 91.3728 42.003C91.3746 42.0223 91.3746 42.0418 91.3728 42.0611V42.0611ZM91.8505 40.8599C91.8795 40.8412 91.8949 40.8139 91.8829 40.8224L91.8607 40.848L91.8505 40.8599ZM83.1954 50.1105C82.9315 50.1182 82.6675 50.1062 82.4054 50.0747C82.2223 50.0488 82.0407 50.0135 81.8612 49.9689C81.6962 49.9275 81.5217 49.9507 81.3732 50.0337C81.2323 50.1181 81.1286 50.2529 81.0832 50.4108C81.0392 50.5725 81.061 50.7451 81.1437 50.8909C81.2265 51.0366 81.3636 51.1437 81.5251 51.1888C82.0705 51.3281 82.6327 51.3907 83.1954 51.3747C83.3627 51.3723 83.5227 51.3057 83.6424 51.1888C83.7014 51.1302 83.7482 51.0606 83.7802 50.9839C83.8122 50.9072 83.8286 50.8249 83.8286 50.7418C83.8286 50.6587 83.8122 50.5764 83.7802 50.4996C83.7482 50.4229 83.7014 50.3533 83.6424 50.2948C83.5234 50.1769 83.3628 50.1107 83.1954 50.1105V50.1105Z" fill="#1D1D1B"/>
<path d="M91.6183 39.3536C91.0463 39.7745 90.6067 40.3503 90.3512 41.0129C90.0958 41.6756 90.0352 42.3974 90.1766 43.0934C90.2221 43.2546 90.3292 43.3914 90.4749 43.4741C90.6205 43.5569 90.7929 43.5788 90.9546 43.5353C91.1141 43.4872 91.249 43.3796 91.3313 43.2347C91.4136 43.0899 91.4369 42.9189 91.3965 42.7573C91.3965 42.7215 91.3811 42.6856 91.376 42.6481V42.4877C91.3666 42.3554 91.3666 42.2225 91.376 42.0902V42.0663C91.373 42.0494 91.373 42.0321 91.376 42.0151C91.3863 41.952 91.3999 41.8889 91.4136 41.8275C91.4439 41.6971 91.4827 41.5689 91.5296 41.4436L91.5484 41.4026C91.5364 41.4265 91.5262 41.4402 91.5484 41.3907V41.3617V41.3736C91.5739 41.319 91.5995 41.2644 91.6285 41.2116C91.6911 41.0934 91.7612 40.9795 91.8384 40.8703L91.8537 40.855L91.8759 40.8294L91.8947 40.8021C91.982 40.702 92.0749 40.6069 92.1728 40.5172L92.2393 40.4592L92.2564 40.4438C92.3947 40.3563 92.4946 40.2195 92.5358 40.0611C92.5769 39.9027 92.5564 39.7345 92.4782 39.5907C92.3942 39.4467 92.2573 39.3413 92.0966 39.297C91.9359 39.2526 91.7642 39.273 91.6183 39.3536V39.3536ZM102.969 45.5434C102.357 46.2646 101.558 46.804 100.661 47.1028C99.5673 47.4034 98.4264 47.492 97.2997 47.3638C97.0449 47.3141 96.7814 47.3334 96.5366 47.4198C96.2918 47.5062 96.0746 47.6565 95.9075 47.8552C95.636 48.2578 95.4959 48.7346 95.5065 49.2201C95.5142 49.686 95.6237 50.1446 95.8273 50.5637C96.031 50.9828 96.3239 51.3522 96.6855 51.6462C97.1494 52.0009 97.6802 52.2585 98.2459 52.4036C98.8116 52.5487 99.4008 52.5783 99.9783 52.4907C100.144 52.4851 100.302 52.4167 100.42 52.2992C100.537 52.1816 100.606 52.0238 100.611 51.8577C100.61 51.6904 100.543 51.5304 100.424 51.4122C100.306 51.2941 100.146 51.2273 99.9783 51.2264C99.4784 51.3366 98.9586 51.316 98.469 51.1666C97.9795 51.0171 97.5368 50.7439 97.1837 50.3734C96.9292 50.0479 96.7873 49.6485 96.7793 49.2354C96.7853 49.0446 96.8228 48.8561 96.8902 48.6775L96.9107 48.6093C96.9103 48.6113 96.9104 48.6134 96.9111 48.6154C96.9118 48.6173 96.9129 48.6191 96.9145 48.6205C96.916 48.6218 96.9179 48.6228 96.9199 48.6232C96.9219 48.6236 96.9241 48.6235 96.926 48.6229C97.0758 48.6096 97.2266 48.6159 97.3747 48.6417C98.6165 48.7682 99.8709 48.6523 101.068 48.3005C102.15 47.9394 103.115 47.2962 103.865 46.4374C104.395 45.8266 103.505 44.9292 102.969 45.5434V45.5434ZM100.164 36.1495L100.316 36.2126C100.378 36.2287 100.442 36.2356 100.505 36.2331C100.605 36.2237 100.706 36.2237 100.806 36.2331C100.872 36.2457 100.938 36.2622 101.002 36.2826C101.089 36.3232 101.173 36.3718 101.251 36.4276C101.371 36.5361 101.526 36.5969 101.688 36.5982C101.855 36.5965 102.016 36.5298 102.135 36.4123C102.253 36.2936 102.32 36.1329 102.321 35.9652C102.319 35.7977 102.253 35.6373 102.135 35.5182C101.773 35.1819 101.305 34.9832 100.813 34.9569C100.641 34.9474 100.469 34.9583 100.301 34.9894C100.142 35.0332 100.007 35.1372 99.9237 35.2794C99.8816 35.3509 99.854 35.4301 99.8425 35.5123C99.831 35.5946 99.8359 35.6783 99.8568 35.7586C99.8777 35.839 99.9143 35.9144 99.9644 35.9806C100.015 36.0468 100.077 36.1025 100.149 36.1444L100.164 36.1495Z" fill="#1D1D1B"/>
<path d="M95.2392 44.0673C95.7292 44.0673 96.1264 43.6701 96.1264 43.1802C96.1264 42.6902 95.7292 42.293 95.2392 42.293C94.7493 42.293 94.3521 42.6902 94.3521 43.1802C94.3521 43.6701 94.7493 44.0673 95.2392 44.0673Z" fill="#1D1D1B"/>
<path d="M102.582 40.0307C103.072 40.0307 103.47 39.6335 103.47 39.1435C103.47 38.6535 103.072 38.2563 102.582 38.2563C102.093 38.2563 101.695 38.6535 101.695 39.1435C101.695 39.6335 102.093 40.0307 102.582 40.0307Z" fill="#1D1D1B"/>
<path d="M101.376 55.8396C99.8422 56.5274 98.2161 56.9872 96.5493 57.2045C96.3885 57.2499 96.2522 57.3569 96.1697 57.5022C96.0873 57.6475 96.0656 57.8195 96.1091 57.9808C96.1568 58.1401 96.2641 58.275 96.4087 58.3573C96.5533 58.4396 96.724 58.463 96.8854 58.4227C98.6592 58.1866 100.388 57.6869 102.014 56.94C102.158 56.8544 102.262 56.7157 102.304 56.5539C102.347 56.3922 102.324 56.2202 102.241 56.075C102.155 55.9316 102.017 55.827 101.856 55.7831C101.695 55.7392 101.523 55.7594 101.376 55.8396V55.8396ZM88.2849 24.2662C84.8061 22.932 79.4899 22.6215 77.0245 26.0116C76.4701 26.7502 76.1417 27.6337 76.079 28.5551C76.0163 29.4765 76.2221 30.3964 76.6714 31.2033C74.4159 32.6347 71.8942 34.4995 71.2408 37.1662C71.0486 37.8377 71.0184 38.5452 71.1528 39.2306C71.2871 39.916 71.5822 40.5598 72.0137 41.109C72.4624 41.6394 73.0549 42.0286 73.7198 42.2299C72.8206 43.4678 72.19 44.8798 71.8683 46.3755C71.5466 47.8712 71.5409 49.4177 71.8516 50.9157C72.1169 52.787 72.918 54.5415 74.1582 55.9676C75.5493 57.3978 77.2322 58.5115 79.0923 59.2331C80.9543 60.0941 83.0164 60.4292 85.0552 60.2021C87.0859 59.8997 89.0198 59.1344 90.7076 57.9654C90.9447 57.805 91.1733 57.6242 91.3985 57.4536C90.9619 57.2822 90.5357 57.085 90.1224 56.8633C88.6721 56.0719 87.3297 55.0971 86.1284 53.9629C80.4606 55.8294 78.8108 52.3847 79.2408 49.9467C79.6707 47.5086 83.5453 48.5818 83.5453 48.5818C79.9624 35.0693 89.6685 31.8926 94.5822 30.9985C94.8193 30.9542 95.0428 30.9184 95.2646 30.8842L95.8925 30.7904H95.9402C94.2203 27.7953 91.5147 25.4896 88.2849 24.2662V24.2662Z" fill="#1D1D1B"/>
<path d="M267.731 30.9796C267.658 22.0651 267.56 13.1438 267.183 4.23619C267.149 3.41726 267.112 2.59775 267.072 1.77768C267.069 1.61106 267.001 1.45227 266.883 1.33459C266.765 1.2169 266.606 1.14947 266.44 1.14642C264.993 1.12253 263.545 1.10035 262.097 1.07988C258.061 1.01846 254.023 0.96159 249.984 0.909269C243.893 0.827376 237.801 0.750032 231.708 0.677238C224.042 0.587383 216.376 0.504352 208.71 0.428145C199.964 0.340565 191.219 0.265496 182.473 0.202938C173.098 0.134694 163.724 0.082371 154.349 0.0459739C144.928 0.00957671 135.507 -0.00520804 126.086 0.00161643C117.071 0.0107157 108.056 0.0476792 99.0405 0.112512C90.9263 0.175069 82.812 0.277437 74.6977 0.419613C67.95 0.547572 61.2023 0.709655 54.458 0.972397C53.0931 1.02472 51.7282 1.08159 50.3634 1.14301C50.1968 1.14564 50.0377 1.213 49.9199 1.33082C49.8021 1.44863 49.7347 1.60767 49.7321 1.77427V126.15C49.7321 127.814 49.6417 129.504 49.7321 131.164V131.393C49.7298 131.47 49.7427 131.547 49.7703 131.619C49.7978 131.691 49.8393 131.757 49.8925 131.813C49.9624 131.904 50.061 131.969 50.1723 131.997C50.2342 132.016 50.2986 132.026 50.3634 132.026H50.3855L54.9409 131.997L67.5815 131.922C73.9385 131.886 80.296 131.852 86.6541 131.821C94.6092 131.783 102.565 131.746 110.521 131.712C119.53 131.675 128.54 131.642 137.551 131.615C147.07 131.586 156.588 131.564 166.106 131.547C175.59 131.532 185.073 131.526 194.556 131.528C203.458 131.528 212.361 131.544 221.263 131.576C229.042 131.603 236.82 131.648 244.596 131.71C250.704 131.763 256.812 131.83 262.918 131.949C264.07 131.972 265.221 131.997 266.371 132.024H266.436C266.486 132.025 266.536 132.019 266.585 132.006C266.654 131.989 266.721 131.96 266.781 131.92C266.867 131.861 266.938 131.782 266.989 131.69C267.039 131.598 267.066 131.496 267.069 131.391C267.124 128.113 267.174 124.835 267.219 121.557C267.333 113.271 267.435 104.983 267.526 96.694C267.64 85.8454 267.721 74.9962 267.769 64.1465C267.816 53.0925 267.821 42.0352 267.731 30.9796V30.9796ZM265.993 119.118C265.955 121.868 265.915 124.618 265.871 127.368L265.832 129.916C265.832 130.161 265.788 130.463 265.779 130.75C260.382 130.631 254.983 130.546 249.585 130.496C242.163 130.417 234.742 130.364 227.322 130.337C218.642 130.298 209.963 130.275 201.285 130.269C191.893 130.261 182.501 130.261 173.11 130.269C163.549 130.281 153.988 130.301 144.428 130.327C135.244 130.353 126.06 130.384 116.876 130.419C108.613 130.451 100.351 130.486 92.0898 130.526L71.6983 130.632L57.3414 130.714C55.2292 130.728 53.1119 130.697 50.9997 130.75V116.691L55.1336 116.712C59.5332 116.736 63.9332 116.757 68.3339 116.777C74.9195 116.807 81.5056 116.836 88.0924 116.864C96.3295 116.898 104.566 116.929 112.802 116.958C122.032 116.991 131.263 117.019 140.494 117.043C150.162 117.067 159.83 117.086 169.498 117.101C179.022 117.115 188.546 117.12 198.07 117.118C206.897 117.118 215.722 117.104 224.548 117.075C232.016 117.053 239.483 117.014 246.951 116.959C252.512 116.915 258.074 116.862 263.635 116.755C264.431 116.74 265.227 116.722 266.023 116.702L265.993 119.118V119.118ZM266.521 59.9886C266.488 70.9908 266.416 81.993 266.303 92.9952C266.23 100.477 266.143 107.958 266.04 115.437C261.246 115.55 256.452 115.608 251.658 115.654C244.571 115.723 237.484 115.769 230.398 115.791C221.875 115.825 213.353 115.844 204.832 115.849C195.391 115.858 185.951 115.858 176.51 115.849C166.821 115.838 157.132 115.822 147.443 115.799C138.053 115.776 128.662 115.75 119.272 115.719C110.765 115.692 102.258 115.661 93.7516 115.627L72.5633 115.536L57.6468 115.465C55.4288 115.453 53.2109 115.393 50.9929 115.425V3.73801C50.9929 3.3183 51.0509 2.82865 51.0304 2.37312C57.1025 2.09673 63.178 1.9227 69.2535 1.78621C77.1016 1.60878 84.9549 1.48707 92.8132 1.4211C101.655 1.33466 110.497 1.28348 119.338 1.26755C128.707 1.24594 138.075 1.24935 147.441 1.27779C156.842 1.30395 166.242 1.34831 175.642 1.41087C184.617 1.46888 193.593 1.53939 202.569 1.62242C210.544 1.69749 218.518 1.78052 226.491 1.87152C233.012 1.94545 239.532 2.02507 246.053 2.11038C250.623 2.1718 255.195 2.23549 259.769 2.30146L264 2.36459C264.582 2.36459 265.23 2.4516 265.83 2.42089C266.223 10.6427 266.342 18.8781 266.422 27.1067C266.545 38.0719 266.554 49.032 266.521 59.9972V59.9886Z" fill="#1D1D1B"/>
<path d="M161.872 120.812C161.325 120.499 160.696 120.361 160.069 120.415C159.442 120.47 158.846 120.715 158.362 121.117C157.878 121.519 157.528 122.059 157.359 122.666C157.19 123.272 157.21 123.916 157.417 124.51C157.595 125.176 157.983 125.766 158.524 126.193C159.064 126.62 159.728 126.861 160.416 126.88C161.274 126.868 162.092 126.521 162.698 125.914C163.303 125.307 163.648 124.487 163.658 123.63C163.649 123.041 163.477 122.467 163.162 121.969C162.847 121.472 162.4 121.071 161.872 120.812V120.812ZM162.252 124.394C162.233 124.451 162.242 124.42 162.252 124.394V124.394ZM162.392 123.831V123.891L162.38 123.958C162.352 124.095 162.315 124.23 162.269 124.362L162.259 124.391C162.218 124.477 162.175 124.562 162.129 124.645C162.097 124.703 162.051 124.768 162.008 124.83L161.981 124.865L161.931 124.923C161.843 125.02 161.749 125.11 161.65 125.195L161.564 125.258C161.503 125.299 161.44 125.338 161.377 125.374C161.314 125.41 161.259 125.435 161.198 125.464L161.092 125.503C160.956 125.55 160.816 125.585 160.674 125.606L160.554 125.614H160.165L160.051 125.59C159.994 125.578 159.937 125.563 159.881 125.546L159.771 125.509L159.746 125.498L159.638 125.445C159.539 125.391 159.442 125.331 159.35 125.265L159.263 125.189C159.169 125.102 159.081 125.009 159 124.91L158.959 124.852C158.923 124.797 158.888 124.742 158.853 124.681L158.773 124.533L158.736 124.456L158.712 124.4L158.664 124.263C158.647 124.21 158.63 124.156 158.616 124.092C158.603 124.029 158.589 123.982 158.579 123.922L158.56 123.823V123.806C158.55 123.692 158.546 123.578 158.548 123.465C158.548 123.398 158.548 123.332 158.56 123.263L158.575 123.175C158.602 123.051 158.636 122.929 158.678 122.809L158.702 122.746C158.759 122.627 158.824 122.511 158.896 122.4C158.896 122.386 158.942 122.337 158.957 122.313L159.039 122.221C159.08 122.178 159.121 122.137 159.166 122.098L159.234 122.038L159.328 121.973C159.413 121.919 159.498 121.875 159.594 121.828L159.645 121.81C159.689 121.794 159.734 121.779 159.78 121.767C159.826 121.755 159.87 121.741 159.916 121.731L160.026 121.712C160.196 121.7 160.367 121.712 160.549 121.712L160.638 121.723C160.684 121.731 160.732 121.741 160.778 121.753C160.887 121.779 160.994 121.811 161.099 121.849C161.152 121.868 161.269 121.922 161.148 121.868C161.199 121.892 161.251 121.914 161.3 121.941C161.407 121.996 161.51 122.059 161.609 122.127L161.667 122.168L161.793 122.279C161.872 122.355 161.947 122.435 162.017 122.519L162.069 122.591C162.105 122.645 162.139 122.701 162.172 122.762C162.201 122.813 162.225 122.864 162.25 122.914L162.261 122.932L162.272 122.968C162.314 123.087 162.348 123.208 162.375 123.332L162.387 123.407V123.422C162.387 123.494 162.395 123.565 162.397 123.637C162.399 123.709 162.395 123.765 162.392 123.831V123.831ZM0.123226 188.439C-0.311833 188.819 0.512221 190.79 0.935337 191.718C1.07012 192.013 1.16396 192.204 1.16396 192.204L1.63996 191.847L2.17568 191.447L2.91784 190.89L3.49792 190.454L4.03364 190.053L3.76067 189.882C2.95538 189.394 0.597527 188.024 0.123226 188.439V188.439Z" fill="#1D1D1B"/>
</svg>
