<svg width="267" height="229" viewBox="0 0 267 229" fill="none" xmlns="http://www.w3.org/2000/svg">
<path d="M114.701 67.8963H114.711C114.859 67.9103 115.006 67.9047 115.154 67.9117V67.7881C115.005 67.8344 114.854 67.8705 114.701 67.8963V67.8963Z" fill="#D1A9FF"/>
<path d="M150.819 55.8581C150.606 52.7614 150.027 49.7007 149.095 46.7397C148.44 44.3958 147.482 42.1472 146.246 40.0505C146.039 39.7186 145.811 39.4004 145.563 39.0979C145.007 38.3317 144.238 37.7455 143.352 37.4119C142.373 37.1915 141.369 37.1012 140.366 37.1435C138.16 37.0705 135.955 36.9642 133.75 36.8246C129.313 36.5436 124.887 36.1287 120.473 35.5798C117.963 35.2669 115.458 34.9101 112.96 34.5092C112.884 34.4993 112.806 34.5065 112.733 34.5302C113.689 34.5554 114.597 34.9544 115.262 35.6416L115.28 35.6641C116.108 36.8099 116.654 38.1352 116.872 39.532C117.635 42.8461 118.176 46.2073 118.492 49.5932C118.666 51.2792 118.806 52.9765 118.939 54.6709C119.055 56.1672 119.193 57.6664 119.201 59.1669C119.217 61.8252 118.78 64.7869 116.813 66.7539C116.35 67.2264 115.779 67.5806 115.151 67.7866V67.9102C115.381 67.9201 115.61 67.9383 115.839 67.9341C117.074 67.9057 118.296 67.6843 119.463 67.278C122.548 66.1988 125.096 63.9686 126.575 61.0538C127.998 58.0771 128.719 54.8133 128.682 51.5139C128.522 50.1799 128.838 48.8323 129.576 47.7091C129.763 47.4818 130.003 47.3038 130.275 47.1906C130.547 47.0774 130.842 47.0326 131.135 47.06C131.518 47.1294 131.882 47.2803 132.202 47.5026C132.521 47.7249 132.789 48.0134 132.987 48.3484C134.449 50.6254 135.276 53.2514 135.384 55.9551C135.592 54.5378 135.636 53.1013 135.515 51.674C135.381 50.1819 134.566 48.0449 135.773 46.7861C136.98 45.5272 138.742 46.5051 139.716 47.5237C140.305 48.1912 140.798 48.9374 141.181 49.7408C141.628 50.593 142.016 51.4746 142.343 52.3794C142.375 52.4707 142.399 52.5634 142.432 52.6604L142.278 49.8349C142.115 48.9404 142.304 48.0174 142.804 47.2581C143.506 46.4699 144.476 46.9013 145.128 47.5026C145.702 48.0521 146.233 48.6454 146.715 49.2771C148.745 51.9582 149.884 55.2081 149.971 58.5698C149.979 58.959 149.971 59.3482 149.954 59.7373C149.903 60.8304 149.76 61.9249 149.614 63.004C149.51 63.7557 149.392 64.5052 149.257 65.252C149.398 64.9949 149.524 64.7335 149.639 64.4666C150.7 61.7287 151.104 58.7804 150.819 55.8581V55.8581Z" fill="#D1A9FF"/>
<path d="M109.83 51.1345L109.852 51.1837C109.871 51.2216 109.882 51.2629 109.885 51.3052C109.887 51.3474 109.881 51.3897 109.867 51.4297C109.854 51.4696 109.832 51.5065 109.804 51.538C109.776 51.5696 109.742 51.5953 109.703 51.6136C109.686 51.6221 109.668 51.6291 109.65 51.6347C109.593 51.6723 109.527 51.695 109.459 51.7007C108.768 51.7555 108.075 51.7906 107.384 51.8173C107.413 52.5564 107.468 53.2949 107.548 54.033C107.669 55.157 107.839 56.2894 108.055 57.405C108.262 57.0257 108.467 56.6463 108.667 56.2684C109.281 55.0985 109.9 53.93 110.524 52.7629C110.524 52.7545 110.535 52.7517 110.539 52.7446L110.553 52.7278C110.595 52.6619 110.657 52.6116 110.73 52.5849C110.803 52.5582 110.883 52.5565 110.957 52.5802C111.013 52.5889 111.066 52.6098 111.113 52.6413C111.16 52.6729 111.2 52.7144 111.229 52.7629C112.82 55.1907 114.393 57.6298 116.019 60.0338C116.054 60.0961 116.072 60.1664 116.072 60.2379C116.072 60.3093 116.053 60.3795 116.017 60.4415C115.982 60.5035 115.931 60.5553 115.869 60.5917C115.808 60.6281 115.738 60.6479 115.666 60.6492L114.576 60.6969L108.931 60.9498C109.309 62.473 109.977 63.9092 110.898 65.1803C111.628 66.1896 112.713 66.8856 113.935 67.129C114.583 67.1198 115.216 66.9311 115.763 66.5839C116.31 66.2366 116.751 65.7444 117.035 65.162C118.226 62.8468 118.676 60.2209 118.323 57.641C118.183 55.1373 117.966 52.6322 117.708 50.1341C117.669 50.186 117.619 50.2289 117.562 50.2597C117.505 50.2905 117.442 50.3086 117.378 50.3126C115.725 50.3266 114.076 50.5107 112.425 50.3772C112.316 50.3728 112.213 50.3265 112.138 50.2479C112.062 50.1694 112.02 50.0646 112.02 49.9557C112.022 49.8878 112.04 49.8213 112.072 49.7618C113.453 47.3733 114.835 45.0017 116.039 42.5218C116.071 42.4452 116.13 42.383 116.205 42.3473C116.279 42.3115 116.365 42.3046 116.445 42.328C116.51 42.3295 116.573 42.349 116.627 42.3842C116.43 41.3346 116.203 40.2908 115.947 39.2538C115.792 37.9924 115.224 36.8177 114.332 35.9127C113.938 35.6003 113.464 35.4051 112.964 35.3495C112.464 35.2938 111.959 35.3799 111.506 35.598C111.156 35.9011 110.839 36.2418 110.563 36.6138C109.404 38.3897 108.641 40.3948 108.328 42.4923C108.023 44.0055 107.829 45.5342 107.655 47.0656C108.49 48.331 109.206 49.671 109.793 51.0685C109.808 51.0889 109.821 51.1111 109.83 51.1345V51.1345Z" fill="#1D1D1B"/>
<path d="M107.548 54.0257C107.469 53.2886 107.414 52.55 107.384 51.8101C107.111 51.8213 106.837 51.8311 106.565 51.8382C106.589 52.3805 106.626 52.9219 106.674 53.4623C106.829 55.1661 107.09 56.8586 107.454 58.5302C107.651 58.1508 107.851 57.7762 108.055 57.4062C107.839 56.2822 107.669 55.1554 107.548 54.0257V54.0257Z" fill="white"/>
<path d="M109.852 51.1767L109.83 51.1275C109.823 51.1034 109.812 51.0802 109.799 51.0587C109.211 49.6627 108.495 48.3241 107.661 47.06C107.436 46.7172 107.202 46.3791 106.958 46.0456C106.721 45.7197 106.485 45.3909 106.229 45.0748C106.151 44.9976 106.047 44.9543 105.937 44.9543C105.828 44.9543 105.723 44.9976 105.646 45.0748C105.623 45.0972 105.604 45.1228 105.588 45.1506C104.374 47.1211 103.286 49.1667 102.331 51.275C102.305 51.3224 102.288 51.3746 102.282 51.4285C102.275 51.4825 102.28 51.5371 102.294 51.5894C102.309 51.6416 102.334 51.6904 102.368 51.7329C102.402 51.7754 102.444 51.8108 102.492 51.837C102.551 51.8695 102.617 51.8873 102.684 51.889C103.978 51.889 105.272 51.882 106.565 51.8455C106.837 51.837 107.111 51.8286 107.384 51.8174C108.075 51.7907 108.768 51.7556 109.459 51.7008C109.527 51.695 109.593 51.6723 109.65 51.6347C109.732 51.6115 109.802 51.5566 109.844 51.482C109.886 51.4075 109.896 51.3195 109.873 51.2371C109.868 51.2164 109.861 51.1961 109.852 51.1767V51.1767ZM107.392 43.7386C107.37 43.6782 107.339 43.622 107.315 43.5616C106.503 41.7641 105.578 40.0194 104.547 38.3378C104.491 38.2448 104.4 38.1777 104.295 38.1514C104.19 38.1251 104.078 38.1416 103.985 38.1973C103.928 38.2323 103.88 38.2804 103.845 38.3378C103.008 40.2213 102.134 42.0879 101.223 43.9367C101.189 43.9991 101.171 44.0691 101.172 44.1403C101.172 44.2114 101.191 44.2811 101.227 44.3428C101.262 44.4045 101.313 44.456 101.374 44.4924C101.435 44.5288 101.504 44.5489 101.576 44.5507C103.422 44.4102 105.275 44.5184 107.11 44.2416C107.144 44.2345 107.177 44.2222 107.207 44.2051C107.28 44.1775 107.34 44.1227 107.374 44.0519C107.402 44.0051 107.418 43.9521 107.422 43.8975C107.425 43.843 107.415 43.7884 107.392 43.7386V43.7386ZM116.019 60.0282C114.393 57.6242 112.82 55.1852 111.229 52.7573C111.2 52.7088 111.16 52.6673 111.113 52.6357C111.066 52.6042 111.013 52.5833 110.957 52.5747C110.883 52.5509 110.803 52.5526 110.73 52.5793C110.657 52.606 110.595 52.6563 110.553 52.7222L110.539 52.7391C110.539 52.7391 110.528 52.7489 110.524 52.7573C109.9 53.9235 109.281 55.092 108.667 56.2628C108.467 56.6407 108.262 57.0201 108.055 57.3994C107.849 57.7788 107.652 58.1511 107.454 58.5234C107.111 59.1684 106.802 59.8311 106.53 60.5087C106.515 60.5607 106.512 60.6151 106.518 60.6686C106.525 60.7221 106.543 60.7737 106.57 60.8204C106.596 60.8672 106.632 60.9082 106.675 60.941C106.718 60.9738 106.767 60.9978 106.819 61.0117C106.853 61.0213 106.888 61.026 106.923 61.0257L108.082 60.9752L108.925 60.9372L114.57 60.6843L115.661 60.6366C115.715 60.6356 115.769 60.624 115.818 60.6023C115.868 60.5806 115.913 60.5492 115.951 60.51C115.988 60.4709 116.018 60.4246 116.037 60.374C116.057 60.3234 116.067 60.2694 116.065 60.2151C116.065 60.1499 116.049 60.0858 116.019 60.0282V60.0282ZM116.79 42.6104C116.783 42.5628 116.766 42.5172 116.74 42.4766C116.714 42.4359 116.68 42.4011 116.64 42.3744C116.585 42.339 116.521 42.3195 116.456 42.3182C116.376 42.2949 116.291 42.3018 116.216 42.3376C116.142 42.3734 116.083 42.4355 116.051 42.5121C114.847 44.9919 113.466 47.3691 112.085 49.752C112.034 49.8482 112.022 49.9605 112.052 50.0653C112.082 50.1701 112.151 50.2592 112.245 50.314C112.304 50.3465 112.37 50.3643 112.438 50.366C114.088 50.4995 115.738 50.3154 117.39 50.3014C117.455 50.2974 117.518 50.2793 117.575 50.2485C117.632 50.2177 117.682 50.1748 117.72 50.1229C117.748 50.0918 117.769 50.0553 117.783 50.0157C117.796 49.9761 117.801 49.9342 117.798 49.8925C117.483 47.4605 117.275 45.0172 116.79 42.6104V42.6104Z" fill="#AC47F5"/>
<path d="M95.35 16.1162C94.9927 14.9542 94.199 13.9759 93.1355 13.387C92.072 12.798 90.8217 12.6441 89.6471 12.9577C90.4172 10.9447 90.6539 8.76674 90.3342 6.63525C90.129 5.75443 89.7487 4.92388 89.216 4.19301C88.6833 3.46214 88.0091 2.84589 87.2333 2.38091C85.6891 1.45253 83.9181 0.969648 82.1163 0.985741C80.0838 1.04314 78.0948 1.58761 76.3165 2.57339C74.2085 3.75177 72.2306 5.14904 70.4155 6.74203C70.0476 5.98703 69.5294 5.31517 68.8925 4.76769C68.2556 4.22021 67.5136 3.80866 66.7119 3.5583C64.686 2.92177 62.4951 3.06662 60.5706 3.96434C58.4424 4.98393 56.5008 6.35418 54.827 8.01777C53.3143 9.41153 51.8714 10.8774 50.4982 12.4154C44.5789 19.0344 39.6362 27.1679 38.4236 36.1009C38.04 38.9321 38.0921 41.8054 38.5782 44.6208C38.838 44.5697 39.1008 44.5354 39.365 44.5183C39.7273 44.4896 40.0914 44.4962 40.4525 44.5379C41.5357 44.7218 42.5733 45.113 43.5083 45.69C43.5322 45.2151 43.5659 44.7431 43.6207 44.271C44.3675 38.6499 46.8142 33.3913 50.6331 29.1995C54.2886 24.9359 58.8658 21.5593 64.0185 19.3252C66.1192 18.4777 68.3083 17.8683 70.5448 17.5085C72.8755 17.0929 75.2423 16.914 77.6091 16.9746C79.7135 16.9456 81.7955 17.4095 83.6885 18.3291C85.9653 19.7437 87.8798 21.6712 89.279 23.9575C89.841 24.7935 90.344 25.6632 90.8245 26.5455C90.9945 26.8546 91.1645 27.1637 91.3261 27.477C91.6549 26.6467 92.0286 25.8346 92.4276 25.0337C93.501 23.1097 94.4046 21.0957 95.128 19.0147C95.4474 18.0832 95.5238 17.0855 95.35 16.1162V16.1162Z" fill="#1D1D1B"/>
<path d="M54.5614 64.6954C50.6839 62.964 47.5414 59.9201 45.6874 56.0996C45.6074 56.271 45.5104 56.434 45.4163 56.5984C44.9965 58.946 44.6684 61.3092 44.4328 63.6824C44.2923 65.079 44.17 66.4769 44.0478 67.8749C43.8357 69.27 43.9438 70.695 44.3639 72.0421C44.9139 73.3433 45.7838 74.4844 46.8929 75.3593C47.9747 76.3379 49.1312 77.2305 50.352 78.0288C52.7997 79.6432 55.5843 80.676 58.4926 81.0482C61.6312 81.4064 64.8063 81.2789 67.9061 80.6702C69.4144 80.3823 70.9101 80.0321 72.3895 79.6207C73.7496 79.3459 75.0587 78.8615 76.2701 78.1848C77.0655 77.6527 77.7465 76.967 78.273 76.1678C78.7995 75.3687 79.1609 74.4723 79.3358 73.5315L80.0383 70.1243L81.2887 64.0941C77.2038 65.8162 72.8394 66.7798 68.4091 66.9378C63.6845 67.2173 58.9564 66.4517 54.5614 64.6954V64.6954Z" fill="#FFE497"/>
<path d="M43.1951 70.6639C43.3635 71.9539 43.8587 73.1794 44.6338 74.2242C45.5824 75.3651 46.6715 76.3815 47.8751 77.2491C50.1566 79.1107 52.788 80.4961 55.6139 81.3236C61.8577 83.0096 68.509 81.6426 74.5575 79.8386C75.8859 79.4409 77.0891 78.7067 78.0503 77.7072C78.8322 76.9005 79.4328 75.9363 79.8122 74.8789C80.1127 73.8776 80.3474 72.8578 80.5147 71.8258L82.2007 63.6768C81.9351 63.7991 81.671 63.9269 81.404 64.0421L81.2818 64.0899C80.8659 66.1009 80.4491 68.111 80.0314 70.1202L79.3289 73.5273C79.1539 74.4682 78.7926 75.3645 78.2661 76.1637C77.7396 76.9628 77.0586 77.6486 76.2631 78.1807C75.0518 78.8574 73.7426 79.3418 72.3825 79.6166C70.9032 80.028 69.4074 80.3781 67.8992 80.6661C64.7994 81.2748 61.6243 81.4023 58.4857 81.0441C55.5777 80.6721 52.7935 79.6392 50.3465 78.0247C49.1247 77.2271 47.9676 76.3345 46.886 75.3552C45.7769 74.4803 44.907 73.3392 44.357 72.038C43.9369 70.6909 43.8288 69.2658 44.0409 67.8708C44.1631 66.4658 44.2853 65.0748 44.4258 63.6782C44.6661 61.3038 44.9878 58.942 45.4093 56.5942C45.1055 57.1248 44.7456 57.6212 44.3359 58.0751C44.1342 59.3047 43.9599 60.5386 43.8133 61.7759C43.6489 63.1809 43.514 64.5859 43.3918 65.9839C43.2205 67.2657 43.1318 68.5572 43.1262 69.8504C43.1347 70.0373 43.1262 70.2256 43.1515 70.4124C43.1585 70.4995 43.1824 70.5824 43.1951 70.6639V70.6639Z" fill="#1D1D1B"/>
<path d="M93.3452 50.5553L93.3087 50.5441C93.2759 50.5363 93.2443 50.5245 93.2145 50.509C93.124 50.4676 93.0534 50.3921 93.0184 50.2988C92.9834 50.2056 92.9867 50.1023 93.0277 50.0116C93.0402 49.9547 93.0662 49.9017 93.1035 49.857C93.7668 48.7455 94.4085 47.6213 95.0284 46.485C95.0902 45.278 95.0677 44.0682 94.961 42.8643H90.2261C90.1716 42.8636 90.1178 42.8521 90.0678 42.8305C90.0178 42.8089 89.9725 42.7776 89.9346 42.7384C89.8968 42.6992 89.867 42.6529 89.8471 42.6022C89.8272 42.5515 89.8175 42.4973 89.8187 42.4428C89.8191 42.4087 89.8238 42.3747 89.8327 42.3417C90.5872 40.3817 91.4962 38.4864 92.2521 36.5278C92.2756 36.4522 92.3203 36.385 92.3808 36.334C92.4414 36.283 92.5152 36.2504 92.5937 36.2401C92.6722 36.2297 92.7519 36.242 92.8236 36.2756C92.8953 36.3092 92.9559 36.3626 92.9982 36.4294C93.4759 37.2907 93.9409 38.159 94.4116 39.0231C94.399 38.957 94.3905 38.8896 94.3765 38.8222C93.8021 35.9106 92.9229 33.0676 91.7533 30.3402C90.683 27.7332 89.2886 25.2715 87.603 23.0131C86.2335 21.0226 84.3256 19.4632 82.1024 18.5171C80.0524 17.8964 77.9074 17.6499 75.7701 17.7893C71.1501 17.868 66.6014 18.9414 62.4338 20.9365C57.5824 23.4105 53.3367 26.9246 49.9995 31.2281C46.5273 35.5376 44.5271 40.8462 44.2924 46.3754C44.2913 46.4297 44.2796 46.4832 44.2578 46.5329C44.236 46.5826 44.2047 46.6275 44.1655 46.6651C44.1264 46.7027 44.0802 46.7322 44.0297 46.7519C43.9791 46.7716 43.9252 46.7812 43.8709 46.7801C43.8026 46.7785 43.7357 46.7606 43.6756 46.7281C42.6007 45.9803 41.3646 45.4966 40.0676 45.3161C38.974 45.2617 37.8888 45.532 36.9485 46.093C32.9948 48.386 32.9878 53.7081 35.3735 57.1546C36.534 58.8308 38.5853 60.3215 40.7125 59.6962C41.7406 59.3312 42.6608 58.7144 43.389 57.9021C44.2482 57.1036 44.887 56.097 45.2436 54.9797C45.3307 54.6663 45.8421 54.5497 45.9911 54.8827C46.9589 57.0924 48.3459 59.0936 50.0754 60.7753C51.9667 62.5435 54.2318 63.8631 56.7028 64.6362C60.9791 65.9588 65.473 66.4313 69.9309 66.0272C74.2245 65.7038 78.4212 64.5887 82.3089 62.7381C84.2707 61.7984 86.1277 60.654 87.8488 59.3239C89.6507 57.9829 91.2317 56.3682 92.5345 54.5385C93.3397 53.3397 93.9522 52.0223 94.3498 50.634C94.0337 50.6143 93.7175 50.6017 93.4028 50.5722C93.3831 50.5684 93.3638 50.5628 93.3452 50.5553V50.5553ZM40.8544 52.8202C40.0224 52.9022 39.2191 53.1681 38.5024 53.5985C38.41 53.6431 38.3042 53.6513 38.206 53.6215C38.1078 53.5916 38.0244 53.526 37.9724 53.4375C37.9204 53.349 37.9036 53.2443 37.9252 53.144C37.9469 53.0436 38.0055 52.9552 38.0894 52.896C38.9334 52.3975 39.878 52.0936 40.8544 52.0067C41.3785 51.9561 41.3728 52.7738 40.8544 52.823V52.8202ZM56.2897 35.4909C54.372 36.1516 52.7867 37.5328 51.8696 39.342C51.6293 39.8113 50.9254 39.3968 51.1671 38.9303C52.1956 36.9364 53.959 35.4204 56.0846 34.7027C56.5721 34.5327 56.7871 35.3223 56.2897 35.4909ZM58.0038 45.2978C58.0038 45.4062 57.9608 45.5102 57.8841 45.5869C57.8074 45.6636 57.7034 45.7067 57.595 45.7067C57.4865 45.7067 57.3825 45.6636 57.3059 45.5869C57.2292 45.5102 57.1861 45.4062 57.1861 45.2978V42.4611C57.1861 42.3527 57.2292 42.2487 57.3059 42.172C57.3825 42.0953 57.4865 42.0523 57.595 42.0523C57.7034 42.0523 57.8074 42.0953 57.8841 42.172C57.9608 42.2487 58.0038 42.3527 58.0038 42.4611V45.2978ZM81.2622 44.2693V44.2792C80.8323 46.2152 80.1343 48.0817 79.1884 49.8247C78.3838 51.3777 77.1589 52.6734 75.6535 53.564C74.1481 54.4546 72.4227 54.9042 70.6741 54.8616C67.0436 54.5919 64.0229 52.0137 61.8451 49.2824C61.789 49.2244 61.7511 49.1513 61.736 49.0721C61.7208 48.9929 61.7291 48.911 61.7598 48.8364C61.7906 48.7618 61.8424 48.6978 61.9089 48.6523C61.9755 48.6067 62.0539 48.5815 62.1345 48.5799C68.6047 48.6014 74.9727 46.9656 80.6314 43.8282C80.6736 43.7995 80.7215 43.7803 80.7719 43.772C80.8427 43.755 80.917 43.7592 80.9855 43.7842C81.054 43.8092 81.1136 43.8538 81.1568 43.9125C81.2326 44.0142 81.2681 44.1403 81.2566 44.2665L81.2622 44.2693ZM79.6352 28.598C79.1716 28.8467 78.7599 28.1414 79.2235 27.8955C79.8801 27.5375 80.6039 27.3196 81.349 27.2558C82.0942 27.192 82.8444 27.2835 83.5523 27.5246C84.0483 27.6946 83.8333 28.4828 83.336 28.3114C82.7329 28.0999 82.0923 28.0164 81.4551 28.0662C80.8179 28.116 80.1981 28.2981 79.6352 28.6008V28.598ZM84.3546 39.2352C84.4558 39.7495 83.6676 39.9686 83.5664 39.453C83.3631 38.4152 83.159 37.3778 82.9538 36.3409C82.8527 35.8253 83.6409 35.6075 83.742 36.1232L84.3546 39.2352ZM83.0999 50.6593C82.7515 51.0555 82.1755 50.4752 82.5225 50.0818C83.2621 49.2188 83.718 48.1491 83.8284 47.0179C83.9387 45.8867 83.6981 44.749 83.1393 43.7593C83.0947 43.6669 83.0865 43.5611 83.1164 43.4629C83.1462 43.3647 83.2119 43.2813 83.3003 43.2293C83.3888 43.1773 83.4936 43.1605 83.5939 43.1821C83.6942 43.2038 83.7827 43.2624 83.8418 43.3463C84.4885 44.493 84.7642 45.8119 84.6309 47.1217C84.4975 48.4315 83.9617 49.6678 83.0971 50.6607L83.0999 50.6593ZM86.4186 52.0783C86.1867 52.5504 85.4814 52.1359 85.7161 51.6667C86.4186 50.2195 86.7725 48.6278 86.7494 47.0192C86.7262 45.4107 86.3266 43.8299 85.5826 42.4035C85.3367 41.9385 86.0434 41.5268 86.2851 41.9918C87.0976 43.5446 87.5331 45.2668 87.5563 47.0192C87.5795 48.7715 87.1897 50.5046 86.4186 52.0783V52.0783Z" fill="#FFE497"/>
<path d="M45.6874 56.0995C47.5421 59.9205 50.6856 62.9644 54.5642 64.6953C58.9582 66.4495 63.6848 67.2137 68.4077 66.9335C72.8379 66.7755 77.2024 65.8119 81.2873 64.0898L81.4095 64.042C81.6765 63.9268 81.9406 63.7989 82.2062 63.6767C86.1134 61.9644 89.5817 59.3887 92.3503 56.1431C93.6555 54.533 94.6209 52.6753 95.1884 50.6818C94.9074 50.6734 94.6264 50.6509 94.3454 50.6341C93.9478 52.0223 93.3352 53.3398 92.5301 54.5386C91.2273 56.3683 89.6463 57.9829 87.8444 59.324C86.1232 60.6541 84.2663 61.7985 82.3045 62.7381C78.4167 64.5888 74.2201 65.7039 69.9265 66.0272C65.4686 66.4314 60.9747 65.9588 56.6984 64.6363C54.2274 63.8632 51.9622 62.5436 50.071 60.7754C48.3415 59.0936 46.9544 57.0925 45.9867 54.8828C45.8377 54.5498 45.3263 54.6664 45.2392 54.9797C44.8825 56.0971 44.2438 57.1036 43.3846 57.9021C42.6564 58.7145 41.7362 59.3313 40.7081 59.6963C38.5795 60.3215 36.5282 58.8308 35.3691 57.1547C32.9806 53.7082 32.9904 48.3861 36.9441 46.0931C37.8844 45.5321 38.9696 45.2618 40.0632 45.3161C41.3621 45.4958 42.6002 45.9796 43.6768 46.7282C43.7727 46.7795 43.8847 46.7918 43.9895 46.7625C44.0942 46.7332 44.1836 46.6645 44.2388 46.5708C44.2725 46.5112 44.2904 46.444 44.2908 46.3755C44.5267 40.8462 46.5273 35.5379 49.9993 31.2282C53.3365 26.9247 57.5822 23.4106 62.4336 20.9366C66.6012 18.9415 71.1499 17.868 75.7698 17.7894C77.9072 17.6499 80.0522 17.8965 82.1022 18.5172C84.3254 19.4632 86.2332 21.0227 87.6028 23.0132C89.2884 25.2716 90.6828 27.7333 91.7531 30.3402C92.9247 33.0715 93.8044 35.9188 94.3777 38.8349C94.3917 38.9023 94.4002 38.9754 94.4128 39.0358C94.7931 39.7374 95.1823 40.4333 95.5804 41.1236L95.5382 40.7991C94.8747 36.1584 93.4536 31.6583 91.3316 27.4783C91.1701 27.1649 91 26.8558 90.83 26.5467C90.3491 25.6641 89.8335 24.8007 89.2845 23.9587C87.8853 21.6724 85.9709 19.745 83.6941 18.3303C81.801 17.4107 79.719 16.9469 77.6146 16.9759C75.2479 16.9152 72.881 17.0941 70.5503 17.5098C68.3138 17.8696 66.1247 18.479 64.024 19.3264C58.8711 21.5602 54.2938 24.9368 50.6386 29.2008C46.8187 33.3922 44.371 38.6508 43.6234 44.2722C43.5687 44.7443 43.5349 45.2164 43.511 45.6913C42.576 45.1143 41.5384 44.7231 40.4552 44.5392C40.0933 44.4968 39.7281 44.4898 39.3649 44.5181C39.1016 44.5354 38.8398 44.5697 38.5809 44.6207C38.1343 44.7075 37.6978 44.8403 37.2785 45.0169C36.2289 45.4749 35.3025 46.1747 34.5751 47.0591C33.8477 47.9436 33.3398 48.9875 33.093 50.1058C32.6099 52.5612 33.0914 55.1083 34.4376 57.2179C35.6234 59.1217 37.7463 60.892 40.1278 60.6377C41.4738 60.4226 42.7121 59.7721 43.653 58.7859C43.8918 58.5611 44.1208 58.3236 44.3428 58.0834C44.7525 57.6295 45.1123 57.1331 45.4162 56.6025C45.5076 56.4339 45.6045 56.2709 45.6874 56.0995V56.0995Z" fill="#1D1D1B"/>
<path d="M95.0284 46.4978C95.3094 45.9948 95.5904 45.4947 95.8714 44.9973C95.8648 44.2892 95.8307 43.5824 95.7688 42.8771H94.961C95.0677 44.081 95.0902 45.2908 95.0284 46.4978V46.4978ZM57.1861 42.4613V45.2979C57.1861 45.4064 57.2292 45.5104 57.3059 45.5871C57.3826 45.6637 57.4865 45.7068 57.595 45.7068C57.7034 45.7068 57.8074 45.6637 57.8841 45.5871C57.9608 45.5104 58.0038 45.4064 58.0038 45.2979V42.4613C58.0038 42.3528 57.9608 42.2488 57.8841 42.1722C57.8074 42.0955 57.7034 42.0524 57.595 42.0524C57.4865 42.0524 57.3826 42.0955 57.3059 42.1722C57.2292 42.2488 57.1861 42.3528 57.1861 42.4613V42.4613ZM82.9538 36.3411L83.5664 39.4531C83.6676 39.9688 84.4558 39.7496 84.3546 39.2354C84.1495 38.1985 83.9453 37.1611 83.742 36.1233C83.6409 35.6077 82.8527 35.8198 82.9538 36.3411V36.3411ZM56.072 34.7028C53.9463 35.4206 52.1829 36.9366 51.1545 38.9305C50.917 39.397 51.6209 39.8114 51.857 39.3422C52.7747 37.5324 54.3611 36.1511 56.2799 35.491C56.7871 35.3224 56.5721 34.5328 56.072 34.7028ZM83.5524 27.5219C82.8444 27.2808 82.0942 27.1893 81.349 27.2531C80.6039 27.317 79.8802 27.5348 79.2236 27.8928C78.7599 28.1415 79.1716 28.8468 79.6352 28.5953C80.1981 28.2926 80.8179 28.1106 81.4551 28.0607C82.0923 28.0109 82.7329 28.0944 83.336 28.3059C83.8334 28.4801 84.0441 27.6919 83.5524 27.5219V27.5219ZM81.1625 43.9154C81.1192 43.8568 81.0596 43.8122 80.9911 43.7872C80.9227 43.7622 80.8484 43.7579 80.7775 43.7749C80.7271 43.7833 80.6792 43.8025 80.637 43.8311C74.9744 46.9718 68.6013 48.6087 62.1261 48.5856C62.0452 48.5867 61.9663 48.6115 61.8994 48.6569C61.8324 48.7024 61.7803 48.7665 61.7494 48.8413C61.7186 48.9162 61.7104 48.9984 61.7259 49.0778C61.7415 49.1573 61.78 49.2304 61.8367 49.2881C64.0215 52.0195 67.0352 54.5976 70.6727 54.8674C72.4213 54.91 74.1467 54.4603 75.6521 53.5698C77.1575 52.6792 78.3824 51.3835 79.187 49.8305C80.1329 48.0874 80.8309 46.2209 81.2608 44.2849V44.2751C81.2723 44.1488 81.2368 44.0227 81.1611 43.921L81.1625 43.9154ZM40.8544 51.997C39.878 52.084 38.9334 52.3878 38.0894 52.8864C38.0055 52.9455 37.9469 53.034 37.9252 53.1343C37.9036 53.2346 37.9204 53.3393 37.9724 53.4278C38.0244 53.5163 38.1078 53.5819 38.206 53.6118C38.3042 53.6416 38.41 53.6334 38.5024 53.5889C39.2199 53.1619 40.0232 52.8994 40.8544 52.8203C41.3729 52.7641 41.3785 51.9464 40.8544 51.997V51.997ZM83.1393 43.7581C83.6981 44.7477 83.9387 45.8855 83.8284 47.0166C83.718 48.1478 83.2621 49.2176 82.5225 50.0806C82.1755 50.474 82.7515 51.0542 83.1 50.658C83.9645 49.6652 84.5003 48.4288 84.6337 47.1191C84.767 45.8093 84.4914 44.4903 83.8446 43.3436C83.7855 43.2597 83.697 43.2011 83.5967 43.1795C83.4964 43.1578 83.3916 43.1746 83.3031 43.2267C83.2147 43.2787 83.149 43.362 83.1192 43.4602C83.0894 43.5584 83.0975 43.6642 83.1421 43.7567L83.1393 43.7581ZM85.5798 42.4037C86.3238 43.83 86.7234 45.4108 86.7465 47.0194C86.7697 48.628 86.4158 50.2196 85.7133 51.6668C85.4814 52.1361 86.1867 52.5506 86.4158 52.0785C87.1869 50.5048 87.5767 48.7716 87.5535 47.0193C87.5303 45.267 87.0948 43.5447 86.2823 41.992C86.0406 41.5269 85.3339 41.9386 85.5798 42.4037Z" fill="#1D1D1B"/>
<path d="M96.2479 42.2549C96.0189 41.8811 95.7983 41.5018 95.5791 41.1224C95.181 40.4312 94.7923 39.7352 94.413 39.0346C93.9423 38.1705 93.4772 37.3023 92.9995 36.441C92.9576 36.3736 92.8971 36.3197 92.8253 36.2857C92.7536 36.2518 92.6735 36.2393 92.5948 36.2496C92.5161 36.26 92.442 36.2929 92.3815 36.3442C92.321 36.3956 92.2765 36.4634 92.2535 36.5393C91.4976 38.4979 90.5886 40.3932 89.8341 42.3518C89.8201 42.4041 89.8165 42.4587 89.8236 42.5124C89.8308 42.566 89.8484 42.6178 89.8755 42.6647C89.9027 42.7115 89.9388 42.7525 89.9818 42.7854C90.0249 42.8183 90.074 42.8423 90.1263 42.8562C90.1594 42.8644 90.1933 42.8691 90.2275 42.8703H95.8938C96.0044 42.8655 96.1087 42.8175 96.1841 42.7365C96.2596 42.6555 96.3001 42.5481 96.2971 42.4375C96.2944 42.3738 96.2776 42.3114 96.2479 42.2549V42.2549ZM100.483 49.9543C99.4399 48.0308 98.2293 46.2033 96.8647 44.493C96.8066 44.4 96.7145 44.3333 96.608 44.307C96.5015 44.2808 96.3889 44.2971 96.2943 44.3525C96.2364 44.3869 96.1881 44.4352 96.1538 44.493C96.0568 44.656 95.9669 44.8246 95.8728 44.9904C95.5852 45.4878 95.3042 45.988 95.0298 46.491C94.4017 47.615 93.7737 48.7516 93.1049 49.863C93.0676 49.9076 93.0416 49.9606 93.029 50.0175C92.9881 50.1083 92.9848 50.2116 93.0198 50.3048C93.0548 50.398 93.1253 50.4735 93.2159 50.5149C93.2457 50.5305 93.2773 50.5423 93.31 50.55C93.3218 50.555 93.334 50.5588 93.3466 50.5612C93.3643 50.5685 93.3826 50.5742 93.4014 50.5781C93.7161 50.6076 94.0322 50.6202 94.3483 50.6399C94.6293 50.6568 94.9103 50.6793 95.1913 50.6877C96.8394 50.7425 98.4945 50.675 100.136 50.5753C100.244 50.5709 100.347 50.5246 100.423 50.446C100.498 50.3674 100.54 50.2627 100.54 50.1538C100.538 50.0835 100.518 50.0149 100.483 49.9543V49.9543ZM99.4597 61.2505C98.4656 58.7939 97.2068 56.4529 95.7056 54.269C95.6752 54.2166 95.6324 54.1724 95.581 54.1403C95.5295 54.1082 95.471 54.0892 95.4105 54.085C95.3303 54.0574 95.2425 54.0619 95.1656 54.0975C95.0886 54.1331 95.0284 54.1971 94.9974 54.2761C93.8959 56.6449 92.3659 58.7861 91.2644 61.1606C91.238 61.208 91.2212 61.2601 91.2149 61.314C91.2087 61.3679 91.2131 61.4226 91.228 61.4747C91.2429 61.5269 91.2679 61.5757 91.3016 61.6182C91.3353 61.6607 91.3771 61.6962 91.4245 61.7226C91.4833 61.7557 91.5495 61.7736 91.617 61.7745H99.0635C99.1181 61.774 99.172 61.7626 99.2221 61.7411C99.2722 61.7195 99.3175 61.6882 99.3554 61.649C99.3933 61.6098 99.4231 61.5634 99.4429 61.5126C99.4627 61.4618 99.4723 61.4076 99.471 61.353C99.4708 61.3186 99.467 61.2842 99.4597 61.2505V61.2505Z" fill="#AC47F5"/>
<path d="M126.024 103.364C123.483 104.719 121.016 106.207 118.632 107.823C118.195 108.113 118.604 108.821 119.044 108.526C122.628 106.017 126.472 103.9 130.509 102.212C130.7 102.137 130.888 102.056 131.082 101.984C131.371 101.877 131.664 101.78 131.956 101.682C135.351 100.609 138.848 99.8865 142.391 99.5268C145.265 99.1784 148.151 98.9044 151.029 98.6009C151.546 98.5461 151.551 97.7284 151.029 97.7832C146.336 98.2777 141.597 98.6262 136.958 99.5254C135.546 99.7978 134.151 100.148 132.778 100.574C132.317 100.715 131.859 100.866 131.404 101.026C129.557 101.676 127.759 102.457 126.024 103.364V103.364ZM171.633 95.9314C175.669 95.9218 179.54 94.3351 182.422 91.5099C183.659 90.1229 184.595 88.4944 185.17 86.7273C185.746 84.9602 185.949 83.093 185.766 81.2435C185.541 78.7459 184.875 76.3079 183.799 74.0429C183.58 73.5652 182.876 73.9797 183.096 74.4546C184.895 78.0185 185.408 82.0939 184.549 85.9924C184.103 87.6414 183.303 89.1738 182.207 90.4838C181.11 91.7937 179.742 92.8499 178.197 93.5794C176.136 94.5293 173.902 95.0494 171.633 95.1081C171.109 95.1362 171.106 95.9539 171.633 95.9314V95.9314Z" fill="#1D1D1B"/>
<path d="M132.776 121.834C130.703 122.03 128.632 122.253 126.563 122.503C126.542 122.507 126.52 122.514 126.5 122.524C126.441 122.53 126.385 122.55 126.335 122.581C126.285 122.612 126.242 122.655 126.211 122.705C124.192 125.764 123.574 129.713 123.277 133.294C123.169 134.6 123.114 135.909 123.113 137.219V137.811C123.127 140.113 123.381 142.407 123.871 144.655C124.018 145.332 124.214 145.997 124.459 146.645C124.535 146.938 124.666 147.215 124.844 147.461C125.062 147.599 125.31 147.685 125.567 147.712C125.836 147.786 126.105 147.853 126.374 147.934C128.251 148.457 130.118 149.014 131.994 149.57C132.081 149.4 132.162 149.228 132.251 149.06C132.283 149.008 132.327 148.966 132.38 148.935C132.432 148.904 132.491 148.886 132.552 148.883C132.604 148.869 132.658 148.866 132.712 148.873L134.458 149.325L145.674 152.23C144.401 150.067 143.996 147.501 144.54 145.051C144.795 143.859 145.344 142.375 146.743 142.227C147.193 142.199 147.643 142.29 148.047 142.49C148.45 142.691 148.794 142.994 149.043 143.37C148.9 138.253 149.443 133.14 150.658 128.168C151.141 126.327 152.063 123.25 153.818 121.778C154.263 121.391 154.801 121.127 155.379 121.01C147.835 120.762 140.282 121.037 132.776 121.834V121.834Z" fill="#FF8684"/>
<path d="M173.464 61.6482C171.239 59.4309 168.67 57.589 165.856 56.194C163.213 54.9869 160.462 54.0301 157.641 53.3363C155.833 52.8501 154.016 52.3879 152.209 51.8905C152.106 51.8653 151.997 51.8815 151.905 51.9354C151.813 51.9894 151.746 52.077 151.718 52.1795C151.69 52.2821 151.703 52.3916 151.754 52.4848C151.805 52.578 151.891 52.6476 151.993 52.6787C157.701 54.2481 163.664 55.389 168.662 58.7441C170.173 59.7736 171.587 60.939 172.886 62.2257C173.262 62.5938 173.84 62.0163 173.464 61.6482ZM188.07 66.6809L194.058 59.0406C194.379 58.6317 193.804 58.0571 193.48 58.4631L187.493 66.1021C187.171 66.5123 187.746 67.094 188.07 66.6809ZM200.926 67.302L190.726 68.6901C190.207 68.7617 190.428 69.5486 190.943 69.4783L201.144 68.0902C201.662 68.0185 201.442 67.2317 200.926 67.302ZM266.941 171.452C266.544 168.206 265.534 165.065 263.964 162.196C262.176 158.6 259.828 155.322 257.984 151.759C257.257 150.265 256.631 148.722 256.113 147.142C254.53 142.679 253.175 138.131 251.866 133.579C251.709 133.946 251.533 134.304 251.34 134.653C249.168 138.587 244.775 141.285 240.231 140.015C240.057 140.494 239.87 140.969 239.662 141.434C239.639 142.181 239.616 142.929 239.604 143.682C239.555 146.994 239.653 150.305 239.631 153.615C239.622 156.808 239.384 159.996 238.917 163.154C238.872 163.449 238.827 163.741 238.777 164.029C242.343 165.666 245.427 168.196 247.727 171.376C250.637 175.251 253.063 179.469 254.948 183.934C255.865 186.019 256.716 188.132 257.5 190.27C257.612 190.572 257.732 190.87 257.841 191.172C258.832 189.832 259.949 188.584 260.939 187.238C262.466 185.2 263.756 182.994 264.785 180.664C265.41 179.23 265.93 177.753 266.34 176.243C266.815 174.692 267.018 173.072 266.941 171.452V171.452ZM247.79 118.575C247.304 116.23 246.568 113.945 245.595 111.758C243.992 108.584 241.792 105.75 239.114 103.41C237.876 102.272 236.52 101.269 235.069 100.418C233.61 99.607 232.067 98.9596 230.466 98.4873C227.176 97.4948 223.73 97.1209 220.304 97.3844C219.582 97.442 218.862 97.5376 218.149 97.6654C213.2 94.1431 206.362 93.8256 200.686 95.5874C197.756 96.654 195.078 98.3132 192.818 100.461C189.582 103.367 186.664 106.608 184.114 110.131C180.961 114.403 178.165 118.927 175.751 123.657C174.265 126.555 172.908 129.518 171.684 132.536C171.778 132.574 171.876 132.605 171.965 132.651C172.689 133.036 173.245 133.676 173.525 134.446C173.806 135.217 173.792 136.064 173.485 136.824C173.203 137.63 172.727 138.355 172.099 138.934C171.47 139.512 170.709 139.927 169.883 140.141C169.838 140.15 169.793 140.141 169.742 140.154C169.455 140.192 169.163 140.196 168.875 140.164C168.545 141.189 168.231 142.22 167.932 143.255C168.184 143.39 168.419 143.553 168.635 143.74C168.9 143.967 169.133 144.23 169.325 144.522C169.8 145.363 169.923 146.359 169.667 147.291C169.41 148.222 168.794 149.014 167.955 149.493C167.68 149.648 167.386 149.768 167.081 149.849C166.798 149.92 166.508 149.961 166.217 149.969C165.58 152.851 165.072 155.76 164.694 158.687C164.275 161.923 164.032 165.18 163.966 168.442C163.934 170.078 163.949 171.713 164.01 173.349C164.029 174.828 164.164 176.304 164.414 177.763C164.867 179.903 165.787 181.917 167.107 183.661C168.428 185.404 170.117 186.835 172.055 187.851C172.357 188.021 172.666 188.176 172.974 188.33C173.146 188.108 173.321 187.89 173.491 187.668C174.905 185.812 176.249 183.899 177.631 182.022C181.811 176.347 186.359 170.714 192.306 166.8C194.125 165.599 196.072 164.605 198.112 163.838C197.839 162.553 197.68 161.222 197.53 159.938C197.323 158.124 197.21 156.302 197.19 154.477C197.175 153.334 197.19 152.193 197.215 151.051C196.832 150.8 196.447 150.551 196.082 150.271C192.462 147.407 189.838 143.474 188.584 139.031C187.265 134.529 187.136 129.762 188.209 125.195C188.746 122.855 189.711 120.633 191.054 118.643C192.429 116.668 194.086 114.906 195.972 113.413C197.886 111.833 200.008 110.523 202.278 109.519C204.471 108.58 206.78 107.939 209.144 107.614C213.559 107.024 218.048 107.348 222.333 108.567C224.186 109.078 225.983 109.772 227.7 110.638C229.381 111.51 230.94 112.601 232.336 113.881C236.302 117.347 239.19 121.879 240.655 126.939C242.192 125.018 244.119 123.106 246.697 123.005C247.182 122.987 247.666 123.041 248.135 123.165C248.459 123.25 248.773 123.366 249.074 123.512C248.638 121.858 248.2 120.218 247.79 118.575V118.575ZM177.307 145.41C176.995 145.832 176.285 145.419 176.604 144.997C177.831 143.164 178.342 140.944 178.039 138.759C177.748 136.393 176.871 134.137 175.487 132.196C175.191 131.759 175.899 131.353 176.19 131.783C177.647 133.849 178.565 136.247 178.859 138.759C179.169 141.09 178.62 143.455 177.314 145.41H177.307ZM181.395 146.836C181.114 147.28 180.412 146.87 180.693 146.423C181.384 145.339 181.901 144.154 182.225 142.911C182.759 140.712 182.71 138.412 182.081 136.238C181.452 134.064 180.267 132.093 178.641 130.519C178.266 130.149 178.845 129.572 179.22 129.941C180.217 130.916 181.065 132.032 181.738 133.253C182.891 135.342 183.467 137.701 183.408 140.087C183.348 142.474 182.655 144.801 181.399 146.831L181.395 146.836ZM185.692 148.266C185.437 148.727 184.732 148.314 184.989 147.853C185.747 146.489 186.302 145.022 186.636 143.498C187.183 140.789 187.063 137.987 186.284 135.334C185.506 132.682 184.093 130.26 182.168 128.276C181.804 127.895 182.381 127.318 182.745 127.699C183.913 128.913 184.91 130.28 185.708 131.763C187.077 134.299 187.793 137.135 187.791 140.016C187.788 142.897 187.068 145.732 185.694 148.265L185.692 148.266ZM193.876 73.8535C193.364 73.7312 193.147 74.5194 193.658 74.6403L200.489 76.2588C201 76.3811 201.218 75.5929 200.705 75.472L193.876 73.8535ZM159.013 129.555C158.502 129.019 158.185 128.327 158.113 127.59C158.041 126.853 158.218 126.113 158.616 125.489C158.669 125.392 158.734 125.305 158.793 125.208C158.589 124.592 158.336 123.993 158.034 123.419C157.827 123.01 157.563 122.632 157.252 122.295C157.144 122.175 157.019 122.07 156.882 121.985C156.778 121.904 156.655 121.851 156.525 121.829C155.022 121.493 153.877 122.705 153.141 123.96C152.166 125.782 151.48 127.745 151.108 129.778C150.596 132.183 150.252 134.619 150.076 137.071C150.157 137.049 150.244 137.053 150.322 137.084H150.338C150.353 137.087 150.369 137.092 150.384 137.098C151.144 137.551 151.783 138.18 152.249 138.932C152.715 139.684 152.993 140.537 153.06 141.419C153.162 142.339 152.93 143.265 152.407 144.029C151.884 144.793 151.104 145.344 150.21 145.582C150.16 145.592 150.108 145.592 150.058 145.582C150.306 146.53 150.666 147.445 151.133 148.307C151.412 148.869 151.822 149.355 152.328 149.726C152.834 150.096 153.421 150.34 154.041 150.436C154.747 150.422 155.437 150.232 156.051 149.883C156.664 149.535 157.181 149.038 157.554 148.439C158.311 147.334 158.859 146.099 159.171 144.796C159.691 142.033 159.965 139.229 159.99 136.418C159.996 136.328 160.032 136.241 160.09 136.172C160.149 136.103 160.228 136.053 160.316 136.032C160.309 134.079 160.171 132.129 159.904 130.194C159.579 130.024 159.279 129.808 159.013 129.555V129.555ZM157.711 138.229C157.293 138.603 156.787 138.866 156.241 138.994C155.694 139.121 155.124 139.11 154.583 138.96C154.073 138.801 153.6 138.542 153.191 138.197C152.782 137.853 152.447 137.43 152.205 136.953C151.721 135.781 151.608 134.489 151.879 133.25C151.979 132.574 152.254 131.936 152.674 131.398C153.095 130.86 153.648 130.44 154.28 130.18C155.138 129.858 156.072 129.799 156.964 130.01C157.46 130.16 157.922 130.408 158.319 130.741C158.717 131.074 159.044 131.484 159.279 131.946C159.762 133.017 159.871 134.22 159.586 135.36C159.302 136.5 158.641 137.511 157.711 138.229ZM184.488 70.282C184.21 68.9115 183.429 67.6947 182.299 66.872C181.194 66.0368 179.984 65.3505 178.7 64.8306C177.355 64.3154 176.119 63.5492 175.06 62.5727C174.981 62.4979 174.875 62.4576 174.766 62.4608C174.657 62.4639 174.553 62.5103 174.478 62.5896C174.432 62.64 174.398 62.7011 174.38 62.7674C174.363 62.8338 174.362 62.9034 174.377 62.9703C174.782 65.3639 175.491 67.6962 176.485 69.911C177.236 71.5394 178.426 73.7298 180.355 74.1443C180.839 74.2003 181.328 74.1606 181.796 74.0273C182.264 73.8941 182.701 73.67 183.083 73.3679C183.464 73.0657 183.782 72.6914 184.019 72.2663C184.256 71.8412 184.406 71.3736 184.462 70.8903C184.485 70.6884 184.492 70.485 184.482 70.282H184.488ZM181.116 68.558L182.206 69.3743C182.627 69.6862 182.214 70.3944 181.794 70.0768L180.708 69.2591C180.287 68.9514 180.693 68.2419 181.113 68.5566L181.116 68.558ZM169.579 95.1659C168.771 95.2158 167.961 95.1042 167.196 94.8376C166.431 94.5711 165.727 94.1549 165.125 93.6134C163.97 92.69 162.656 91.9857 161.247 91.5354C160.633 91.3419 159.98 91.3079 159.349 91.4367C158.718 91.5655 158.13 91.8529 157.641 92.2716C156.847 93.1157 156.141 94.0384 155.533 95.0254C155.136 95.6134 154.697 96.1726 154.221 96.6988C153.883 97.1081 153.442 97.4195 152.944 97.6008C152.883 97.6099 152.825 97.6357 152.778 97.6753C152.721 97.7129 152.676 97.7658 152.648 97.8279C152.619 97.89 152.609 97.9588 152.618 98.0265V98.0785C152.618 98.0967 152.618 98.1094 152.629 98.1248C152.651 98.2131 152.705 98.2904 152.779 98.3426L152.833 98.3707C152.852 98.3839 152.873 98.3951 152.895 98.4044C154.445 98.6669 155.933 99.2183 157.28 100.03C157.885 100.513 158.463 101.029 159.011 101.576C159.422 102.058 159.943 102.435 160.531 102.674C163.393 103.611 165.389 100.589 166.908 98.7107C167.358 98.1487 167.819 97.6036 168.313 97.0908C168.713 96.6126 169.213 96.2288 169.779 95.9668C169.883 95.9379 169.972 95.8687 170.025 95.7743C170.079 95.68 170.093 95.5683 170.064 95.4638C170.035 95.3593 169.966 95.2705 169.871 95.217C169.777 95.1635 169.665 95.1497 169.561 95.1786L169.579 95.1659ZM161.741 93.5825C160.695 93.6747 159.723 94.159 159.02 94.9383C158.665 95.3275 158.088 94.7472 158.443 94.3609C159.3 93.4307 160.479 92.8607 161.741 92.7662C162.266 92.7212 162.262 93.5389 161.741 93.5825V93.5825ZM117.107 109.073C114.517 109.873 111.988 110.859 109.541 112.023C108.353 112.583 107.241 113.291 106.232 114.131C105.448 114.741 104.888 115.593 104.64 116.554C104.576 117.152 104.666 117.756 104.9 118.31C105.134 118.864 105.505 119.35 105.978 119.721C106.684 120.422 107.606 120.863 108.595 120.972C109.529 121.001 110.445 120.717 111.198 120.165C113.169 118.591 114.712 116.546 115.685 114.219C116.422 112.715 117.064 111.167 117.608 109.583C117.636 109.477 117.62 109.365 117.566 109.271C117.511 109.177 117.421 109.108 117.316 109.08C117.248 109.059 117.176 109.057 117.107 109.073V109.073ZM109.615 114.021C108.356 114.68 107.335 115.717 106.694 116.986C106.457 117.455 105.751 117.04 105.992 116.574C106.7 115.181 107.823 114.043 109.206 113.316C109.673 113.07 110.084 113.775 109.615 114.021V114.021Z" fill="#1D1D1B"/>
<path d="M153.06 141.423C152.993 140.541 152.715 139.688 152.249 138.936C151.783 138.184 151.143 137.555 150.384 137.102C150.369 137.096 150.353 137.092 150.337 137.088H150.322C150.244 137.057 150.157 137.053 150.076 137.076L150.041 137.088C149.973 137.11 149.912 137.15 149.866 137.205C149.82 137.26 149.791 137.326 149.782 137.397V137.43C149.782 137.44 149.782 137.45 149.782 137.461L149.711 144.561C149.844 144.906 149.962 145.251 150.07 145.598C150.12 145.609 150.172 145.609 150.222 145.598C151.117 145.358 151.896 144.804 152.416 144.037C152.937 143.271 153.166 142.343 153.06 141.423V141.423ZM159.279 131.946C159.044 131.484 158.717 131.074 158.319 130.741C157.921 130.408 157.46 130.159 156.963 130.01C156.072 129.799 155.138 129.858 154.28 130.18C153.648 130.44 153.095 130.86 152.674 131.398C152.253 131.936 151.979 132.574 151.879 133.25C151.608 134.489 151.721 135.781 152.205 136.953C152.447 137.43 152.782 137.853 153.191 138.197C153.599 138.542 154.073 138.801 154.583 138.96C155.124 139.11 155.694 139.121 156.24 138.994C156.787 138.866 157.292 138.603 157.711 138.229C158.641 137.511 159.301 136.5 159.586 135.36C159.87 134.22 159.762 133.017 159.279 131.946V131.946ZM260.512 199.289C259.694 196.559 258.804 193.851 257.842 191.167C257.733 190.865 257.613 190.567 257.501 190.265C256.717 188.126 255.866 186.013 254.949 183.928C253.064 179.463 250.639 175.246 247.728 171.37C245.428 168.191 242.345 165.66 238.778 164.024C238.73 164.298 238.674 164.569 238.609 164.836C238.47 165.48 238.225 166.097 237.884 166.662C237.275 167.593 236.505 168.407 235.61 169.067C233.326 170.706 230.767 171.921 228.054 172.656C224.954 173.583 221.765 174.176 218.539 174.423C215.266 174.779 211.956 174.53 208.773 173.688C206.158 172.948 203.742 171.634 201.699 169.842C200.224 168.621 199.107 167.023 198.467 165.219C198.408 165.025 198.366 164.824 198.315 164.628C198.248 164.364 198.175 164.102 198.119 163.834C196.079 164.601 194.131 165.594 192.313 166.796C186.366 170.71 181.818 176.343 177.638 182.017C176.255 183.894 174.912 185.811 173.497 187.664C173.327 187.886 173.153 188.104 172.98 188.326C172.746 188.625 172.517 188.93 172.278 189.226C170.46 191.746 167.94 193.674 165.032 194.771C159.834 196.457 155.443 192.65 153.792 187.946C153.019 185.499 152.556 182.965 152.414 180.403C152.169 177.788 152.103 175.159 152.217 172.535C152.29 171.033 152.447 169.536 152.689 168.052V167.997C152.659 168.072 152.607 168.137 152.54 168.183C152.473 168.229 152.394 168.254 152.313 168.255C150.328 168.182 148.342 168.172 146.357 168.226C139.352 168.404 132.383 169.209 125.406 169.815C125.363 169.821 125.319 169.819 125.276 169.808C125.234 169.798 125.194 169.779 125.16 169.753C125.125 169.726 125.095 169.694 125.073 169.656C125.051 169.619 125.037 169.577 125.031 169.534C125.011 169.48 125.004 169.421 125.009 169.364C125.009 169.377 124.99 169.382 124.987 169.396C122.298 180.3 120.335 192.041 123.537 203.046C124.897 207.876 127.241 212.372 130.422 216.253C133.84 220.299 138.26 223.378 143.241 225.18C149.346 227.237 155.768 228.196 162.208 228.013H266.572C266.681 228.009 266.785 227.963 266.861 227.885C266.937 227.806 266.979 227.701 266.979 227.591C266.978 227.56 266.974 227.528 266.966 227.497C265.393 217.972 263.237 208.551 260.512 199.289V199.289ZM237.64 220.114L237.921 199.601C237.927 199.497 237.973 199.399 238.049 199.327C238.124 199.256 238.225 199.216 238.329 199.216C238.433 199.216 238.534 199.256 238.61 199.327C238.685 199.399 238.731 199.497 238.737 199.601L238.656 205.475L238.375 225.988C238.375 226.097 238.332 226.201 238.255 226.277C238.178 226.354 238.074 226.397 237.966 226.397C237.857 226.397 237.753 226.354 237.677 226.277C237.6 226.201 237.557 226.097 237.557 225.988L237.64 220.114ZM172.393 132.915C172.26 132.814 172.119 132.724 171.972 132.644C171.88 132.598 171.782 132.567 171.691 132.529C170.978 132.266 170.21 132.189 169.46 132.305C168.709 132.421 168.001 132.726 167.401 133.192C166.717 133.768 166.217 134.533 165.963 135.391C165.71 136.249 165.715 137.163 165.976 138.018C166.291 138.735 166.83 139.329 167.512 139.713C168.194 140.097 168.982 140.249 169.757 140.147C169.802 140.14 169.847 140.147 169.898 140.134C170.725 139.92 171.486 139.505 172.114 138.926C172.742 138.348 173.219 137.623 173.5 136.817C173.778 136.137 173.82 135.383 173.619 134.675C173.419 133.968 172.987 133.349 172.393 132.915V132.915ZM162.742 123.364C162.136 123.259 161.513 123.303 160.928 123.493C160.343 123.683 159.813 124.013 159.384 124.454C159.161 124.686 158.963 124.939 158.793 125.212C158.734 125.305 158.669 125.392 158.616 125.493C158.218 126.117 158.041 126.857 158.113 127.594C158.185 128.331 158.502 129.023 159.013 129.559C159.277 129.816 159.575 130.035 159.9 130.209C160.174 130.354 160.463 130.468 160.761 130.551C161.356 130.741 161.989 130.781 162.603 130.667C163.217 130.553 163.793 130.288 164.28 129.897C164.767 129.506 165.15 129.001 165.394 128.426C165.638 127.851 165.736 127.225 165.679 126.603C165.643 125.805 165.33 125.046 164.794 124.454C164.258 123.863 163.532 123.478 162.742 123.364Z" fill="#FEE253"/>
<path d="M163.907 143.566C163.918 143.246 163.932 142.924 163.938 142.607C163.862 141.515 163.536 140.455 162.984 139.51C162.433 138.565 161.67 137.76 160.757 137.157C160.769 139.985 160.449 142.804 159.803 145.557C159.085 147.92 157.569 150.777 154.873 151.215C152.212 151.648 150.47 149.282 149.645 147.075C149.177 145.826 149.062 144.05 147.807 143.295C147.527 143.088 147.176 143 146.831 143.051C146.486 143.102 146.176 143.288 145.968 143.568C145.618 144.122 145.39 144.745 145.301 145.394C145.02 146.65 145.027 147.954 145.318 149.207C145.61 150.461 146.18 151.632 146.987 152.636C147.015 152.667 147.039 152.703 147.057 152.741C147.472 153.264 147.985 153.699 148.569 154.022C149.152 154.345 149.794 154.55 150.457 154.624C150.975 154.68 150.978 155.498 150.457 155.441C148.892 155.28 147.455 154.504 146.461 153.285L144.844 152.863L132.813 149.747C132.214 150.896 131.657 152.067 131.14 153.259C128.983 158.338 127.245 163.585 125.941 168.946C127.728 168.79 129.515 168.627 131.301 168.457C138.165 167.676 145.071 167.332 151.979 167.429C152.414 164.879 153.218 162.407 154.367 160.089C155.478 157.891 157.005 155.929 158.863 154.312C159.828 153.633 160.748 152.892 161.617 152.095C162.302 151.286 162.806 150.34 163.094 149.32C163.161 149.099 163.203 148.869 163.261 148.644C162.868 148.159 162.583 147.595 162.425 146.992C162.315 146.339 162.397 145.668 162.66 145.06C162.923 144.452 163.356 143.934 163.907 143.566V143.566Z" fill="#FFCEB6"/>
<path d="M125.4 169.804C132.377 169.201 139.346 168.399 146.351 168.215C148.337 168.161 150.324 168.171 152.309 168.244C152.39 168.243 152.469 168.218 152.535 168.172C152.602 168.126 152.654 168.061 152.684 167.986C152.691 167.973 152.697 167.959 152.702 167.945C153.366 162.89 155.791 158.231 159.55 154.787C160.548 154.104 161.483 153.334 162.346 152.487C163.022 151.644 163.53 150.679 163.844 149.645C163.883 149.525 163.913 149.405 163.948 149.284C163.691 149.098 163.46 148.88 163.261 148.635C163.203 148.859 163.161 149.09 163.093 149.31C162.806 150.331 162.302 151.277 161.617 152.085C160.747 152.883 159.828 153.623 158.863 154.302C157.005 155.92 155.478 157.882 154.367 160.08C153.218 162.397 152.413 164.87 151.978 167.419C145.071 167.323 138.165 167.666 131.301 168.448C129.516 168.615 127.729 168.778 125.941 168.937C127.245 163.575 128.983 158.329 131.14 153.25C131.657 152.063 132.215 150.892 132.813 149.738L144.844 152.854L146.461 153.275C146.405 153.208 146.346 153.143 146.291 153.073C145.973 152.651 146.683 152.247 146.994 152.661L147.053 152.732C147.035 152.693 147.011 152.658 146.982 152.626C146.176 151.623 145.606 150.451 145.314 149.198C145.022 147.944 145.016 146.641 145.296 145.385C145.386 144.735 145.613 144.113 145.964 143.558C146.172 143.279 146.482 143.093 146.827 143.042C147.172 142.991 147.523 143.078 147.803 143.286C149.057 144.04 149.173 145.815 149.641 147.065C150.465 149.272 152.207 151.638 154.869 151.206C157.565 150.767 159.084 147.911 159.799 145.548C160.445 142.795 160.765 139.975 160.753 137.147C161.666 137.75 162.428 138.556 162.98 139.501C163.532 140.446 163.858 141.506 163.934 142.597C163.934 142.915 163.914 143.237 163.903 143.557C164.159 143.363 164.437 143.199 164.73 143.068L164.744 142.787C164.698 141.51 164.344 140.264 163.711 139.154C163.079 138.045 162.186 137.105 161.111 136.415C160.941 136.299 160.771 136.175 160.595 136.074C160.51 136.026 160.409 136.014 160.314 136.04C160.226 136.062 160.147 136.111 160.089 136.18C160.03 136.25 159.995 136.336 159.988 136.427C159.963 139.238 159.689 142.042 159.169 144.805C158.858 146.108 158.31 147.343 157.552 148.448C157.179 149.047 156.663 149.543 156.049 149.892C155.436 150.241 154.745 150.43 154.04 150.444C153.42 150.348 152.832 150.104 152.326 149.734C151.82 149.364 151.41 148.877 151.131 148.316C150.665 147.454 150.304 146.538 150.056 145.59C149.948 145.24 149.828 144.895 149.697 144.553C149.684 144.521 149.676 144.487 149.663 144.455C149.506 144.065 149.296 143.699 149.039 143.367C148.79 142.992 148.446 142.688 148.042 142.488C147.639 142.287 147.189 142.197 146.739 142.225C145.334 142.373 144.79 143.856 144.536 145.049C143.991 147.499 144.397 150.064 145.67 152.227L134.454 149.322L132.707 148.871C132.654 148.863 132.6 148.867 132.547 148.88C132.487 148.884 132.428 148.902 132.375 148.932C132.323 148.963 132.279 149.006 132.247 149.058C132.158 149.226 132.077 149.398 131.99 149.568C129.643 154.294 127.754 159.234 126.347 164.32C125.867 165.967 125.419 167.622 125.005 169.287C124.998 169.367 125.004 169.448 125.024 169.527C125.03 169.57 125.045 169.611 125.067 169.648C125.09 169.685 125.119 169.718 125.154 169.743C125.189 169.769 125.229 169.788 125.271 169.798C125.313 169.808 125.357 169.81 125.4 169.804V169.804Z" fill="#1D1D1B"/>
<path d="M198.082 156.616C198.171 158.479 198.37 160.336 198.678 162.176C198.808 163.417 199.107 164.634 199.564 165.795C200.492 167.593 201.856 169.13 203.531 170.266C205.842 171.887 208.488 172.966 211.274 173.424C214.472 173.886 217.722 173.86 220.912 173.348C223.982 172.961 226.998 172.229 229.904 171.166C232.324 170.384 234.534 169.062 236.367 167.3C237.039 166.617 237.532 165.779 237.8 164.859C237.975 164.1 238.106 163.332 238.195 162.558C238.318 161.715 238.421 160.872 238.505 160.029C239.074 154.409 238.756 148.748 238.819 143.107C238.775 143.186 238.734 143.266 238.688 143.343C236.066 147.576 232.177 150.875 227.573 152.772C222.228 154.916 216.445 155.742 210.713 155.177C206.267 154.948 201.931 153.709 198.036 151.552C197.991 153.24 198.006 154.929 198.082 156.616V156.616Z" fill="#FFCEB6"/>
<path d="M239.631 153.61C239.653 150.299 239.555 146.988 239.604 143.676C239.615 142.929 239.639 142.181 239.662 141.428C239.406 142 239.121 142.558 238.809 143.102C238.746 148.743 239.065 154.406 238.496 160.023C238.411 160.866 238.308 161.709 238.185 162.552C238.097 163.326 237.965 164.095 237.79 164.854C237.522 165.773 237.029 166.612 236.357 167.294C234.524 169.056 232.314 170.379 229.894 171.161C226.988 172.223 223.972 172.955 220.902 173.343C217.712 173.855 214.462 173.88 211.264 173.419C208.478 172.961 205.832 171.881 203.521 170.26C201.846 169.125 200.482 167.588 199.555 165.79C199.097 164.629 198.799 163.411 198.668 162.17C198.36 160.33 198.161 158.474 198.072 156.611C197.988 154.925 197.989 153.239 198.02 151.553C197.747 151.389 197.478 151.218 197.214 151.041C197.185 152.183 197.177 153.325 197.189 154.467C197.208 156.292 197.322 158.114 197.529 159.928C197.679 161.212 197.838 162.543 198.11 163.828C198.168 164.096 198.24 164.358 198.307 164.622C198.358 164.819 198.4 165.02 198.459 165.213C199.099 167.018 200.216 168.615 201.69 169.836C203.733 171.628 206.15 172.942 208.764 173.683C211.947 174.524 215.258 174.773 218.531 174.418C221.756 174.17 224.946 173.578 228.045 172.65C230.758 171.915 233.317 170.7 235.601 169.062C236.496 168.402 237.267 167.587 237.876 166.656C238.216 166.092 238.461 165.474 238.601 164.83C238.666 164.563 238.722 164.292 238.77 164.018C238.819 163.737 238.864 163.438 238.91 163.142C239.379 159.986 239.62 156.8 239.631 153.61V153.61Z" fill="#1D1D1B"/>
<path d="M169.328 144.512C169.135 144.22 168.903 143.957 168.638 143.73C168.422 143.543 168.186 143.38 167.935 143.245C167.142 142.8 166.211 142.667 165.325 142.873C165.121 142.925 164.923 142.993 164.73 143.078C164.437 143.208 164.159 143.372 163.903 143.567C163.354 143.933 162.922 144.45 162.659 145.056C162.396 145.662 162.313 146.331 162.421 146.982C162.579 147.586 162.864 148.149 163.257 148.634C163.456 148.88 163.687 149.098 163.944 149.284C164.314 149.555 164.734 149.75 165.18 149.858C165.521 149.937 165.871 149.971 166.221 149.959C166.513 149.951 166.802 149.91 167.085 149.839C167.625 149.696 168.125 149.431 168.546 149.065C168.968 148.699 169.3 148.242 169.517 147.727C169.734 147.213 169.83 146.656 169.799 146.098C169.767 145.541 169.607 144.998 169.333 144.512H169.328Z" fill="#FEE253"/>
<path d="M240.832 128.013C240.772 128.105 240.68 128.169 240.573 128.194C240.467 128.218 240.355 128.2 240.262 128.144C240.177 128.092 240.115 128.01 240.086 127.915C239.789 126.618 239.381 125.349 238.866 124.121C237.785 121.66 236.338 119.375 234.573 117.347C233.069 115.521 231.324 113.91 229.386 112.556C226.322 110.603 222.897 109.287 219.314 108.688C214.988 107.836 210.527 107.945 206.248 109.008C201.632 110.25 197.443 112.727 194.131 116.173C192.498 117.823 191.162 119.742 190.182 121.845C189.261 123.961 188.683 126.21 188.469 128.508C187.96 132.968 188.626 137.483 190.4 141.607C192.226 145.863 195.468 149.357 199.576 151.496C204.306 153.699 209.498 154.729 214.712 154.498C220.123 154.547 225.453 153.182 230.175 150.538C234.53 148.067 237.863 144.127 239.579 139.423C239.611 139.322 239.681 139.236 239.774 139.184C239.867 139.132 239.977 139.117 240.08 139.142C241.65 139.614 243.321 139.623 244.896 139.169C246.47 138.715 247.88 137.817 248.957 136.582C250.12 135.441 250.973 134.024 251.438 132.462C251.903 130.901 251.963 129.248 251.614 127.656C251.306 126.553 250.645 125.58 249.731 124.888C248.817 124.196 247.702 123.823 246.556 123.825C244.073 123.98 242.233 126.18 240.832 128.013V128.013ZM194.4 119.957C195.227 119.082 196.279 118.452 197.442 118.137C198.604 117.822 199.83 117.834 200.986 118.171C201.088 118.202 201.174 118.272 201.225 118.365C201.276 118.458 201.289 118.568 201.261 118.67C201.233 118.773 201.166 118.861 201.074 118.915C200.982 118.969 200.873 118.985 200.77 118.96C199.753 118.66 198.674 118.648 197.651 118.926C196.628 119.204 195.703 119.761 194.978 120.535C194.617 120.919 194.043 120.341 194.4 119.957ZM200.919 131.828C200.713 132.203 200.422 132.524 200.069 132.767C199.717 133.01 199.313 133.166 198.889 133.225C198.465 133.284 198.033 133.243 197.628 133.106C197.223 132.968 196.855 132.738 196.555 132.433C196.159 131.991 195.856 131.473 195.664 130.911C195.473 130.349 195.397 129.754 195.441 129.161C195.447 129.057 195.492 128.959 195.568 128.888C195.644 128.816 195.745 128.776 195.849 128.776C195.953 128.776 196.053 128.816 196.129 128.888C196.205 128.959 196.251 129.057 196.257 129.161C196.257 130.339 196.538 131.793 197.786 132.252C198.183 132.453 198.641 132.5 199.071 132.384C199.501 132.268 199.874 131.998 200.117 131.624C200.424 130.841 200.545 129.998 200.469 129.16C200.469 129.051 200.512 128.947 200.589 128.871C200.666 128.794 200.77 128.751 200.878 128.751C200.986 128.751 201.091 128.794 201.167 128.871C201.244 128.947 201.287 129.051 201.287 129.16C201.345 130.065 201.22 130.972 200.919 131.828V131.828ZM223.636 137.9C223.225 139.093 222.633 140.216 221.881 141.23C220.849 142.575 219.504 143.648 217.962 144.355C216.421 145.063 214.73 145.383 213.037 145.288C208.651 145.115 205.184 141.504 203.028 137.997C203.001 137.95 202.983 137.898 202.976 137.845C202.97 137.791 202.973 137.736 202.988 137.684C203.002 137.632 203.027 137.583 203.06 137.54C203.094 137.497 203.135 137.462 203.182 137.435C203.243 137.401 203.311 137.382 203.38 137.382C210.001 137.493 216.621 137.271 223.243 137.382C223.327 137.383 223.409 137.413 223.475 137.465C223.552 137.503 223.611 137.57 223.641 137.651C223.671 137.732 223.67 137.821 223.636 137.9V137.9ZM225.454 118.471C226.594 118.11 227.818 118.109 228.958 118.468C230.098 118.827 231.101 119.529 231.829 120.477C232.149 120.898 231.44 121.3 231.126 120.889C230.491 120.094 229.629 119.513 228.655 119.221C227.68 118.93 226.64 118.943 225.674 119.257C225.169 119.418 224.957 118.634 225.454 118.471ZM232.149 131.678C231.943 132.052 231.652 132.374 231.299 132.616C230.947 132.858 230.543 133.015 230.119 133.074C229.695 133.133 229.264 133.092 228.859 132.955C228.453 132.817 228.086 132.587 227.785 132.283C227.389 131.841 227.086 131.323 226.894 130.761C226.703 130.198 226.626 129.603 226.67 129.011C226.67 128.902 226.713 128.798 226.789 128.722C226.866 128.645 226.97 128.602 227.079 128.602C227.187 128.602 227.291 128.645 227.368 128.722C227.444 128.798 227.487 128.902 227.487 129.011C227.487 130.188 227.768 131.642 229.015 132.102C229.413 132.302 229.87 132.349 230.301 132.233C230.731 132.118 231.104 131.847 231.347 131.474C231.653 130.691 231.774 129.847 231.7 129.009C231.706 128.905 231.751 128.808 231.827 128.736C231.903 128.664 232.003 128.625 232.108 128.625C232.212 128.625 232.312 128.664 232.388 128.736C232.464 128.808 232.51 128.905 232.516 129.009C232.575 129.914 232.45 130.821 232.149 131.676V131.678ZM246.401 131.842L241.311 135.179C240.87 135.468 240.461 134.757 240.9 134.476L245.988 131.139C246.43 130.846 246.838 131.554 246.401 131.841V131.842Z" fill="#FFCEB6"/>
<path d="M246.697 122.99C244.12 123.09 242.194 125.002 240.655 126.924C239.19 121.865 236.303 117.332 232.336 113.866C230.94 112.586 229.381 111.496 227.7 110.623C225.983 109.758 224.186 109.064 222.333 108.552C218.048 107.334 213.559 107.01 209.144 107.6C206.78 107.924 204.471 108.565 202.278 109.505C200.008 110.509 197.886 111.819 195.972 113.398C194.086 114.892 192.429 116.654 191.055 118.629C189.712 120.619 188.747 122.84 188.209 125.18C187.136 129.747 187.265 134.515 188.585 139.017C189.838 143.459 192.462 147.393 196.082 150.257C196.447 150.538 196.833 150.784 197.215 151.037C197.482 151.212 197.748 151.387 198.022 151.548C201.918 153.704 206.253 154.943 210.699 155.173C216.431 155.737 222.214 154.912 227.559 152.768C232.163 150.871 236.052 147.572 238.674 143.339C238.721 143.261 238.761 143.181 238.805 143.103C239.117 142.56 239.402 142.001 239.658 141.429C239.866 140.964 240.053 140.489 240.227 140.01C244.771 141.275 249.164 138.58 251.336 134.649C251.529 134.299 251.705 133.94 251.862 133.573C252.057 133.125 252.223 132.666 252.358 132.197C252.819 130.64 252.835 128.985 252.402 127.42C252.138 126.575 251.706 125.792 251.134 125.116C250.561 124.441 249.86 123.886 249.07 123.486C248.769 123.34 248.455 123.224 248.131 123.139C247.663 123.019 247.18 122.969 246.697 122.99V122.99ZM251.614 127.646C251.964 129.237 251.903 130.891 251.438 132.452C250.974 134.014 250.12 135.431 248.957 136.572C247.88 137.807 246.47 138.704 244.896 139.158C243.322 139.612 241.651 139.603 240.082 139.132C239.978 139.106 239.868 139.121 239.775 139.173C239.682 139.225 239.612 139.311 239.579 139.413C237.863 144.117 234.53 148.057 230.175 150.528C225.454 153.172 220.123 154.537 214.712 154.487C209.499 154.718 204.307 153.689 199.576 151.486C195.468 149.347 192.226 145.853 190.4 141.597C188.626 137.473 187.961 132.958 188.469 128.498C188.683 126.2 189.261 123.951 190.182 121.835C191.162 119.731 192.499 117.812 194.133 116.163C197.444 112.717 201.633 110.24 206.248 108.998C210.528 107.935 214.988 107.825 219.315 108.677C222.897 109.277 226.323 110.593 229.386 112.545C231.324 113.899 233.07 115.511 234.573 117.336C236.338 119.365 237.785 121.649 238.867 124.111C239.381 125.339 239.789 126.608 240.086 127.905C240.11 127.98 240.154 128.048 240.215 128.099C240.275 128.15 240.349 128.182 240.428 128.193C240.506 128.203 240.586 128.191 240.658 128.157C240.729 128.123 240.79 128.07 240.832 128.003C242.237 126.177 244.075 123.969 246.56 123.805C247.708 123.803 248.824 124.178 249.738 124.872C250.652 125.566 251.312 126.54 251.618 127.646H251.614Z" fill="#1D1D1B"/>
<path d="M245.989 131.135L240.9 134.472C240.461 134.753 240.87 135.467 241.311 135.175L246.402 131.838C246.839 131.554 246.43 130.846 245.989 131.135V131.135ZM231.7 129.009C231.774 129.847 231.653 130.691 231.347 131.474C231.104 131.847 230.731 132.118 230.301 132.233C229.871 132.349 229.413 132.302 229.015 132.102C227.769 131.64 227.488 130.187 227.488 129.011C227.488 128.902 227.445 128.798 227.368 128.722C227.291 128.645 227.187 128.602 227.079 128.602C226.97 128.602 226.866 128.645 226.79 128.722C226.713 128.798 226.67 128.902 226.67 129.011C226.626 129.603 226.703 130.198 226.894 130.761C227.086 131.323 227.389 131.841 227.785 132.283C228.086 132.587 228.454 132.817 228.859 132.955C229.264 133.092 229.695 133.133 230.119 133.074C230.543 133.015 230.947 132.858 231.299 132.616C231.652 132.373 231.943 132.052 232.149 131.677C232.451 130.822 232.575 129.913 232.516 129.008C232.51 128.904 232.464 128.806 232.388 128.735C232.313 128.663 232.212 128.623 232.108 128.623C232.004 128.623 231.903 128.663 231.827 128.735C231.752 128.806 231.706 128.904 231.7 129.008V129.009ZM200.77 118.959C200.873 118.985 200.983 118.968 201.074 118.915C201.166 118.861 201.233 118.773 201.261 118.67C201.289 118.568 201.276 118.458 201.225 118.365C201.174 118.272 201.088 118.202 200.986 118.171C199.831 117.834 198.604 117.822 197.442 118.137C196.28 118.452 195.227 119.082 194.4 119.957C194.043 120.341 194.619 120.919 194.979 120.534C195.703 119.761 196.629 119.204 197.651 118.926C198.674 118.648 199.754 118.66 200.77 118.959V118.959ZM223.475 137.466C223.409 137.414 223.327 137.385 223.243 137.383C216.621 137.272 210.001 137.494 203.381 137.383C203.326 137.384 203.272 137.395 203.222 137.417C203.172 137.438 203.127 137.47 203.089 137.509C203.051 137.548 203.022 137.594 203.002 137.645C202.982 137.696 202.973 137.75 202.975 137.805C202.975 137.874 202.993 137.942 203.028 138.001C205.185 141.514 208.648 145.119 213.037 145.292C214.73 145.387 216.421 145.067 217.962 144.36C219.504 143.652 220.849 142.58 221.882 141.234C222.633 140.221 223.225 139.098 223.636 137.904C223.671 137.825 223.673 137.735 223.643 137.653C223.613 137.572 223.553 137.505 223.475 137.466ZM231.124 120.888C231.44 121.3 232.149 120.888 231.826 120.477C231.098 119.529 230.096 118.827 228.955 118.468C227.815 118.109 226.592 118.11 225.452 118.47C224.954 118.633 225.171 119.423 225.668 119.257C226.635 118.942 227.676 118.929 228.651 119.22C229.626 119.512 230.488 120.094 231.124 120.888V120.888ZM200.469 129.161C200.545 129.999 200.424 130.843 200.117 131.626C199.874 131.999 199.502 132.27 199.071 132.385C198.641 132.501 198.184 132.454 197.786 132.254C196.54 131.793 196.257 130.339 196.257 129.163C196.251 129.058 196.205 128.961 196.13 128.889C196.054 128.818 195.953 128.778 195.849 128.778C195.745 128.778 195.644 128.818 195.569 128.889C195.493 128.961 195.447 129.058 195.441 129.163C195.397 129.755 195.473 130.35 195.665 130.912C195.856 131.474 196.159 131.992 196.555 132.435C196.856 132.739 197.223 132.97 197.628 133.107C198.033 133.244 198.465 133.285 198.889 133.227C199.313 133.168 199.717 133.011 200.069 132.768C200.422 132.526 200.713 132.204 200.919 131.829C201.22 130.973 201.345 130.065 201.287 129.16C201.287 129.051 201.244 128.947 201.167 128.871C201.091 128.794 200.987 128.751 200.878 128.751C200.77 128.751 200.666 128.794 200.589 128.871C200.513 128.947 200.469 129.051 200.469 129.16V129.161ZM53.38 111.308C50.5138 111.644 47.6387 111.878 44.7547 112.01C44.2306 112.034 44.2278 112.853 44.7547 112.827C49.9609 112.583 55.1469 112.015 60.2828 111.128C65.8749 110.146 71.4139 108.882 76.8786 107.341C80.2408 106.403 83.584 105.397 86.9061 104.325L87.2082 104.231C87.707 104.069 87.4892 103.281 86.9904 103.443H86.9764C81.1512 105.318 75.2713 107.037 69.3127 108.44C64.0607 109.699 58.7412 110.656 53.38 111.308V111.308Z" fill="#1D1D1B"/>
<path d="M104.221 127.682L103.87 127.923C103.825 128.186 103.794 128.45 103.777 128.716V128.958C108.915 125.383 113.763 121.41 118.278 117.075C123.243 112.321 127.816 107.174 131.955 101.685C131.662 101.783 131.37 101.879 131.081 101.987C130.887 102.059 130.699 102.14 130.507 102.215C127.102 106.648 123.408 110.852 119.45 114.799C114.74 119.509 109.646 123.818 104.221 127.682V127.682Z" fill="#1D1D1B"/>
<path d="M103.87 127.923C104.41 125.54 105.519 123.322 107.102 121.46C107.416 121.039 106.707 120.632 106.399 121.049C104.723 123.019 103.568 125.378 103.038 127.909C103.009 128.119 103 128.331 102.986 128.536C102.965 128.863 102.963 129.192 102.978 129.52C103.149 131.581 103.797 133.575 104.869 135.345C105.922 137.299 107.652 138.801 109.735 139.57C111.779 140.249 113.956 140.427 116.084 140.089C118.52 139.756 120.879 139.001 123.055 137.857C123.077 137.842 123.096 137.826 123.114 137.808V137.215C123.054 137.155 122.976 137.116 122.891 137.104C122.807 137.093 122.721 137.11 122.646 137.152C119.08 139.179 114.905 139.859 110.88 139.068C108.948 138.601 107.254 137.444 106.115 135.815C104.663 133.816 103.849 131.424 103.782 128.953V128.712C103.797 128.448 103.827 128.184 103.87 127.923V127.923Z" fill="#1D1D1B"/>
<path d="M100.527 131.047C97.8795 132.615 95.1632 134.06 92.3785 135.382C89.6847 136.66 86.9294 137.803 84.1227 138.808C75.4148 141.938 66.2273 143.524 56.9739 143.495C53.592 143.495 50.2158 143.272 46.8579 142.933C44.3612 142.684 41.8715 142.347 39.3692 142.159C38.848 142.119 38.8452 141.302 39.3692 141.341C39.6263 141.361 39.8849 141.382 40.142 141.406C42.7412 141.638 45.3306 141.979 47.9285 142.219C51.3572 142.549 54.801 142.698 58.2454 142.666C62.5026 142.614 66.7484 142.215 70.941 141.475C75.958 140.574 80.8789 139.203 85.6387 137.379C91.2785 135.2 96.7005 132.494 101.833 129.297L101.911 129.25C100.826 127.515 99.7636 125.765 98.7249 123.999C98.4439 123.526 98.1713 123.049 97.8931 122.574C96.1888 119.656 94.5028 116.725 92.7311 113.847C90.7852 110.683 88.6889 107.589 86.9172 104.321C83.5947 105.393 80.2511 106.399 76.8883 107.337C71.4205 108.88 65.8782 110.145 60.2827 111.128C55.1469 112.016 49.9609 112.585 44.7546 112.829C44.2277 112.855 44.2305 112.037 44.7546 112.013C47.6367 111.881 50.5118 111.647 53.3799 111.311C58.7424 110.66 64.0634 109.703 69.3168 108.444C75.2754 107.039 81.1553 105.322 86.9805 103.447C89.8383 102.254 92.6055 100.855 95.2601 99.2599C95.5594 99.0787 95.8488 98.8862 96.1425 98.6979C96.3785 98.5476 96.6174 98.4015 96.845 98.2483C96.1008 95.9015 95.1084 93.6407 93.8846 91.5043C92.0732 88.3902 89.858 85.5291 87.2966 82.9956C84.7704 80.526 81.8232 78.5275 78.594 77.0946C78.4228 77.3141 78.2398 77.5242 78.0461 77.7241C77.0849 78.7236 75.8817 79.4578 74.5532 79.8555C68.5117 81.6595 61.8534 83.0308 55.6096 81.3406C52.7837 80.513 50.1523 79.1276 47.8709 77.2661C46.6673 76.3984 45.5782 75.382 44.6295 74.2411C43.8533 73.191 43.3594 71.9594 43.195 70.664C43.1824 70.5783 43.1599 70.4954 43.1515 70.4097C43.1304 70.2256 43.1332 70.0373 43.1262 69.8477C43.0714 69.8477 43.0152 69.8477 42.959 69.8589C36.6709 70.5278 30.6276 72.663 25.315 76.0929C19.9534 79.5869 15.2635 84.0161 11.4687 89.1692C9.50979 91.784 7.75088 94.5428 6.207 97.4222C5.05069 99.5718 4.06157 101.786 3.09633 104.026C2.83641 104.631 2.58351 105.237 2.3559 105.852C1.20796 109.014 0.471781 112.31 0.165505 115.659C-0.0448751 117.92 -0.0119026 120.197 0.263855 122.451C0.569935 124.954 1.22788 127.401 2.21821 129.72C3.3462 132.313 4.89897 134.7 6.81256 136.782C9.11732 139.252 11.799 141.342 14.7578 142.974C18.5862 145.072 22.6651 146.677 26.897 147.751C32.4961 149.181 38.2153 150.091 43.9818 150.469C51.2538 151.133 58.5758 151.02 65.824 150.134C71.6852 149.424 77.3681 147.651 82.5941 144.904C86.6714 142.694 90.221 139.626 92.9981 135.912C93.1345 135.7 93.2818 135.495 93.4392 135.298C93.7834 135.023 94.1677 134.801 94.5787 134.642C95.4638 134.166 96.341 133.675 97.2103 133.17C99.0452 132.102 100.843 130.974 102.603 129.786L102.618 129.772C101.924 130.206 101.227 130.631 100.527 131.047Z" fill="#9CF0F0"/>
<path d="M142.642 82.6525C145.267 77.2245 147.192 71.485 148.37 65.572C149.068 62.6855 149.28 59.7033 149 56.7472C148.513 53.4426 146.949 50.3912 144.55 48.0671C144.269 47.8057 143.813 47.418 143.445 47.7538C143.245 47.9918 143.125 48.2867 143.102 48.5968C143.032 49.5403 143.059 50.4884 143.182 51.4264L143.546 58.1325C143.574 58.6608 142.764 58.6537 142.728 58.1325C142.592 56.1589 142.169 54.2156 141.473 52.3636C141.15 51.5044 140.766 50.6687 140.327 49.8627C139.982 49.16 139.533 48.5134 138.995 47.9448C138.523 47.401 137.86 47.0602 137.143 46.9937C136.799 47.0347 136.484 47.2072 136.264 47.4751C136.045 47.743 135.937 48.0855 135.964 48.431C135.981 49.2168 136.07 49.9994 136.23 50.7689C136.354 51.6819 136.413 52.6027 136.405 53.5241C136.387 55.3698 136.108 57.2036 135.577 58.9713C135.548 59.0642 135.487 59.144 135.406 59.1964C135.324 59.2488 135.226 59.2704 135.129 59.2574C135.033 59.2444 134.945 59.1976 134.88 59.1254C134.814 59.0532 134.777 58.9602 134.774 58.8631C134.719 56.8102 134.473 54.767 134.039 52.7598C133.809 51.7856 133.463 50.8423 133.01 49.9498C132.626 49.2107 132.026 47.9828 131.096 47.8676C129.754 47.6962 129.506 49.8683 129.496 50.7773C129.505 52.2548 129.409 53.7311 129.206 55.1946C128.84 58.3294 127.651 61.3114 125.76 63.8382C123.821 66.191 121.15 67.826 118.173 68.4817C117.159 68.7082 116.119 68.7985 115.082 68.7501C116.092 70.2195 117.009 71.7502 117.83 73.3332C118.097 73.8169 118.332 74.3177 118.532 74.8323C118.69 75.3002 118.173 75.7905 117.924 76.1643C117.307 77.0916 116.684 78.0142 116.055 78.9321C112.415 84.5393 108.126 89.698 103.278 94.3014C98.6497 98.3783 93.3806 101.664 87.6829 104.027C88.6397 105.773 89.7033 107.459 90.7598 109.147C92.8558 112.473 94.8976 115.834 96.8842 119.227C98.7557 122.441 100.624 125.655 102.596 128.81L102.995 128.529C103.009 128.319 103.017 128.107 103.047 127.902C103.576 125.37 104.731 123.011 106.407 121.041C106.718 120.62 107.427 121.032 107.11 121.453C105.527 123.315 104.418 125.532 103.878 127.916L104.23 127.674C109.651 123.812 114.742 119.506 119.45 114.799C123.411 110.852 127.107 106.648 130.516 102.214C126.479 103.903 122.635 106.019 119.051 108.528C118.611 108.821 118.208 108.107 118.639 107.826C121.023 106.21 123.49 104.721 126.031 103.366C127.766 102.461 129.564 101.68 131.411 101.031C131.832 100.481 132.254 99.9397 132.66 99.3819C136.497 94.1257 139.839 88.5253 142.642 82.6525V82.6525ZM142.892 67.4533C143.279 66.8709 143.527 66.2076 143.617 65.5144C143.682 64.9987 144.5 64.9931 144.435 65.5144C144.339 66.3528 144.05 67.1577 143.592 67.8663C143.311 68.3061 142.599 67.8958 142.89 67.4533H142.892ZM133.926 67.8621C134.253 67.203 134.384 66.4636 134.302 65.7321C134.252 65.2081 135.069 65.2137 135.12 65.7321C135.201 66.609 135.032 67.491 134.631 68.2752C134.396 68.7459 133.692 68.3314 133.921 67.8621H133.926ZM117.608 109.582C117.064 111.166 116.421 112.715 115.685 114.219C114.712 116.545 113.169 118.589 111.198 120.162C110.445 120.714 109.528 120.998 108.595 120.968C107.606 120.859 106.683 120.419 105.977 119.718C105.504 119.346 105.134 118.861 104.9 118.307C104.666 117.753 104.576 117.149 104.64 116.551C104.888 115.589 105.448 114.737 106.232 114.127C107.241 113.288 108.353 112.58 109.54 112.02C111.988 110.855 114.517 109.869 117.106 109.069C117.176 109.051 117.249 109.052 117.318 109.071C117.387 109.09 117.451 109.126 117.501 109.177C117.552 109.228 117.589 109.291 117.607 109.361C117.626 109.43 117.626 109.503 117.608 109.572V109.582Z" fill="#FFE497"/>
<path d="M146.715 49.2642C146.233 48.6322 145.703 48.0388 145.128 47.4897C144.476 46.8884 143.505 46.457 142.804 47.2452C142.304 48.0045 142.115 48.9275 142.278 49.822L142.432 52.6475C142.399 52.5575 142.375 52.4634 142.343 52.3665C142.016 51.4617 141.628 50.5801 141.181 49.7279C140.798 48.9245 140.305 48.1783 139.716 47.5108C138.742 46.4865 136.975 45.5199 135.773 46.7732C134.572 48.0264 135.381 50.169 135.515 51.6612C135.636 53.0884 135.592 54.5249 135.384 55.9422C135.276 53.2385 134.449 50.6125 132.987 48.3355C132.787 48.0031 132.519 47.7174 132.199 47.4973C131.88 47.2773 131.517 47.1281 131.135 47.0598C130.842 47.0348 130.548 47.0818 130.277 47.1966C130.006 47.3115 129.767 47.4907 129.581 47.7187C128.844 48.8418 128.527 50.1895 128.688 51.5235C128.725 54.8229 128.004 58.0867 126.58 61.0634C125.102 63.9782 122.553 66.2084 119.468 67.2876C118.302 67.6939 117.079 67.9153 115.845 67.9437C115.616 67.9437 115.387 67.9296 115.156 67.9198C115.016 67.9198 114.861 67.9198 114.714 67.9044H114.701L114.538 67.8861H114.493C114.455 67.8861 114.417 67.8748 114.381 67.8678C114.26 67.8474 114.135 67.8757 114.035 67.9465C113.952 67.9967 113.891 68.078 113.868 68.1726C113.844 68.2671 113.859 68.3672 113.909 68.4509L113.919 68.4678C115.35 70.552 116.618 72.7438 117.712 75.0235C114.492 80.0897 110.901 84.9104 106.968 89.4458C103.981 92.7999 100.582 95.7627 96.852 98.2636C96.6202 98.4167 96.3813 98.5629 96.1495 98.7132C95.8558 98.9001 95.5664 99.0926 95.2672 99.2752C92.6126 100.87 89.8454 102.269 86.9875 103.462H87.0029C87.5045 103.301 87.7181 104.089 87.2193 104.25L86.9172 104.344C88.6889 107.612 90.7852 110.706 92.7311 113.87C94.5028 116.749 96.1888 119.679 97.8945 122.598C98.1755 123.073 98.4467 123.548 98.7249 124.023C99.7636 125.788 100.826 127.538 101.911 129.273L102.267 129.057C102.715 128.776 103.124 129.486 102.679 129.759C102.784 129.689 102.884 129.612 102.988 129.54C102.972 129.213 102.975 128.884 102.996 128.557C102.856 128.648 102.731 128.742 102.597 128.838C100.63 125.685 98.7572 122.47 96.8857 119.257C94.9047 115.858 92.852 112.513 90.7627 109.176C89.7048 107.49 88.6412 105.804 87.6844 104.056C93.3821 101.694 98.6512 98.4079 103.28 94.331C108.128 89.7285 112.416 84.5708 116.057 78.9645C116.686 78.0475 117.309 77.1249 117.926 76.1967C118.174 75.8215 118.691 75.3326 118.534 74.8647C118.333 74.3501 118.098 73.8493 117.831 73.3656C117.016 71.7723 116.102 70.2313 115.095 68.7516C116.132 68.8 117.172 68.7098 118.186 68.4832C121.163 67.8275 123.834 66.1925 125.773 63.8397C127.664 61.3129 128.853 58.3309 129.219 55.1961C129.421 53.7326 129.518 52.2563 129.508 50.7788C129.518 49.8698 129.767 47.6976 131.109 47.8691C132.043 47.9885 132.639 49.2122 133.022 49.9513C133.476 50.8438 133.822 51.7871 134.052 52.7613C134.486 54.7685 134.732 56.8117 134.787 58.8646C134.79 58.9617 134.827 59.0547 134.892 59.1269C134.957 59.1991 135.046 59.2459 135.142 59.2589C135.239 59.2719 135.336 59.2503 135.418 59.1979C135.5 59.1454 135.561 59.0657 135.589 58.9728C136.12 57.205 136.4 55.3713 136.42 53.5256C136.427 52.6041 136.368 51.6834 136.243 50.7704C136.083 50.0009 135.994 49.2183 135.977 48.4325C135.95 48.0871 136.058 47.7448 136.278 47.477C136.497 47.2091 136.812 47.0365 137.156 46.9951C137.873 47.061 138.536 47.4019 139.008 47.9463C139.542 48.5173 139.987 49.1657 140.327 49.8698C140.766 50.6755 141.149 51.5106 141.473 52.3693C142.169 54.2218 142.592 56.1655 142.728 58.1396C142.765 58.6609 143.571 58.6679 143.546 58.1396L143.183 51.4335C143.06 50.4955 143.033 49.5474 143.102 48.6039C143.125 48.2939 143.245 47.9989 143.445 47.7609C143.813 47.4251 144.267 47.8129 144.55 48.0742C146.95 50.398 148.514 53.4495 149 56.7543C149.28 59.7104 149.068 62.6926 148.371 65.5791C147.192 71.4921 145.267 77.2316 142.642 82.6597C139.837 88.5292 136.495 94.1263 132.657 99.3792C132.252 99.9412 131.822 100.478 131.409 101.029C131.863 100.87 132.32 100.72 132.782 100.576C136.512 95.5529 139.798 90.2138 142.6 84.6196C145.395 79.1128 147.498 73.282 148.864 67.2595C149.01 66.5897 149.142 65.9168 149.261 65.2405C149.395 64.493 149.516 63.7427 149.618 62.9925C149.759 61.9134 149.908 60.8189 149.958 59.7259C149.976 59.3367 149.985 58.9475 149.975 58.5583C149.887 55.1956 148.747 51.945 146.715 49.2642V49.2642Z" fill="#1D1D1B"/>
<path d="M102.26 129.037L101.904 129.254L101.826 129.301C96.6934 132.498 91.2715 135.204 85.6316 137.383C80.8718 139.206 75.9508 140.576 70.9339 141.476C66.7414 142.217 62.4955 142.615 58.2384 142.667C54.7939 142.7 51.3502 142.55 47.9214 142.22C45.3236 141.98 42.7342 141.639 40.1349 141.407C39.8775 141.383 39.6199 141.362 39.3622 141.342C38.8381 141.303 38.8409 142.121 39.3622 142.16C41.8645 142.348 44.3542 142.686 46.8508 142.934C50.2158 143.269 53.5948 143.486 56.9668 143.496C66.2228 143.526 75.4127 141.938 84.1227 138.806C86.9327 137.805 89.6837 136.655 92.3785 135.381C95.1604 134.065 97.8767 132.62 100.527 131.045C101.227 130.63 101.923 130.209 102.614 129.781L102.671 129.744C103.117 129.466 102.707 128.759 102.26 129.037ZM134.631 68.2753C135.032 67.4911 135.201 66.6091 135.12 65.7322C135.069 65.2138 134.252 65.2082 134.302 65.7322C134.384 66.4637 134.253 67.2031 133.926 67.8622C133.692 68.3315 134.396 68.746 134.631 68.2753ZM143.598 67.8664C144.056 67.1578 144.345 66.3529 144.441 65.5145C144.505 64.9932 143.688 64.9988 143.623 65.5145C143.533 66.2077 143.285 66.871 142.898 67.4534C142.604 67.8959 143.311 68.3062 143.598 67.8664V67.8664ZM150.461 155.436C150.982 155.492 150.98 154.674 150.461 154.618C149.798 154.544 149.157 154.34 148.573 154.016C147.99 153.693 147.476 153.258 147.061 152.735L147.002 152.665C146.687 152.244 145.978 152.657 146.3 153.077C146.354 153.149 146.413 153.217 146.47 153.279C147.463 154.498 148.898 155.273 150.461 155.436V155.436ZM237.559 225.988C237.565 226.092 237.61 226.19 237.686 226.261C237.762 226.333 237.862 226.373 237.967 226.373C238.071 226.373 238.171 226.333 238.247 226.261C238.323 226.19 238.369 226.092 238.375 225.988L238.656 205.475L238.737 199.601C238.731 199.497 238.686 199.399 238.61 199.327C238.534 199.256 238.433 199.216 238.329 199.216C238.225 199.216 238.125 199.256 238.049 199.327C237.973 199.399 237.927 199.497 237.921 199.601L237.64 220.114L237.559 225.988ZM27.9311 31.9856C29.3109 26.1952 31.7286 20.7028 35.0671 15.7747C36.02 14.3696 37.0461 13.0157 38.1412 11.7184C38.4784 11.318 37.9038 10.7349 37.5638 11.141C32.5178 17.1025 28.9473 24.169 27.1415 31.7678C27.0221 32.2792 27.8089 32.497 27.9311 31.9856V31.9856ZM18.3476 37.2136C19.4877 27.5191 23.2391 18.3163 29.2012 10.5874C30.8615 8.43613 32.6855 6.41629 34.6568 4.5459C35.039 4.18201 34.4601 3.60596 34.0794 3.96704C30.5079 7.36613 27.4174 11.2371 24.8935 15.4726C22.3681 19.7067 20.4225 24.2607 19.1091 29.0126C18.3714 31.7013 17.8434 34.4432 17.5299 37.2136C17.4709 37.7348 18.29 37.7306 18.3476 37.2136Z" fill="#1D1D1B"/>
</svg>
