<svg width="291" height="250" viewBox="0 0 291 250" fill="none" xmlns="http://www.w3.org/2000/svg">
<path d="M163.225 29.3888C161.492 28.9067 159.652 28.9811 157.964 29.6014C156.931 29.9426 157.37 29.1424 156.966 26.2645C156.644 23.1714 155.642 20.1884 154.034 17.5297C150.592 12.4685 139.676 11.1267 135.787 18.3865C135.609 19.046 138.209 16.7678 138.573 17.8663C138.936 19.0154 136.553 18.7981 136.048 20.3143C135.991 20.4102 135.913 20.4916 135.82 20.5521C135.727 20.6125 135.621 20.6503 135.51 20.6625C135.4 20.6746 135.288 20.6609 135.184 20.6222C135.08 20.5836 134.986 20.5211 134.91 20.4398C134.386 22.0042 133.973 23.604 133.675 25.2272C132.016 33.4708 132.899 40.1661 141.027 42.3234C146.564 43.7983 148.248 42.7441 148.179 44.2053C148.079 47.7722 148.551 51.3321 149.578 54.7485C149.742 55.2213 150.269 56.531 150.764 56.531C150.773 56.531 150.79 56.5401 150.799 56.5401C152.451 56.2898 153.993 55.5583 155.234 54.4364C156.564 49.4012 159.307 49.8066 159.385 49.2604C159.515 48.3271 158.786 42.6432 158.658 41.5155C157.523 31.8046 157.43 34.7162 161.169 34.0308C162.374 33.7716 163.458 33.1188 164.253 32.1749C164.835 31.3487 163.861 30.088 162.947 29.6657L163.225 29.3888Z" fill="#FFCEB6"/>
<path d="M88.1159 45.8596C87.9268 44.9523 86.5391 45.3379 86.7282 46.2452C86.933 47.5044 86.8674 48.7929 86.5357 50.0246C86.2041 51.2563 85.6141 52.4028 84.8052 53.3872C81.5066 57.7477 76.0044 58.9763 70.6394 59.9463C75.9007 54.8239 72.442 46.6353 71.0786 48.3841C69.0458 50.9851 67.1335 53.5861 67.2189 56.8909C67.2189 57.0439 67.501 60.7817 67.4781 60.5384C63.8658 61.0686 60.4005 62.3377 57.2972 64.267C61.0457 57.5274 59.0921 49.6678 55.0097 43.0567C54.6605 42.4906 53.6037 42.6696 53.6753 43.4162C54.3158 50.1681 49.265 61.4549 54.7428 65.7542C55.304 66.1765 55.4443 65.6318 54.4836 66.7518C52.5411 69.0753 51.1974 71.8421 50.5704 74.8087C50.1086 71.8421 48.93 69.0339 47.1377 66.6294C45.3671 64.4874 43.0354 63.0752 37.521 59.2272C36.9019 58.7958 36.2034 59.622 36.5359 60.2156C40.3163 66.9797 38.3064 75.4024 50.0382 77.8779C48.9448 88.0861 53.134 96.3909 50.2258 115.016C50.084 115.923 51.4717 116.31 51.6151 115.403C52.9869 106.456 53.026 97.3547 51.731 88.3967C51.8749 88.4098 52.019 88.3723 52.1384 88.2905C52.2578 88.2087 52.345 88.0877 52.3852 87.9484C59.4322 85.3612 63.0602 78.0753 64.4998 71.0679C64.634 70.4299 63.7922 69.7643 63.2996 70.3672C59.3758 75.0826 53.2148 77.9804 51.3726 84.4263C49.4785 53.8263 76.1477 67.3378 86.0618 54.1063C86.9659 52.9557 87.6163 51.6255 87.9698 50.2039C88.3234 48.7823 88.3722 47.3016 88.1129 45.8596H88.1159ZM41.8398 70.5324C40.5054 67.7937 39.9595 64.7658 38.8844 61.9262C45.8811 66.7717 47.7949 67.6805 49.4069 76.2561C45.6371 75.3657 43.6119 74.1432 41.8413 70.5324H41.8398ZM56.4813 78.8342C58.3617 76.9018 60.5195 75.2494 62.4532 73.3813C60.8779 78.8602 57.8157 84.1876 52.4431 86.4077C52.9001 83.4988 54.3231 80.83 56.4813 78.8342V78.8342ZM69.0626 54.3542C69.6365 52.8671 70.4432 51.4813 71.4523 50.2492C72.1186 51.8658 72.2295 53.659 71.7675 55.3458C71.3056 57.0327 70.297 58.5173 68.9009 59.5654C68.5467 57.8396 68.602 56.0545 69.0626 54.3542ZM43.1193 93.9934C41.7098 91.1092 39.7926 88.5041 37.46 86.3036C37.5669 86.1991 37.6311 86.0584 37.64 85.9089C37.9663 85.3841 37.2358 85.7758 38.4452 84.3269C41.7605 80.3489 38.9027 75.9379 35.4455 72.2001C35.3565 72.1134 35.2468 72.0511 35.127 72.019C35.0071 71.9869 34.8811 71.9862 34.7609 72.0169C34.6407 72.0476 34.5303 72.1087 34.4403 72.1943C34.3503 72.2799 34.2837 72.3873 34.2468 72.5061C33.1447 76.695 33.7062 81.1495 35.813 84.9312C33.6982 83.3096 31.1859 82.2914 28.5418 81.9845L28.4168 81.8131C27.7573 79.9687 26.6862 78.3 25.2853 76.9346C23.8845 75.5691 22.1909 74.5432 20.3343 73.9351C20.0487 75.0668 20.1038 76.2579 20.4928 77.3581C20.8818 78.4583 21.5871 79.4182 22.5196 80.1163C25.1563 82.2583 27.3264 81.7764 25.6702 82.0028C23.7935 82.1349 21.9783 82.7305 20.3865 83.7366C18.7946 84.7427 17.4753 86.1281 16.5462 87.7694C16.3937 88.3814 12.3448 90.811 15.6418 100.967C16.5294 103.687 22.4601 95.2235 18.4082 88.0035C18.36 87.9148 18.2928 87.838 18.2115 87.7786C19.3969 86.1476 21.0117 84.8803 22.8749 84.1187C24.7381 83.3572 26.776 83.1315 28.7599 83.467C27.2857 83.9074 25.9628 84.7508 24.9393 85.9027C23.9158 87.0547 23.2322 88.4697 22.9649 89.9894C22.9399 91.6448 22.7327 93.2924 22.3473 94.9022C22.1414 95.4515 22.7407 95.8998 23.2333 95.7927C25.7615 95.1503 28.019 93.7142 29.6765 91.6941C31.334 89.6739 32.3048 87.1752 32.4473 84.5625C36.4366 86.6429 39.6359 89.9783 41.5546 94.0577C43.1483 97.1054 40.8394 92.5659 36.3071 95.5678C34.4268 96.7918 33.0116 98.8649 30.8171 99.5749C30.6552 99.6267 30.5166 99.7341 30.4256 99.8781C30.3346 100.022 30.297 100.194 30.3194 100.363C30.3418 100.532 30.4227 100.688 30.5479 100.803C30.6732 100.918 30.8349 100.985 31.0047 100.993C33.6277 101.155 36.2614 101.434 38.8844 101.478C42.1158 101.536 41.9847 99.2444 43.0217 97.9745C43.0677 97.9149 43.1037 97.8482 43.1284 97.7771C44.8386 103.389 45.3902 109.292 44.7495 115.126C44.7495 115.316 44.825 115.499 44.9594 115.634C45.0939 115.769 45.2762 115.845 45.4663 115.845C45.6564 115.845 45.8387 115.769 45.9731 115.634C46.1075 115.499 46.183 115.316 46.183 115.126C46.9455 109.248 46.1083 99.9788 43.1193 93.9858V93.9934ZM16.6148 99.2689C15.6205 95.8906 15.0212 91.9646 17.3315 89.0729C18.1289 90.6822 18.4829 92.4761 18.3569 94.2688C18.2308 96.0615 17.6294 97.7878 16.6148 99.2689V99.2689ZM24.0568 94.0225C24.4594 91.6785 23.8433 89.7966 25.5162 87.4557C26.1448 86.5824 26.9668 85.8673 27.9176 85.3668C28.8684 84.8664 29.9221 84.5942 30.9955 84.5717C30.8677 86.6497 30.145 88.6466 28.9143 90.3229C27.6836 91.9992 25.997 93.2838 24.0568 94.0225ZM35.3418 74.2228C37.5408 76.6708 39.5279 79.9786 37.7818 82.8015C37.521 83.2237 37.1901 83.5925 36.9034 83.9689C35.3211 80.9834 34.7703 77.5558 35.3372 74.2228" fill="#5BBD8F"/>
<path d="M62.3984 115.196C38.8264 114.92 40.1654 115.153 40.1654 115.923C39.9092 143.352 39.6454 142.147 40.6397 142.147C58.2351 142.405 57.8142 142.618 57.9484 141.858C63.3027 115.208 63.6717 115.196 62.3984 115.196ZM57.2134 138.284C57.0349 139.173 56.8565 140.061 56.6857 140.943C35.9061 140.621 43.6622 140.764 41.3732 140.718C41.4296 135.233 41.5089 125.425 41.6065 116.642H61.5306L57.2134 138.284V138.284ZM88.7336 115.716C88.4835 114.712 87.2528 115.462 80.7914 115.205H69.2395C65.0458 115.387 66.2368 113.311 64.6279 124.538C62.1132 142.439 61.7457 142.659 62.891 142.659C86.3515 142.903 85.0172 142.678 85.098 142.128C88.9684 114.533 88.8419 116.096 88.7336 115.716" fill="#E59E70"/>
<path d="M99.2729 36.9471C98.4432 38.0312 97.4147 38.9462 96.2427 39.643C97.0659 37.7465 97.7833 35.8055 98.3914 33.829C98.4289 33.6768 98.4163 33.5166 98.3554 33.3722C98.2945 33.2279 98.1886 33.1072 98.0537 33.0283C97.9187 32.9494 97.7618 32.9165 97.6066 32.9345C97.4514 32.9525 97.3062 33.0205 97.1928 33.1282C95.474 34.6264 93.6358 35.9809 91.6967 37.1782L92.476 31.9762C92.5128 31.824 92.4996 31.664 92.4384 31.5199C92.3772 31.3759 92.2712 31.2555 92.1363 31.1768C92.0014 31.098 91.8448 31.065 91.6897 31.0828C91.5347 31.1006 91.3895 31.1682 91.2758 31.2754C81.9077 39.3508 75.8901 42.7642 83.7103 49.3723C84.4179 49.9644 85.4381 48.95 84.7213 48.3563C78.2874 42.9616 82.3515 40.7522 90.7847 33.5872C89.8697 39.6659 88.7016 41.6197 96.2275 35.7797C95.6122 37.495 94.916 39.1799 94.1413 40.8287C93.9003 41.3321 94.3121 42.1308 94.9571 41.889C96.4993 41.2905 97.9103 40.3961 99.1112 39.2559C98.8099 41.7883 97.7797 44.1777 96.1466 46.1322C94.5135 48.0866 92.3482 49.5214 89.9155 50.2612C89.7315 50.3123 89.5752 50.4347 89.4811 50.6014C89.387 50.7681 89.3628 50.9655 89.4138 51.1501C89.4647 51.3347 89.5867 51.4915 89.7529 51.5859C89.919 51.6803 90.1158 51.7046 90.2998 51.6535C101.778 48.4191 101.849 33.5383 99.2729 36.9471" fill="#FF9F48"/>
<path d="M74.801 104.829C74.7265 103.235 74.5497 101.647 74.2718 100.076C73.5093 95.9683 71.4582 94.1966 67.0372 91.1197C66.5538 90.777 65.7471 91.3523 65.9804 91.9368C67.118 94.7305 68.1734 97.5779 69.4269 100.318C73.1311 108.427 73.8768 99.2746 73.4117 114.449C73.4117 114.64 73.4872 114.823 73.6217 114.958C73.7561 115.093 73.9384 115.168 74.1285 115.168C74.3186 115.168 74.5009 115.093 74.6353 114.958C74.7697 114.823 74.8452 114.64 74.8452 114.449C74.9184 111.935 74.9977 107.336 74.801 104.829V104.829ZM113.635 63.081C111.934 66.3257 109.442 69.0854 106.391 71.1028C101.338 74.6967 95.5913 76.7637 90.4978 80.2935C92.6115 72.9189 98.3241 72.1967 96.6131 61.0155C96.6131 58.6669 94.9097 59.3615 95.0637 60.3407C95.6081 63.5063 92.555 64.5957 88.07 70.3576C85.7169 73.3993 85.1268 76.4562 88.7242 81.1564C88.8043 81.2592 88.9093 81.3398 89.0292 81.3905C85.1854 84.1889 82.3623 88.1747 80.9925 92.737C80.0516 88.7299 76.9269 85.2705 73.8113 82.6114C71.5101 80.6392 71.4231 91.6751 78.3421 97.9466C78.4439 98.0349 78.5674 98.0942 78.6998 98.1182C78.8322 98.1423 78.9687 98.1302 79.0949 98.0833C79.2211 98.0364 79.3324 97.9564 79.4173 97.8516C79.5021 97.7468 79.5574 97.6211 79.5773 97.4876C77.4789 120.636 78.3039 112.731 77.9928 115.285C77.8846 116.203 79.318 116.192 79.4248 115.285C79.8823 111.602 80.3276 95.9239 82.8728 92.5197C85.4947 94.0949 88.6099 94.6266 91.6034 94.0099C95.2116 93.4714 97.217 90.5429 99.0973 87.7216C100.317 86.0389 101.252 84.1661 101.865 82.1784C101.903 82.026 101.891 81.8653 101.83 81.7205C101.769 81.5757 101.663 81.4547 101.528 81.3756C101.392 81.2966 101.235 81.2638 101.079 81.2822C100.924 81.3006 100.778 81.3692 100.665 81.4777C94.5284 87.5977 90.1593 83.7436 85.0033 87.5977C89.9351 80.2399 99.2879 77.7231 106.506 72.8011C110.051 70.5644 112.955 67.4409 114.933 63.7373C114.484 63.5544 114.05 63.338 113.634 63.0901L113.635 63.081ZM79.5727 97.3453C79.4934 97.506 79.7252 97.2703 79.3486 96.9138C77.649 95.3562 76.2913 93.4607 75.3619 91.3478C74.4324 89.235 73.9516 86.9512 73.95 84.6417C77.5048 87.9113 80.872 92.2779 79.5727 97.3407V97.3453ZM86.1302 88.5004C90.1455 85.7862 93.6027 88.2495 99.4816 84.2868C98.6474 85.8917 95.9741 90.2247 93.9916 91.5726C91.515 93.2449 85.8908 93.1026 83.5408 91.2131C84.1982 90.1306 85.0829 89.2048 86.1333 88.5004" fill="#5BBD8F"/>
<path d="M127.757 55.0319C127.154 54.2271 126.668 55.0395 123.324 55.9744C123.874 54.8776 124.361 53.7502 124.783 52.5977C124.816 52.4745 124.816 52.3449 124.783 52.2217C124.75 52.0986 124.686 51.9863 124.596 51.896C124.506 51.8058 124.394 51.7409 124.272 51.7077C124.149 51.6746 124.02 51.6744 123.897 51.7072C122.536 52.1574 121.205 52.6945 119.912 53.3152L120.101 49.2913C120.099 49.1651 120.064 49.0416 120 48.9331C119.935 48.8245 119.844 48.7346 119.735 48.6721C119.625 48.6096 119.502 48.5767 119.376 48.5767C119.25 48.5766 119.126 48.6093 119.017 48.6717C103.014 56.9337 113.562 67.8992 122.733 63.1883C126.625 61.1993 128.251 55.7311 127.757 55.0319V55.0319ZM83.245 75.1223C82.3005 75.357 81.3439 75.5398 80.3795 75.6701C80.5046 74.8439 80.6205 74.0085 80.7455 73.1823C80.8172 72.6973 80.4405 72.0945 79.8595 72.2918C78.9826 72.607 78.0859 72.8763 77.1816 73.118C77.2899 72.1572 77.4058 71.1963 77.5141 70.2355C77.8526 67.4035 68.6477 73.4776 71.3165 78.294C72.1796 79.5911 73.4327 80.5779 74.8936 81.1109C76.3544 81.644 77.9466 81.6954 79.4386 81.2576C81.839 80.3396 85.2336 75.1713 83.2511 75.1223" fill="#FF9F48"/>
<path d="M157.368 214.681C142.548 212.466 149.459 213.504 129.216 210.477L130.084 204.152C129.91 204.107 128.524 203.734 128.711 203.784C127.74 210.928 127.411 211.665 128.237 211.788C131.577 212.283 134.917 212.78 138.256 213.28C159.321 216.421 158.591 216.598 158.726 215.507C159.013 213.171 159.309 210.836 159.596 208.509C159.147 208.563 158.664 208.598 158.144 208.618C157.875 210.62 157.625 212.651 157.374 214.681H157.368ZM191.136 120.136C190.454 119.426 185.278 119.218 180.086 119.185C178.368 123.996 175.679 128.4 172.188 132.121C176.218 131.864 180.172 130.903 183.874 129.283C189.649 126.192 192.566 121.61 191.136 120.136ZM211.766 195.914C163.279 129.269 168.676 135.66 167.173 137.009C165.967 138.089 167.512 133.597 157.395 171.954C155.878 177.706 156.091 176.956 156.07 177.022C156.019 177.206 156.043 177.404 156.137 177.57C156.231 177.737 156.388 177.859 156.572 177.911C156.756 177.962 156.952 177.937 157.119 177.843C157.285 177.749 157.407 177.592 157.458 177.407C158.807 172.3 167.283 139.976 167.782 138.121C167.866 137.792 167.466 137.404 171.442 142.838C216.626 205.001 210.709 195.068 209.605 198.683C210.537 198.846 214.043 199.565 214.473 199.637C215.444 199.809 215.136 201.255 214.215 200.957C212.605 200.695 211.002 200.4 209.399 200.112C209.327 207.199 219.607 207.039 219.607 200.275C219.588 199.365 219.331 198.477 218.862 197.699C218.394 196.92 217.73 196.278 216.937 195.838C216.145 195.397 215.25 195.172 214.344 195.186C213.438 195.2 212.551 195.452 211.772 195.917L211.766 195.914ZM139.644 188.775C135.639 182.62 140.712 188.08 123.432 172.548C81.2442 134.639 90.4186 142.95 89.1544 141.725C89.0888 141.656 89.1422 141.605 88.7152 143.255C88.9165 143.435 114.084 166.074 120.62 171.948C140.196 189.555 137.128 186.843 138.976 188.472L139.644 188.775ZM107.599 153.268C115.946 160.833 128.187 171.934 133.407 176.662C133.102 175.773 132.824 174.864 132.565 173.957C124.496 166.627 90.8212 136.148 90.5605 135.885C90.4263 136.406 90.2997 136.928 90.1655 137.448C92.514 139.578 90.6032 137.841 107.599 153.268ZM64.5028 196.121C64.3411 196.364 62.2824 200.481 62.1924 200.657C61.7715 201.483 60.5363 200.757 60.9572 199.93L63.2309 195.457C62.4713 195.177 61.6557 195.085 60.8531 195.188C60.0505 195.291 59.2843 195.586 58.6193 196.049C57.7411 196.685 57.0848 197.583 56.7432 198.614C56.4015 199.646 56.392 200.759 56.7158 201.796C57.0396 202.834 57.6804 203.742 58.5475 204.394C59.4146 205.046 60.4641 205.407 61.5473 205.428C62.6324 205.43 63.6899 205.085 64.5666 204.444C65.4432 203.802 66.0934 202.897 66.4227 201.86C66.7521 200.823 66.7436 199.707 66.3983 198.675C66.0531 197.643 65.3892 196.748 64.5028 196.121" fill="#FFD35C"/>
<path d="M190.911 89.4567C193.025 90.8582 195.137 92.2688 197.242 93.6703C196.632 87.4417 191.009 88.2786 186.783 87.0913C188.084 93.4882 190.368 95.875 196.902 95.5813C197.063 95.1345 198.347 96.1458 190.176 90.7128C189.425 90.2003 190.141 88.9518 190.911 89.4628" fill="#86F2AA"/>
<path d="M194.95 97.0116C194.524 97.6313 191.055 99.0236 187.374 98.459C187.19 98.4077 187.033 98.2851 186.939 98.1183C186.845 97.9514 186.821 97.754 186.873 97.5693C186.924 97.3847 187.046 97.228 187.212 97.1338C187.379 97.0395 187.575 97.0154 187.759 97.0667C189.322 97.2921 190.915 97.1533 192.415 96.6613C190.989 96.3429 189.68 95.6306 188.636 94.605C188.554 94.6205 188.469 94.6188 188.388 94.6001C188.306 94.5814 188.229 94.5461 188.162 94.4963C187.363 93.9256 186.718 94.5453 181.147 97.0973C189.104 103.508 194.811 101.381 196.897 96.9994C196.251 97.0456 195.602 97.0512 194.954 97.0162L194.95 97.0116ZM194.959 81.5877C194.565 81.372 193.794 81.0752 193.129 80.6973C192.671 82.8622 192.366 85.4143 193.71 87.1233C195.104 87.5159 196.339 88.3399 197.239 89.4779C197.156 87.7346 196.533 86.0606 195.458 84.689C194.813 84.025 195.833 83.006 196.469 83.6746C199 86.2986 198.971 92.3605 198.604 92.9725C198.697 93.7206 198.745 94.4737 198.747 95.2277C202.335 93.3917 203.693 86.2649 194.96 81.5816" fill="#86F2AA"/>
<path d="M166.49 11.7662C166.74 12.3063 167.253 12.7362 167.451 13.284C167.934 13.3412 168.421 13.2113 168.812 12.9207C169.203 12.6301 169.469 12.2008 169.555 11.7203C169.733 10.5825 169.624 9.41814 169.238 8.33371C168.851 7.24929 168.199 6.27948 167.343 5.51308C165.726 4.4635 162.229 5.00359 160.352 5.3968C162.997 6.8434 165.138 9.06557 166.49 11.7662ZM144.994 76.5923C149.149 71.3903 150.96 64.0187 154.458 57.4841C154.56 56.2601 154.636 56.5003 154.458 56.5768C151.293 58.4725 149.248 58.4434 148.144 54.9856C141.587 62.1996 137.297 74.1106 134.31 83.4115C138.442 82.1923 142.147 79.8288 145.001 76.5923H144.994ZM163.153 87.9112C164.096 90.0961 165.344 92.1351 166.859 93.967C167.425 93.5982 168.158 93.1132 169.028 92.5028C168.648 91.8908 166.521 88.1193 165.319 85.8365C164.633 86.5648 163.91 87.2573 163.153 87.9112V87.9112ZM166.367 84.7044C167.581 87.0544 168.872 89.3643 170.236 91.6307C174.05 88.8332 177.472 85.5335 180.409 81.8203C178.339 74.9217 175.69 68.2112 172.493 61.7605C172.819 69.9704 171.855 78.2845 166.367 84.7105" fill="#AC47F5"/>
<path d="M170.379 100.237C163.983 92.9787 163.698 91.6996 162.086 88.3306C153.187 95.3318 139.932 98.8233 128.742 100.086C128.782 101.355 129.289 102.564 130.165 103.481C138.003 111.808 151.196 112.413 162.552 111.314C168.224 110.974 173.828 109.899 179.225 108.117C175.921 105.923 172.943 103.27 170.38 100.237" fill="#AC47F5"/>
<path d="M145.674 95.2785C158.858 91.2699 170.127 83.7026 171.68 69.9708C172.406 63.4744 170.833 53.8477 164.604 52.0407C159.617 50.5781 156.578 55.6301 154.126 60.8719C146.003 78.447 147.894 81.432 125.285 87.6255C114.323 90.5952 114.206 89.1662 114.935 90.3122C120.08 98.9031 115.07 99.9787 119.439 99.7354C128.325 99.2731 137.127 97.7775 145.669 95.2785" fill="#AC47F5"/>
<path d="M130.907 133.755C127.191 127.699 129.574 121.244 141.814 123.955C145.104 119.547 148.811 115.612 150.13 111.562C143.161 110.985 133.507 107.544 129.494 102.613C113.396 109.107 108.163 123.164 110.834 134.271C119.268 134.064 117.123 133.795 130.685 133.469L130.907 133.755ZM131.651 134.887C105.62 135.511 112.203 135.357 111.102 135.381C113.847 144.33 121.605 151.786 130.299 156.889C130.308 156.664 130.299 156.43 130.308 156.206C130.518 149.849 131.777 143.571 134.034 137.627C133.179 136.769 132.383 135.853 131.651 134.887" fill="#FF8684"/>
<path d="M179.579 107.944C174.066 109.786 168.342 110.917 162.544 111.31C143.423 113.097 155.986 107.265 145.093 121.956C140.578 128.076 137.384 131.512 134.723 138.633C125.251 164.148 138.191 191.791 147.602 195.351C151.001 196.635 154.051 195.405 154.913 191.568C156.788 183.188 149.84 175.974 150.08 162.574C150.559 137.329 181.158 137.54 180.418 108.484L179.579 107.944Z" fill="#FF8684"/>
<path d="M267.945 230.035C264.375 234.142 261.738 238.979 260.218 244.21C260.179 244.391 260.21 244.58 260.305 244.738C260.4 244.897 260.552 245.012 260.73 245.062C260.907 245.111 261.097 245.091 261.26 245.005C261.423 244.918 261.547 244.772 261.606 244.597C263.054 239.603 265.566 234.984 268.967 231.058C269.566 230.358 268.554 229.334 267.945 230.035ZM278.328 229.557C272.88 233.338 268.591 238.568 265.945 244.66C265.577 245.505 266.821 246.241 267.18 245.387C269.705 239.511 273.814 234.459 279.044 230.798C279.807 230.276 279.089 229.028 278.328 229.557ZM289.292 230.264C283.44 233.506 278.348 237.966 274.357 243.346C273.801 244.091 275.046 244.81 275.593 244.072C279.454 238.9 284.372 234.615 290.018 231.505C290.833 231.064 290.108 229.822 289.292 230.264ZM1.67888 233.664C0.91638 233.151 0.18438 234.4 0.95298 234.903C3.00657 236.283 4.70314 238.134 5.90231 240.302C7.10148 242.471 7.76879 244.894 7.84903 247.373C7.85753 247.557 7.93668 247.732 8.07002 247.86C8.20336 247.987 8.38065 248.059 8.56502 248.059C8.74939 248.059 8.92667 247.987 9.06001 247.86C9.19335 247.732 9.2725 247.557 9.281 247.373C9.19241 244.646 8.45643 241.979 7.13423 239.595C5.81202 237.211 3.94177 235.177 1.67888 233.664V233.664ZM6.49636 228.309C5.86043 227.636 4.84936 228.652 5.48528 229.325C8.9279 232.988 11.3273 237.512 12.4332 242.423C12.6391 243.33 14.0192 242.943 13.8209 242.036C12.6429 236.888 10.1159 232.149 6.50093 228.309H6.49636ZM14.1885 230.088L14.646 240.384C14.6917 241.302 16.1237 241.302 16.0795 240.384L15.622 230.088C15.5869 229.17 14.1458 229.17 14.19 230.088H14.1885ZM106.713 228.597C104.806 232.285 103.271 236.155 102.129 240.15C102.104 240.241 102.097 240.337 102.108 240.431C102.12 240.525 102.15 240.616 102.196 240.698C102.243 240.781 102.305 240.853 102.38 240.912C102.454 240.97 102.54 241.013 102.631 241.039C102.722 241.064 102.817 241.071 102.911 241.059C103.005 241.048 103.095 241.018 103.178 240.971C103.26 240.924 103.332 240.862 103.39 240.787C103.449 240.712 103.492 240.627 103.517 240.535C104.622 236.66 106.11 232.904 107.958 229.325C108.379 228.499 107.143 227.77 106.713 228.597ZM111.97 230.876C110.02 233.886 108.45 237.128 107.296 240.526C107 241.407 108.379 241.784 108.684 240.913C109.803 237.636 111.325 234.513 113.214 231.614C113.716 230.823 112.479 230.096 111.97 230.876V230.876ZM117.343 234.293C117.176 234.201 116.981 234.177 116.798 234.225C116.615 234.273 116.457 234.391 116.357 234.553C115.308 236.068 111.888 242.414 113.663 242.899C113.847 242.948 114.043 242.923 114.208 242.829C114.374 242.735 114.496 242.579 114.549 242.396C115.846 236.211 118.721 235.099 117.343 234.287V234.293ZM152.793 231.237C152.12 230.601 151.1 231.615 151.78 232.253C154.427 234.759 156.422 237.877 157.592 241.335C157.888 242.207 159.269 241.839 158.98 240.95C157.732 237.257 155.609 233.924 152.793 231.237V231.237ZM158.058 228.534C157.441 227.841 156.428 228.866 157.046 229.55C159.634 232.456 161.407 235.999 162.185 239.818C162.373 240.725 163.753 240.339 163.573 239.432C162.726 235.374 160.824 231.614 158.058 228.534ZM165.311 227.877C165.527 231.434 165.744 234.992 165.964 238.551C166.019 239.469 167.46 239.469 167.398 238.551C167.183 234.993 166.965 231.435 166.743 227.877C166.69 226.959 165.256 226.959 165.311 227.877ZM174.445 233.116C174.278 233.024 174.083 232.999 173.899 233.048C173.715 233.096 173.557 233.214 173.458 233.376C169.545 238.762 168.99 239.115 169.886 239.649C170.684 240.121 170.775 239.496 174.704 234.098C174.798 233.932 174.823 233.736 174.775 233.551C174.726 233.367 174.608 233.208 174.445 233.11" fill="#5BBD8F"/>
<path d="M135.216 134.807C132.204 141.553 130.537 148.824 130.308 156.212C130.142 162.211 130.91 168.199 132.583 173.96C135.277 183.371 143.388 199.817 152.543 196.673C156.796 195.207 156.983 189.682 156.392 185.954C154.915 176.755 143.83 160.671 158.667 144.881C165.786 137.286 181.676 127.947 181.847 109.431C181.362 109.229 180.887 109.007 180.421 108.764C180.84 136.217 150.101 137.56 149.665 162.66C149.424 176.124 156.805 183.229 154.931 191.604C154.074 195.429 151.226 196.321 147.81 195.028C138.831 191.63 132.737 172.843 131.899 162.471C129.637 133.948 147.083 123.398 151.053 111.659C148.596 111.476 150.507 110.913 147.757 115.559C143.752 122.324 139.752 125.546 135.92 133.381C134.288 133.424 90.986 134.452 90.9509 134.452C91.4923 132.31 98.0681 106.147 98.1946 105.597C98.234 105.416 98.2029 105.227 98.1078 105.069C98.0127 104.91 97.8607 104.794 97.6831 104.745C97.5056 104.695 97.3158 104.716 97.1529 104.802C96.9899 104.889 96.8661 105.034 96.8069 105.21C82.8943 160.749 85.9153 151.247 81.9168 158.87C73.7203 154.9 64.5242 153.493 55.5207 154.829C46.5173 156.166 38.1218 160.186 31.4225 166.367C-2.9937 197.231 23.7136 253.144 67.1075 248.953C88.2059 246.907 106.431 230.339 109.156 209.003C111.407 191.206 103.148 171.394 83.1886 159.548C86.7587 152.566 85.6057 156.215 89.493 140.314L90.594 135.921C129.36 135.034 134.22 134.829 135.223 134.807H135.216ZM97.2674 173.221C119.246 200.804 105.664 238.009 73.8877 246.268C32.1591 257.103 -0.715351 206.128 27.6802 172.242C40.9476 156.393 62.9732 151.035 81.226 160.123L77.9137 166.627C71.2752 163.511 63.8637 162.443 56.6196 163.56C49.3755 164.677 42.6252 167.927 37.2251 172.898C9.14073 198.041 30.9955 243.522 66.2001 240.14C101.806 236.712 115.801 189.297 79.2191 167.274C80.3211 165.11 81.4257 162.945 82.5329 160.779C88.2316 163.891 93.2473 168.123 97.2811 173.221H97.2674ZM62.2062 200.657C62.8604 199.367 77.9823 169.698 78.5572 168.567C83.8369 171.444 88.4012 175.481 91.9096 180.374C95.418 185.268 97.7801 190.893 98.8199 196.831C105.101 233.214 56.2724 255.528 33.0055 223.341C10.4507 192.068 44.4567 152.318 77.2671 167.912C76.4375 169.514 61.0288 199.782 60.9495 199.938C60.5561 200.757 61.7913 201.483 62.2122 200.657H62.2062ZM262.358 201.708C260.985 164.771 220.071 139.971 188.046 163.305C188.333 163.691 188.61 164.078 188.897 164.473C207.9 150.583 234.025 152.95 250.172 173.213C272.092 200.724 258.559 238.012 226.792 246.26C195.128 254.484 164.935 225.956 170.791 193.302L177.958 194.568C176.439 203.108 177.814 211.913 181.862 219.579C201.289 256.201 254.84 240.12 253.632 201.701C252.477 171.549 219.196 151.498 193.208 170.401C193.495 170.788 193.772 171.166 194.059 171.57C218.88 153.495 251.094 172.615 252.207 201.701C253.333 235.446 207.972 253.889 185.893 223.333C182.953 219.263 180.861 214.641 179.743 209.741C178.624 204.842 178.502 199.767 179.383 194.819C180.345 194.988 207.999 199.868 209.37 200.12C215.97 201.303 213.906 200.858 214.278 200.981C215.182 201.144 215.566 199.757 214.662 199.589C214.233 199.519 210.508 198.853 209.576 198.691C209.503 198.68 180.933 193.627 179.669 193.41C180.923 187.685 183.539 182.349 187.294 177.859C192.937 171.14 193.699 173.474 192.057 171.255C185.044 176.715 180.154 184.462 178.233 193.157L171.065 191.89C172.578 184.654 175.844 177.902 180.575 172.233C187.677 163.74 188.696 166.582 186.896 164.156C178.072 170.97 171.953 180.711 169.633 191.638C168.9 191.503 161.888 190.275 161.825 190.261C160.919 190.099 160.535 191.485 161.439 191.653C162.667 191.866 169.176 193.015 169.356 193.045C161.77 236.745 213.466 267.572 247.419 236.608C252.295 232.237 256.158 226.848 258.738 220.82C261.319 214.793 262.553 208.271 262.355 201.714L262.358 201.708ZM169.565 11.7205C171.436 13.4999 179.181 20.6067 183.247 20.3986C187.894 20.1569 185.368 14.5158 185.368 14.5158C198.084 18.2796 202.802 7.73177 201.585 3.39269C200.368 -0.946386 197.925 1.51538 197.925 1.51538C196.145 3.87766 193.581 5.52246 190.697 6.15197C187.813 6.78148 184.799 6.35409 182.202 4.94717C173.874 0.877375 168.393 4.14851 166.89 5.26235C168.846 6.08855 170.059 9.73761 169.568 11.7205H169.565ZM132.153 18.3592C132.153 18.3592 130.845 21.4849 132.654 23.2016C131.453 28.2889 130.63 34.7822 133.569 39.1136C136.324 43.1895 142.229 44.7088 147.141 44.4594C147.092 46.3388 147.146 48.2195 147.303 50.0929C147.396 51.6537 147.648 53.2009 148.054 54.7104C148.08 54.8083 148.117 54.9078 148.143 55.0057C149.265 58.4742 151.3 58.488 154.456 56.5969C154.492 56.568 154.531 56.5438 154.572 56.525C154.662 55.8544 154.794 55.1901 154.967 54.536C154.161 55.1648 151.765 56.7193 150.803 56.3965C150.803 56.3965 150.65 56.3536 150.65 56.3506C148.515 55.1618 148.515 46.199 148.626 43.7204C148.695 42.2532 146.624 43.852 141.059 42.3725C132.422 40.0775 132.028 32.7151 133.985 23.9651C134.233 22.7871 134.553 21.6256 134.944 20.4874C135.02 20.569 135.113 20.6317 135.217 20.6706C135.321 20.7094 135.433 20.7233 135.544 20.7111C135.654 20.6989 135.76 20.661 135.853 20.6003C135.946 20.5397 136.024 20.4581 136.08 20.3619C136.42 19.7617 136.936 19.281 137.558 18.9849C137.878 18.8442 138.853 18.6881 138.606 17.9139C138.243 16.82 136.609 17.7487 135.821 18.4357C139.658 11.2676 150.356 12.7379 153.865 17.8956C155.655 21.0497 156.676 24.5837 156.846 28.2093C156.927 29.1457 156.694 30.3758 157.706 30.0453C162.932 28.321 164.823 30.44 163.661 32.2102C162.932 33.011 161.927 33.5033 160.849 33.5872C157.133 34.3155 157.557 31.7359 158.714 41.583C159.061 44.0283 159.277 46.4906 159.359 48.9592C159.318 49.2453 159.207 49.1626 159.861 48.9683C161.099 48.5537 161.212 50.5595 159.655 37.5316C166.681 38.0656 171.93 25.1049 167.489 13.3469C161.084 -3.71875 134.397 1.37309 129.344 13.2581C125.074 23.1756 132.166 18.3515 132.166 18.3515" fill="#1D1D1B"/>
<path d="M36.6456 146.988C38.227 147.808 36.8896 147.526 70.8788 147.428C75.5697 147.41 84.9454 147.384 84.7212 147.384C84.9113 147.384 85.0936 147.308 85.228 147.173C85.3625 147.039 85.438 146.856 85.438 146.665C85.438 146.474 85.3625 146.291 85.228 146.157C85.0936 146.022 84.9113 145.946 84.7212 145.946C35.299 146.099 38.5335 146.204 37.6841 145.892C35.1877 144.974 35.5491 142.597 35.7153 140.834C37.0802 127.939 36.6944 130.054 37.2815 130.054C46.0594 130.107 87.2512 130.244 87.1582 130.244C87.3423 130.235 87.5162 130.156 87.6435 130.022C87.7708 129.888 87.8419 129.71 87.8419 129.525C87.8419 129.34 87.7708 129.162 87.6435 129.029C87.5162 128.895 87.3423 128.815 87.1582 128.807C81.0932 128.807 36.5282 128.614 37.2815 128.617C36.917 128.617 36.9003 129.569 37.5865 123.362C41.1276 123.383 90.6443 123.524 89.589 123.524C89.7791 123.524 89.9614 123.448 90.0958 123.313C90.2303 123.178 90.3058 122.995 90.3058 122.805C90.3058 122.614 90.2303 122.431 90.0958 122.296C89.9614 122.161 89.7791 122.086 89.589 122.086C74.8102 122.086 38.6967 121.885 37.739 121.916C38.167 117.855 38.5996 113.794 39.0368 109.734C39.6117 104.428 42.4406 107.01 93.9902 107.01C94.1743 107.002 94.3482 106.923 94.4755 106.789C94.6028 106.655 94.6739 106.477 94.6739 106.292C94.6739 106.107 94.6028 105.929 94.4755 105.796C94.3482 105.662 94.1743 105.582 93.9902 105.574C35.7352 104.855 38.3749 102.688 37.3623 111.836C33.7542 145.579 34.1431 141.901 34.1034 142.344C34.0319 143.282 34.2342 144.221 34.6857 145.046C35.1371 145.87 35.8182 146.545 36.6456 146.988V146.988ZM161.513 204.511C158.676 202.007 146.224 195.293 135.008 197.585C126.569 199.308 121.71 201.968 130.073 204.133C135.63 205.565 163.44 211.996 162.963 206.254C162.873 205.21 162.274 205.183 161.513 204.511ZM53.0683 182.744C52.8975 182.484 52.7282 182.224 52.5666 181.962C52.0649 181.197 50.8205 181.909 51.3313 182.69C53.1446 185.489 55.1942 188.657 55.3695 188.934C55.8713 189.699 57.1157 188.988 56.6048 188.206C55.4321 186.382 54.2502 184.568 53.0683 182.744ZM228.869 182.637C227.149 185.204 225.432 187.774 223.719 190.345C223.2 191.11 224.446 191.835 224.956 191.072C226.676 188.501 228.392 185.929 230.106 183.354C230.624 182.589 229.378 181.864 228.869 182.637ZM213.799 214.637C213.625 220.137 211.298 221.471 212.501 222.19C214.104 223.108 215.171 216.82 215.246 214.637C215.273 213.711 213.831 213.711 213.805 214.637H213.799ZM224.526 206.219C224.391 206.26 224.272 206.338 224.181 206.446C224.091 206.553 224.033 206.684 224.015 206.824C223.997 206.963 224.02 207.105 224.081 207.232C224.141 207.359 224.237 207.466 224.356 207.539C227.81 209.045 228.035 210.957 228.896 210.001C229.027 209.865 229.101 209.682 229.101 209.493C229.101 209.303 229.027 209.121 228.896 208.985C227.691 207.707 225.175 206.046 224.526 206.219V206.219ZM71.5376 218.697C71.6369 218.857 71.7942 218.971 71.9762 219.016C72.1582 219.062 72.3505 219.034 72.5125 218.939C72.6745 218.845 72.7933 218.69 72.8439 218.509C72.8945 218.328 72.8728 218.134 72.7835 217.969C67.9721 210.907 67.8547 210.246 67.0343 210.72C66.8723 210.819 66.7548 210.977 66.7064 211.161C66.6581 211.345 66.6827 211.541 66.775 211.707C68.3691 214.034 69.9567 216.365 71.5376 218.697V218.697ZM52.5483 209.273C50.973 210.755 49.3885 212.238 47.8116 213.719C47.6872 213.855 47.6201 214.035 47.6243 214.22C47.6285 214.405 47.7036 214.581 47.834 214.712C47.9645 214.843 48.1402 214.918 48.3247 214.923C48.5091 214.927 48.688 214.86 48.8242 214.735C53.6356 210.212 54.2746 209.964 53.5609 209.273C53.4239 209.143 53.2428 209.071 53.0546 209.071C52.8664 209.071 52.6853 209.143 52.5483 209.273" fill="#1D1D1B"/>
<path d="M115.791 93.7195C115.339 92.7129 114.732 91.7837 113.994 90.9655C110.673 90.3337 107.252 90.4872 104.002 91.4138C95.9192 94.483 95.7347 102.915 100.302 99.9313C101.015 99.459 101.632 98.8551 102.12 98.1519C102.55 97.4955 103.713 97.9102 103.436 98.7088C101.653 103.765 104.93 102.948 107.502 99.1403C107.913 98.5283 108.888 98.7088 108.809 99.8135C108.574 102.635 109.922 102.664 112.257 100.955C114.881 99.0393 113.516 99.0332 115.764 99.0332H116.319C116.402 97.2456 116.224 95.4556 115.791 93.7195V93.7195Z" fill="#FFCEB6"/>
<path d="M147.268 24.4789C146.936 24.5144 146.629 24.6717 146.406 24.9206C146.183 25.1694 146.06 25.4922 146.06 25.8269C146.06 26.1615 146.183 26.4843 146.406 26.7331C146.629 26.982 146.936 27.1393 147.268 27.1748C148.884 27.1748 148.87 24.4789 147.268 24.4789ZM137.813 24.8461C137.813 24.6854 137.781 24.5262 137.72 24.3777C137.658 24.2292 137.569 24.0943 137.455 23.9806C137.342 23.867 137.207 23.7768 137.059 23.7153C136.911 23.6538 136.753 23.6221 136.593 23.6221C136.432 23.6221 136.274 23.6538 136.126 23.7153C135.978 23.7768 135.843 23.867 135.73 23.9806C135.617 24.0943 135.527 24.2292 135.465 24.3777C135.404 24.5262 135.373 24.6854 135.373 24.8461C135.373 25.0069 135.404 25.166 135.465 25.3145C135.527 25.463 135.617 25.598 135.73 25.7116C135.843 25.8253 135.978 25.9154 136.126 25.977C136.274 26.0385 136.432 26.0701 136.593 26.0701C136.753 26.0701 136.911 26.0385 137.059 25.977C137.207 25.9154 137.342 25.8253 137.455 25.7116C137.569 25.598 137.658 25.463 137.72 25.3145C137.781 25.166 137.813 25.0069 137.813 24.8461V24.8461ZM152.524 21.9988C151.287 18.9541 148.122 18.2656 148.19 19.6533C148.224 20.3617 148.748 20.2959 149.41 20.5514C150.2 20.9305 150.822 21.5902 151.155 22.4027C151.208 22.5853 151.332 22.7392 151.498 22.8304C151.665 22.9217 151.86 22.9428 152.042 22.8893C152.224 22.8357 152.378 22.7118 152.469 22.5448C152.56 22.3778 152.581 22.1814 152.527 21.9988H152.524ZM146.194 30.8391C142.966 33.5595 139.919 33.0959 138.734 31.9101C138.044 31.2905 137.033 32.3064 137.723 32.9261C139.489 34.5096 142.744 35.0023 146.174 32.6476C146.259 33.3511 146.125 34.0639 145.791 34.6879C145.456 35.312 144.937 35.8168 144.304 36.1329C143.481 36.546 144.205 37.7945 145.029 37.3722C148.783 35.4812 147.91 29.3841 146.194 30.8422" fill="#1D1D1B"/>
<path d="M209.788 77.7061C204.103 71.3245 198.322 74.0831 187.133 66.8722C173.765 48.656 156.614 41.7542 154.574 56.4958C153.923 61.3015 156.556 48.8611 164.988 50.6114C164.472 50.3673 163.94 50.1602 163.395 49.9917C171.527 50.668 181.013 61.1011 185.907 67.573C185.904 68.2893 185.856 69.0048 185.762 69.715C182.181 65.8655 172.037 55.333 168.235 52.4642C169.501 53.7199 170.465 55.2482 171.055 56.9333C176.618 62.1353 180.723 66.5371 185.467 71.4943C184.543 75.2518 182.813 78.7619 180.398 81.7805C177.462 85.4936 174.04 88.7933 170.227 91.5909C165.488 83.7879 166.966 84.1107 165.328 85.7968C166.15 87.3574 168.448 91.519 169.037 92.4615C168.166 93.0735 167.442 93.5677 166.87 93.9272C165.351 92.0975 164.102 90.058 163.161 87.8715C162.785 88.1943 162.409 88.5095 162.016 88.8155C163.018 91.163 164.41 93.3225 166.133 95.2017C170.265 100.212 175.913 107.01 181.841 109.431C197.518 116.102 222.205 91.6582 209.788 77.7092V77.7061ZM198.765 96.799C198.663 96.8399 198.552 96.8556 198.442 96.8449C197.894 98.3906 196.92 99.7484 195.633 100.76C194.345 101.771 192.798 102.395 191.171 102.558C186.666 103.038 182.773 100.37 179.297 97.4554C179.221 97.3768 179.164 97.2819 179.129 97.1779C179.094 97.0739 179.083 96.9634 179.097 96.8547C179.111 96.7459 179.149 96.6416 179.208 96.5496C179.268 96.4576 179.347 96.3802 179.441 96.3232C186.283 93.1454 186.389 92.997 187.322 92.9006C186.209 91.034 184.031 84.5024 186.05 85.3179C187.929 85.9375 189.863 86.3741 191.825 86.6215C191.152 83.9623 191.305 81.1602 192.263 78.5905C192.729 78.032 193.535 78.5905 193.463 79.2025C193.605 79.2854 193.752 79.36 193.902 79.4259C205.928 85.4602 204.272 94.6601 198.765 96.7914" fill="#86F2AA"/>
<path d="M94.4995 103.032C96.2075 104.773 101.145 105.831 103.344 103.615C104.909 103.852 106.419 102.57 107.489 101.406C108.36 105.231 112.217 103.233 115.003 100.445H116.472C116.519 100.59 116.612 100.715 116.736 100.802C116.86 100.89 117.009 100.934 117.161 100.93C143.734 99.8774 173.211 92.7048 172.823 66.0185C172.621 49.9673 161.915 46.7665 156.658 53.9453C156.684 53.8397 156.723 53.7739 156.64 53.9805C149.345 64.2315 150.133 76.0614 138.035 81.9015C130.229 85.6974 113.323 88.433 113.268 89.4122C107.413 88.7666 100.972 90.0365 97.5449 94.9738C95.5426 93.5218 92.5124 95.1742 92.8799 99.2226C92.9749 100.64 93.5458 101.983 94.4995 103.032V103.032ZM125.304 87.616C135.696 84.7779 142.935 82.9067 147.887 74.917C153.529 65.7676 156.161 49.5833 164.622 52.0359C170.875 53.9009 171.928 63.5797 171.204 70.0745C168.645 92.769 140.724 98.5004 118.085 99.449C118.162 98.7136 118.153 97.9716 118.059 97.2382C116.879 86.9321 109.566 91.8939 125.312 87.6175L125.304 87.616ZM98.1351 96.7333C102.605 88.941 114.148 90.9438 113.995 90.9575C115.866 92.8348 116.35 96.36 116.324 99.0069H115.763C113.521 99.0069 114.712 99.1797 112.255 100.93C111.601 101.406 109.91 102.699 109.139 101.782C108.545 101.078 108.9 99.0665 108.816 99.6724C108.856 99.5051 108.835 99.3291 108.758 99.1756C108.681 99.0221 108.552 98.9011 108.394 98.8341C108.236 98.7671 108.059 98.7585 107.896 98.8097C107.732 98.861 107.592 98.9688 107.5 99.114C107.12 99.6742 106.688 100.198 106.211 100.678C103.771 103.196 102.053 102.745 103.434 98.6886C103.712 97.8884 102.548 97.4753 102.118 98.1317C99.686 101.845 95.7134 100.965 98.1335 96.7379L98.1351 96.7333ZM94.382 97.6191C94.745 96.0172 96.0702 95.5781 96.7016 96.1366C96.8708 96.2651 96.8403 96.0631 96.5933 96.5956C94.5849 100.841 98.0329 103.614 101.528 100.88C101.462 101.583 101.633 102.288 102.012 102.884C99.9056 104.414 93.13 103.087 94.3866 97.6191" fill="#1D1D1B"/>
</svg>
